{
.appVersion = "3129";
.formatVersion = 3;
axes = (
{
name = Weight;
tag = wght;
}
);
customParameters = (
{
name = fsType;
value = (
);
},
{
name = "Use Typo Metrics";
value = 1;
},
{
name = glyphOrder;
value = (
.notdef,
CR,
.null,
space,
nbspace
);
}
);
date = "2021-10-06 15:06:18 +0000";
familyName = Helius;
featurePrefixes = (
{
automatic = 1;
code = "languagesystem DFLT dflt;

languagesystem hebr dflt;
languagesystem hebr IWR;
";
name = Languagesystems;
}
);
features = (
{
automatic = 1;
code = "feature sups;
feature frac;
feature ordn;
";
tag = aalt;
},
{
automatic = 1;
code = "lookup ccmp_Other_1 {
	@CombiningTopAccents = [acutecomb circumflexcomb dieresiscomb gravecomb macroncomb ringcomb tildecomb];
	@CombiningNonTopAccents = [cedillacomb];
	sub [i]' @CombiningTopAccents by [idotless];
	sub [i]' @CombiningNonTopAccents @CombiningTopAccents by [idotless];
} ccmp_Other_1;
";
tag = ccmp;
},
{
automatic = 1;
code = "sub one by onesuperior;
sub two by twosuperior;
sub three by threesuperior;
sub four by foursuperior;
";
tag = sups;
},
{
automatic = 1;
code = "sub one slash four by onequarter;
sub one slash two by onehalf;
sub three slash four by threequarters;
";
tag = frac;
},
{
automatic = 1;
code = "sub [zero one two three four five six seven eight nine] [A a]' by ordfeminine;
sub [zero one two three four five six seven eight nine] [O o]' by ordmasculine;
";
tag = ordn;
}
);
fontMaster = (
{
axesValues = (
200
);
iconName = Light;
id = "0A901A10-6B10-40AA-AC10-6ECA400C9626";
metricValues = (
{
pos = 782;
},
{
over = 10;
pos = 680;
},
{
over = 10;
pos = 518;
},
{
over = -5;
},
{
pos = -218;
},
{
over = -5;
}
);
name = Light;
},
{
axesValues = (
700
);
iconName = Bold;
id = "88F21F75-214F-41EE-AE9C-B4AA79D6697C";
metricValues = (
{
pos = 782;
},
{
over = 10;
pos = 680;
},
{
over = 10;
pos = 518;
},
{
over = -5;
},
{
pos = -218;
},
{
over = -5;
}
);
name = Black;
}
);
glyphs = (
{
glyphname = A;
lastChange = "2021-10-11 16:53:24 +0000";
layers = (
{
anchors = (
{
name = bottom;
pos = (304,0);
},
{
name = ogonek;
pos = (546,10);
},
{
name = top;
pos = (304,680);
}
);
hints = (
{
horizontal = 1;
place = (0, 21);
target = up;
type = BottomGhost;
},
{
horizontal = 1;
place = (239, 28);
place = (239, 28);
type = Stem;
},
{
horizontal = 1;
place = (645, 38);
place = (645, 38);
type = Stem;
},
{
place = (20, 567);
place = (20, 567);
type = Stem;
}
);
layerId = "0A901A10-6B10-40AA-AC10-6ECA400C9626";
shapes = (
{
closed = 1;
nodes = (
(50,0,l),
(304,645,l),
(557,0,l),
(587,0,l),
(319,683,l),
(289,683,l),
(20,0,l)
);
},
{
closed = 1;
nodes = (
(466,241,l),
(466,267,l),
(141,267,l),
(141,241,l)
);
}
);
width = 607;
},
{
anchors = (
{
name = bottom;
pos = (375,0);
},
{
name = ogonek;
pos = (674,10);
},
{
name = top;
pos = (375,680);
}
);
hints = (
{
horizontal = 1;
place = (0, 21);
target = up;
type = BottomGhost;
},
{
horizontal = 1;
place = (173, 160);
place = (173, 160);
type = Stem;
},
{
place = (20, 709);
place = (20, 709);
type = Stem;
}
);
layerId = "88F21F75-214F-41EE-AE9C-B4AA79D6697C";
shapes = (
{
closed = 1;
nodes = (
(192,0,l),
(374,464,l),
(557,0,l),
(729,0,l),
(460,680,l),
(289,680,l),
(20,0,l)
);
},
{
closed = 1;
nodes = (
(547,163,l),
(547,303,l),
(210,303,l),
(210,163,l)
);
}
);
width = 749;
}
);
note = A;
unicode = 65;
},
{
glyphname = AE;
lastChange = "2021-10-11 16:54:37 +0000";
layers = (
{
layerId = "0A901A10-6B10-40AA-AC10-6ECA400C9626";
shapes = (
{
closed = 1;
nodes = (
(50,0,l),
(145,241,l),
(451,241,l),
(451,0,l),
(909,0,l),
(909,28,l),
(480,28,l),
(480,345,l),
(861,345,l),
(861,373,l),
(480,373,l),
(480,652,l),
(901,652,l),
(901,680,l),
(289,680,l),
(20,0,l)
);
},
{
closed = 1;
nodes = (
(308,652,l),
(451,652,l),
(451,267,l),
(156,267,l)
);
}
);
width = 928;
},
{
layerId = "88F21F75-214F-41EE-AE9C-B4AA79D6697C";
shapes = (
{
closed = 1;
nodes = (
(192,0,l),
(255,163,l),
(434,163,l),
(434,0,l),
(927,0,l),
(927,150,l),
(594,150,l),
(594,284,l),
(887,284,l),
(887,424,l),
(594,424,l),
(594,532,l),
(920,532,l),
(920,680,l),
(289,680,l),
(20,0,l)
);
},
{
closed = 1;
nodes = (
(399,533,l),
(434,533,l),
(434,303,l),
(310,303,l)
);
}
);
width = 946;
}
);
metricLeft = A;
metricRight = E;
unicode = 198;
},
{
glyphname = B;
lastChange = "2021-10-06 15:00:21 +0000";
layers = (
{
hints = (
{
horizontal = 1;
origin = (0,14);
target = (1,8);
type = Stem;
},
{
horizontal = 1;
origin = (1,0);
target = (2,8);
type = Stem;
},
{
horizontal = 1;
origin = (0,13);
target = (2,0);
type = Stem;
},
{
origin = (0,14);
target = (1,8);
type = Stem;
},
{
origin = (1,4);
target = (0,3);
type = Stem;
},
{
origin = (2,4);
target = (0,9);
type = Stem;
}
);
layerId = "0A901A10-6B10-40AA-AC10-6ECA400C9626";
shapes = (
{
closed = 1;
nodes = (
(335,0,ls),
(478,0,o),
(553,96,o),
(553,193,cs),
(553,276,o),
(497,341,o),
(419,366,c),
(481,392,o),
(521,451,o),
(521,521,cs),
(521,625,o),
(433,680,o),
(335,680,cs),
(50,680,l),
(50,0,l)
);
},
{
closed = 1;
nodes = (
(78,350,l),
(339,350,ls),
(468,350,o),
(525,269,o),
(525,191,cs),
(525,110,o),
(460,28,o),
(335,28,cs),
(78,28,l)
);
},
{
closed = 1;
nodes = (
(78,652,l),
(335,652,ls),
(444,652,o),
(493,587,o),
(493,519,cs),
(493,450,o),
(440,378,o),
(339,378,cs),
(78,378,l)
);
}
);
width = 582;
},
{
hints = (
{
horizontal = 1;
origin = (0,14);
target = (1,8);
type = Stem;
},
{
horizontal = 1;
origin = (1,0);
target = (2,8);
type = Stem;
},
{
horizontal = 1;
origin = (0,13);
target = (2,0);
type = Stem;
},
{
origin = (0,14);
target = (1,8);
type = Stem;
},
{
origin = (1,4);
target = (0,3);
type = Stem;
},
{
origin = (2,4);
target = (0,9);
type = Stem;
}
);
layerId = "88F21F75-214F-41EE-AE9C-B4AA79D6697C";
shapes = (
{
closed = 1;
nodes = (
(370,0,ls),
(542,0,o),
(638,75,o),
(638,206,cs),
(638,276,o),
(611,324,o),
(537,358,c),
(587,385,o),
(613,445,o),
(613,501,cs),
(613,609,o),
(516,680,o),
(370,680,cs),
(50,680,l),
(50,0,l)
);
},
{
closed = 1;
nodes = (
(210,284,l),
(379,284,ls),
(431,284,o),
(463,260,o),
(463,214,cs),
(463,164,o),
(437,140,o),
(369,140,cs),
(210,140,l)
);
},
{
closed = 1;
nodes = (
(210,540,l),
(369,540,ls),
(427,540,o),
(453,524,o),
(453,480,cs),
(453,428,o),
(418,416,o),
(359,416,cs),
(210,416,l)
);
}
);
width = 667;
}
);
note = B;
unicode = 66;
},
{
glyphname = C;
lastChange = "2021-10-22 16:04:56 +0000";
layers = (
{
anchors = (
{
name = bottom;
pos = (320,0);
},
{
name = top;
pos = (320,680);
}
);
hints = (
{
horizontal = 1;
origin = (0,25);
target = (0,6);
type = Stem;
},
{
horizontal = 1;
origin = (0,19);
target = (0,12);
type = Stem;
},
{
origin = (0,22);
target = (0,9);
type = Stem;
},
{
origin = (0,15);
target = (0,16);
type = Stem;
}
);
layerId = "0A901A10-6B10-40AA-AC10-6ECA400C9626";
shapes = (
{
closed = 1;
nodes = (
(468,-5,o),
(596,86,o),
(608,221,c),
(576,221,l),
(564,93,o),
(440,23,o),
(325,23,cs),
(182,23,o),
(62,131,o),
(62,341,cs),
(62,550,o),
(180,660,o),
(332,660,cs),
(460,660,o),
(567,582,o),
(577,457,c),
(609,457,l),
(599,586,o),
(484,688,o),
(330,688,cs),
(142,688,o),
(30,536,o),
(30,340,cs),
(30,141,o),
(145,-5,o),
(325,-5,cs)
);
}
);
width = 639;
},
{
anchors = (
{
name = bottom;
pos = (358,0);
},
{
name = top;
pos = (358,680);
}
);
hints = (
{
horizontal = 1;
origin = (0,25);
target = (0,6);
type = Stem;
},
{
horizontal = 1;
origin = (0,19);
target = (0,12);
type = Stem;
},
{
origin = (0,22);
target = (0,9);
type = Stem;
}
);
layerId = "88F21F75-214F-41EE-AE9C-B4AA79D6697C";
shapes = (
{
closed = 1;
nodes = (
(532,-5,o),
(685,91,o),
(695,268,c),
(509,268,l),
(499,188,o),
(435,155,o),
(362,155,cs),
(257,155,o),
(200,222,o),
(200,340,cs),
(200,457,o),
(257,528,o),
(362,528,cs),
(434,528,o),
(498,494,o),
(508,415,c),
(694,415,l),
(684,591,o),
(530,688,o),
(362,688,cs),
(160,688,o),
(20,548,o),
(20,340,cs),
(20,129,o),
(163,-5,o),
(362,-5,cs)
);
}
);
width = 715;
}
);
metricLeft = O;
metricRight = O;
note = C;
unicode = 67;
},
{
glyphname = D;
lastChange = "2021-10-06 15:00:21 +0000";
layers = (
{
hints = (
{
horizontal = 1;
origin = (0,8);
target = (1,8);
type = Stem;
},
{
horizontal = 1;
origin = (0,7);
target = (1,0);
type = Stem;
},
{
origin = (0,8);
target = (1,8);
type = Stem;
},
{
origin = (1,4);
target = (0,3);
type = Stem;
}
);
layerId = "0A901A10-6B10-40AA-AC10-6ECA400C9626";
shapes = (
{
closed = 1;
nodes = (
(236,0,ls),
(477,0,o),
(578,149,o),
(578,342,cs),
(578,535,o),
(476,680,o),
(236,680,cs),
(50,680,l),
(50,0,l)
);
},
{
closed = 1;
nodes = (
(78,652,l),
(236,652,ls),
(485,652,o),
(550,492,o),
(550,337,cs),
(550,161,o),
(458,28,o),
(236,28,cs),
(78,28,l)
);
}
);
width = 608;
},
{
hints = (
{
horizontal = 1;
origin = (0,8);
target = (1,8);
type = Stem;
},
{
horizontal = 1;
origin = (0,7);
target = (1,0);
type = Stem;
},
{
origin = (0,8);
target = (1,8);
type = Stem;
},
{
origin = (1,4);
target = (0,3);
type = Stem;
}
);
layerId = "88F21F75-214F-41EE-AE9C-B4AA79D6697C";
shapes = (
{
closed = 1;
nodes = (
(316,0,ls),
(529,0,o),
(666,134,o),
(666,342,cs),
(666,549,o),
(529,680,o),
(316,680,cs),
(50,680,l),
(50,0,l)
);
},
{
closed = 1;
nodes = (
(210,530,l),
(316,530,ls),
(441,530,o),
(506,460,o),
(506,341,cs),
(506,222,o),
(441,150,o),
(316,150,cs),
(210,150,l)
);
}
);
width = 686;
}
);
metricLeft = N;
metricRight = O;
note = D;
unicode = 68;
},
{
glyphname = E;
lastChange = "2021-10-22 16:05:00 +0000";
layers = (
{
anchors = (
{
name = bottom;
pos = (264,0);
},
{
name = ogonek;
pos = (474,10);
},
{
name = top;
pos = (264,680);
},
{
name = topleft;
pos = (20,680);
}
);
hints = (
{
horizontal = 1;
place = (0, 60);
place = (0, 60);
type = Stem;
},
{
horizontal = 1;
place = (328, 60);
place = (328, 60);
type = Stem;
},
{
horizontal = 1;
place = (623, 60);
place = (623, 60);
type = Stem;
},
{
place = (52, 60);
place = (52, 60);
type = Stem;
}
);
layerId = "0A901A10-6B10-40AA-AC10-6ECA400C9626";
shapes = (
{
closed = 1;
nodes = (
(508,0,l),
(508,28,l),
(79,28,l),
(79,345,l),
(460,345,l),
(460,373,l),
(79,373,l),
(79,652,l),
(500,652,l),
(500,680,l),
(50,680,l),
(50,0,l)
);
}
);
width = 527;
},
{
anchors = (
{
name = bottom;
pos = (281,0);
},
{
name = ogonek;
pos = (506,10);
},
{
name = top;
pos = (281,680);
},
{
name = topleft;
pos = (20,680);
}
);
hints = (
{
horizontal = 1;
origin = (0,11);
target = (0,2);
type = Stem;
},
{
horizontal = 1;
origin = (0,3);
target = (0,6);
type = Stem;
},
{
horizontal = 1;
origin = (0,10);
target = (0,7);
type = Stem;
},
{
origin = (0,11);
target = (0,2);
type = Stem;
}
);
layerId = "88F21F75-214F-41EE-AE9C-B4AA79D6697C";
shapes = (
{
closed = 1;
nodes = (
(543,0,l),
(543,150,l),
(210,150,l),
(210,284,l),
(503,284,l),
(503,424,l),
(210,424,l),
(210,530,l),
(536,530,l),
(536,680,l),
(50,680,l),
(50,0,l)
);
}
);
width = 562;
}
);
note = E;
unicode = 69;
},
{
glyphname = F;
lastChange = "2021-10-06 15:00:21 +0000";
layers = (
{
hints = (
{
horizontal = 1;
place = (0, 21);
target = up;
type = BottomGhost;
},
{
horizontal = 1;
place = (345, 28);
place = (345, 28);
type = Stem;
},
{
horizontal = 1;
place = (655, 28);
place = (655, 28);
type = Stem;
},
{
place = (50, 29);
place = (50, 29);
type = Stem;
}
);
layerId = "0A901A10-6B10-40AA-AC10-6ECA400C9626";
shapes = (
{
closed = 1;
nodes = (
(79,0,l),
(79,345,l),
(460,345,l),
(460,373,l),
(79,373,l),
(79,655,l),
(500,655,l),
(500,683,l),
(50,683,l),
(50,0,l)
);
}
);
width = 519;
},
{
hints = (
{
horizontal = 1;
origin = (0,9);
target = up;
type = BottomGhost;
},
{
horizontal = 1;
origin = (0,1);
target = (0,4);
type = Stem;
},
{
horizontal = 1;
origin = (0,8);
target = (0,5);
type = Stem;
},
{
origin = (0,9);
target = (0,0);
type = Stem;
}
);
layerId = "88F21F75-214F-41EE-AE9C-B4AA79D6697C";
shapes = (
{
closed = 1;
nodes = (
(210,0,l),
(210,282,l),
(502,282,l),
(502,422,l),
(210,422,l),
(210,530,l),
(542,530,l),
(542,680,l),
(50,680,l),
(50,0,l)
);
}
);
width = 561;
}
);
note = F;
unicode = 70;
},
{
glyphname = G;
lastChange = "2021-10-06 15:00:21 +0000";
layers = (
{
hints = (
{
horizontal = 1;
place = (-4, 28);
place = (-4, 28);
type = Stem;
},
{
horizontal = 1;
place = (305, 28);
place = (305, 28);
type = Stem;
},
{
horizontal = 1;
place = (661, 28);
place = (661, 28);
type = Stem;
},
{
place = (30, 28);
place = (30, 28);
type = Stem;
},
{
place = (580, 29);
place = (580, 29);
type = Stem;
}
);
layerId = "0A901A10-6B10-40AA-AC10-6ECA400C9626";
shapes = (
{
closed = 1;
nodes = (
(505,-4,o),
(619,135,o),
(619,317,cs),
(619,333,l),
(285,333,l),
(285,305,l),
(613,305,l),
(591,324,l),
(591,139,o),
(474,24,o),
(331,23,cs),
(179,23,o),
(62,131,o),
(62,340,cs),
(62,550,o),
(180,660,o),
(331,660,cs),
(438,660,o),
(567,584,o),
(577,457,c),
(609,457,l),
(599,592,o),
(465,688,o),
(331,688,cs),
(141,688,o),
(30,536,o),
(30,339,cs),
(30,141,o),
(141,-4,o),
(330,-4,cs)
);
}
);
width = 649;
},
{
layerId = "88F21F75-214F-41EE-AE9C-B4AA79D6697C";
shapes = (
{
closed = 1;
nodes = (
(543,-5,o),
(697,128,o),
(697,325,cs),
(697,383,l),
(376,383,l),
(376,253,l),
(560,253,l),
(528,288,l),
(512,191,o),
(434,155,o),
(362,155,cs),
(257,155,o),
(200,222,o),
(200,340,cs),
(200,457,o),
(257,528,o),
(362,528,cs),
(434,528,o),
(488,494,o),
(498,435,c),
(684,435,l),
(674,591,o),
(530,688,o),
(362,688,cs),
(160,688,o),
(20,548,o),
(20,340,cs),
(20,129,o),
(163,-5,o),
(362,-5,cs)
);
}
);
width = 717;
}
);
metricLeft = O;
metricRight = O;
note = G;
unicode = 71;
},
{
glyphname = H;
lastChange = "2021-10-06 15:00:21 +0000";
layers = (
{
hints = (
{
horizontal = 1;
place = (0, 21);
target = up;
type = BottomGhost;
},
{
horizontal = 1;
place = (348, 28);
place = (348, 28);
type = Stem;
},
{
place = (50, 28);
place = (50, 28);
type = Stem;
},
{
place = (525, 28);
place = (525, 28);
type = Stem;
}
);
layerId = "0A901A10-6B10-40AA-AC10-6ECA400C9626";
shapes = (
{
closed = 1;
nodes = (
(78,0,l),
(78,350,l),
(505,350,l),
(505,0,l),
(532,0,l),
(532,683,l),
(505,683,l),
(505,376,l),
(78,376,l),
(78,683,l),
(50,683,l),
(50,0,l)
);
}
);
width = 582;
},
{
hints = (
{
horizontal = 1;
origin = (0,11);
target = up;
type = BottomGhost;
},
{
horizontal = 1;
origin = (0,1);
target = (0,8);
type = Stem;
},
{
horizontal = 1;
origin = (0,10);
target = down;
type = TopGhost;
},
{
origin = (0,11);
target = (0,0);
type = Stem;
},
{
origin = (0,3);
target = (0,4);
type = Stem;
}
);
layerId = "88F21F75-214F-41EE-AE9C-B4AA79D6697C";
shapes = (
{
closed = 1;
nodes = (
(210,0,l),
(210,297,l),
(505,297,l),
(505,0,l),
(665,0,l),
(665,683,l),
(505,683,l),
(505,437,l),
(210,437,l),
(210,683,l),
(50,683,l),
(50,0,l)
);
}
);
width = 715;
}
);
metricLeft = N;
metricRight = N;
note = H;
unicode = 72;
},
{
glyphname = I;
lastChange = "2021-10-22 16:06:09 +0000";
layers = (
{
anchors = (
{
name = bottom;
pos = (66,0);
},
{
name = ogonek;
pos = (118,10);
},
{
name = top;
pos = (66,680);
},
{
name = topleft;
pos = (20,680);
}
);
hints = (
{
horizontal = 1;
place = (0, 21);
target = up;
type = BottomGhost;
},
{
horizontal = 1;
place = (683, -20);
target = down;
type = TopGhost;
},
{
place = (35, 60);
place = (35, 60);
type = Stem;
}
);
layerId = "0A901A10-6B10-40AA-AC10-6ECA400C9626";
shapes = (
{
closed = 1;
nodes = (
(81,0,l),
(81,684,l),
(50,684,l),
(50,0,l)
);
}
);
width = 131;
},
{
anchors = (
{
name = bottom;
pos = (130,0);
},
{
name = ogonek;
pos = (234,10);
},
{
name = top;
pos = (130,680);
},
{
name = topleft;
pos = (20,680);
}
);
hints = (
{
horizontal = 1;
place = (0, 21);
target = up;
type = BottomGhost;
},
{
horizontal = 1;
place = (683, -20);
target = down;
type = TopGhost;
},
{
place = (100, 60);
place = (100, 60);
type = Stem;
}
);
layerId = "88F21F75-214F-41EE-AE9C-B4AA79D6697C";
shapes = (
{
closed = 1;
nodes = (
(210,0,l),
(210,683,l),
(50,683,l),
(50,0,l)
);
}
);
width = 260;
}
);
note = I;
unicode = 73;
},
{
glyphname = J;
lastChange = "2021-10-06 15:00:21 +0000";
layers = (
{
hints = (
{
horizontal = 1;
origin = (0,17);
target = (0,8);
type = Stem;
},
{
horizontal = 1;
origin = (0,4);
target = down;
type = TopGhost;
},
{
origin = (0,14);
target = (0,11);
type = Stem;
},
{
origin = (0,5);
target = (0,2);
type = Stem;
}
);
layerId = "0A901A10-6B10-40AA-AC10-6ECA400C9626";
shapes = (
{
closed = 1;
nodes = (
(325,-4,o),
(401,76,o),
(401,191,cs),
(401,684,l),
(373,684,l),
(373,191,ls),
(373,92,o),
(309,24,o),
(215,24,cs),
(125,24,o),
(58,91,o),
(58,181,cs),
(58,212,l),
(30,212,l),
(30,181,ls),
(30,75,o),
(109,-4,o),
(215,-4,cs)
);
}
);
width = 441;
},
{
hints = (
{
horizontal = 1;
origin = (0,17);
target = (0,8);
type = Stem;
},
{
horizontal = 1;
origin = (0,4);
target = down;
type = TopGhost;
},
{
origin = (0,14);
target = (0,11);
type = Stem;
},
{
origin = (0,5);
target = (0,2);
type = Stem;
}
);
layerId = "88F21F75-214F-41EE-AE9C-B4AA79D6697C";
shapes = (
{
closed = 1;
nodes = (
(440,-5,o),
(533,104,o),
(533,280,cs),
(533,683,l),
(373,683,l),
(373,272,ls),
(373,191,o),
(347,155,o),
(282,155,cs),
(224,155,o),
(190,185,o),
(190,240,cs),
(190,279,l),
(30,279,l),
(30,240,ls),
(30,95,o),
(142,-5,o),
(289,-5,cs)
);
}
);
width = 573;
}
);
note = J;
unicode = 74;
},
{
glyphname = K;
lastChange = "2021-10-06 15:00:21 +0000";
layers = (
{
hints = (
{
horizontal = 1;
place = (0, 21);
target = up;
type = BottomGhost;
},
{
place = (50, 28);
place = (50, 28);
type = Stem;
}
);
layerId = "0A901A10-6B10-40AA-AC10-6ECA400C9626";
shapes = (
{
closed = 1;
nodes = (
(78,0,l),
(78,244,l),
(230,383,l),
(547,0,l),
(584,0,l),
(251,402,l),
(560,683,l),
(518,683,l),
(78,282,l),
(78,683,l),
(50,683,l),
(50,0,l)
);
}
);
width = 604;
},
{
hints = (
{
horizontal = 1;
place = (0, 21);
target = up;
type = BottomGhost;
},
{
place = (50, 160);
place = (50, 160);
type = Stem;
}
);
layerId = "88F21F75-214F-41EE-AE9C-B4AA79D6697C";
shapes = (
{
closed = 1;
nodes = (
(210,0,l),
(210,216,l),
(284,288,l),
(498,0,l),
(697,0,l),
(399,400,l),
(691,683,l),
(461,683,l),
(210,439,l),
(210,683,l),
(50,683,l),
(50,0,l)
);
}
);
width = 717;
}
);
note = K;
unicode = 75;
},
{
glyphname = L;
lastChange = "2021-10-06 15:00:21 +0000";
layers = (
{
hints = (
{
horizontal = 1;
place = (0, 28);
place = (0, 28);
type = Stem;
},
{
place = (50, 28);
place = (50, 28);
type = Stem;
}
);
layerId = "0A901A10-6B10-40AA-AC10-6ECA400C9626";
shapes = (
{
closed = 1;
nodes = (
(474,0,l),
(474,28,l),
(78,28,l),
(78,683,l),
(50,683,l),
(50,0,l)
);
}
);
width = 493;
},
{
hints = (
{
horizontal = 1;
place = (0, 160);
place = (0, 160);
type = Stem;
},
{
place = (50, 160);
place = (50, 160);
type = Stem;
}
);
layerId = "88F21F75-214F-41EE-AE9C-B4AA79D6697C";
shapes = (
{
closed = 1;
nodes = (
(540,0,l),
(540,150,l),
(210,150,l),
(210,683,l),
(50,683,l),
(50,0,l)
);
}
);
width = 550;
}
);
metricLeft = N;
note = L;
unicode = 76;
},
{
glyphname = M;
lastChange = "2021-10-06 15:00:21 +0000";
layers = (
{
hints = (
{
horizontal = 1;
place = (0, 34);
place = (0, 34);
type = Stem;
},
{
place = (50, 28);
place = (50, 28);
type = Stem;
},
{
place = (677, 28);
place = (677, 28);
type = Stem;
}
);
layerId = "0A901A10-6B10-40AA-AC10-6ECA400C9626";
shapes = (
{
closed = 1;
nodes = (
(78,0,l),
(78,619,l),
(362,0,l),
(393,0,l),
(677,619,l),
(677,0,l),
(704,0,l),
(704,683,l),
(676,683,l),
(378,34,l),
(79,683,l),
(50,683,l),
(50,0,l)
);
}
);
width = 754;
},
{
hints = (
{
horizontal = 1;
place = (0, 21);
target = up;
type = BottomGhost;
},
{
place = (50, 160);
place = (50, 160);
type = Stem;
},
{
place = (677, 160);
place = (677, 160);
type = Stem;
}
);
layerId = "88F21F75-214F-41EE-AE9C-B4AA79D6697C";
shapes = (
{
closed = 1;
nodes = (
(210,0,l),
(210,347,l),
(356,0,l),
(531,0,l),
(677,347,l),
(677,0,l),
(836,0,l),
(836,683,l),
(669,683,l),
(444,142,l),
(218,683,l),
(50,683,l),
(50,0,l)
);
}
);
width = 886;
}
);
metricLeft = N;
metricRight = N;
note = M;
unicode = 77;
},
{
glyphname = N;
lastChange = "2021-12-27 17:43:31 +0000";
layers = (
{
anchors = (
{
name = bottom;
pos = (296,0);
},
{
name = top;
pos = (296,680);
}
);
hints = (
{
horizontal = 1;
origin = (0,9);
target = up;
type = BottomGhost;
},
{
horizontal = 1;
origin = (0,9);
target = (0,6);
type = Stem;
},
{
origin = (0,9);
target = (0,0);
type = Stem;
},
{
origin = (0,6);
target = (0,3);
type = Stem;
}
);
layerId = "0A901A10-6B10-40AA-AC10-6ECA400C9626";
shapes = (
{
closed = 1;
nodes = (
(78,0,l),
(78,637,l),
(511,0,l),
(541,0,l),
(541,683,l),
(514,683,l),
(514,46,l),
(81,683,l),
(50,683,l),
(50,0,l)
);
}
);
width = 591;
},
{
anchors = (
{
name = bottom;
pos = (363,0);
},
{
name = top;
pos = (363,680);
}
);
hints = (
{
horizontal = 1;
place = (0, 21);
target = up;
type = BottomGhost;
},
{
place = (50, 160);
place = (50, 160);
type = Stem;
},
{
place = (514, 160);
place = (514, 160);
type = Stem;
}
);
layerId = "88F21F75-214F-41EE-AE9C-B4AA79D6697C";
shapes = (
{
closed = 1;
nodes = (
(210,0,l),
(210,433,l),
(499,0,l),
(675,0,l),
(675,680,l),
(514,680,l),
(514,250,l),
(225,680,l),
(50,680,l),
(50,0,l)
);
}
);
width = 725;
}
);
note = N;
unicode = 78;
},
{
glyphname = O;
lastChange = "2021-10-22 16:05:10 +0000";
layers = (
{
anchors = (
{
name = bottom;
pos = (345,0);
},
{
name = center;
pos = (345,340);
},
{
name = ogonek;
pos = (621,10);
},
{
name = top;
pos = (345,680);
},
{
name = topleft;
pos = (20,680);
},
{
name = topright;
pos = (670,680);
}
);
hints = (
{
horizontal = 1;
place = (-5, 28);
place = (-5, 28);
type = Stem;
},
{
horizontal = 1;
place = (660, 28);
place = (660, 28);
type = Stem;
},
{
place = (20, 28);
place = (20, 28);
type = Stem;
},
{
place = (612, 28);
place = (612, 28);
type = Stem;
}
);
layerId = "0A901A10-6B10-40AA-AC10-6ECA400C9626";
shapes = (
{
closed = 1;
nodes = (
(532,-5,o),
(660,144,o),
(660,339,cs),
(660,536,o),
(530,688,o),
(341,688,cs),
(151,688,o),
(30,536,o),
(30,339,cs),
(30,141,o),
(152,-5,o),
(341,-5,cs)
);
},
{
closed = 1;
nodes = (
(189,23,o),
(62,131,o),
(62,340,cs),
(62,550,o),
(190,660,o),
(341,660,cs),
(492,660,o),
(628,550,o),
(628,340,cs),
(628,131,o),
(493,23,o),
(341,23,cs)
);
}
);
width = 690;
},
{
anchors = (
{
name = bottom;
pos = (363,0);
},
{
name = center;
pos = (363,340);
},
{
name = ogonek;
pos = (653,10);
},
{
name = top;
pos = (363,680);
},
{
name = topleft;
pos = (20,680);
},
{
name = topright;
pos = (705,680);
}
);
hints = (
{
horizontal = 1;
origin = (0,11);
target = (1,11);
type = Stem;
},
{
horizontal = 1;
origin = (1,5);
target = (0,5);
type = Stem;
},
{
origin = (0,8);
target = (1,2);
type = Stem;
},
{
origin = (1,8);
target = (0,2);
type = Stem;
}
);
layerId = "88F21F75-214F-41EE-AE9C-B4AA79D6697C";
shapes = (
{
closed = 1;
nodes = (
(563,-5,o),
(705,130,o),
(705,340,cs),
(705,551,o),
(562,688,o),
(362,688,cs),
(160,688,o),
(20,548,o),
(20,340,cs),
(20,129,o),
(163,-5,o),
(362,-5,cs)
);
},
{
closed = 1;
nodes = (
(257,155,o),
(200,222,o),
(200,340,cs),
(200,457,o),
(257,528,o),
(362,528,cs),
(467,528,o),
(524,457,o),
(524,340,cs),
(524,222,o),
(467,155,o),
(362,155,cs)
);
}
);
width = 725;
}
);
note = O;
unicode = 79;
},
{
glyphname = Oslash;
lastChange = "2021-12-27 21:32:25 +0000";
layers = (
{
layerId = "0A901A10-6B10-40AA-AC10-6ECA400C9626";
shapes = (
{
ref = O;
},
{
closed = 1;
nodes = (
(84,0,l),
(645,684,l),
(611,684,l),
(50,0,l)
);
}
);
width = 690;
},
{
layerId = "88F21F75-214F-41EE-AE9C-B4AA79D6697C";
shapes = (
{
ref = O;
},
{
closed = 1;
nodes = (
(205,0,l),
(713,683,l),
(543,683,l),
(35,0,l)
);
}
);
width = 733;
}
);
metricLeft = O;
metricRight = O;
unicode = 216;
},
{
glyphname = OE;
lastChange = "2021-10-11 16:51:44 +0000";
layers = (
{
layerId = "0A901A10-6B10-40AA-AC10-6ECA400C9626";
shapes = (
{
closed = 1;
nodes = (
(484,-5,o),
(586,78,o),
(628,201,c),
(628,0,l),
(1086,0,l),
(1086,28,l),
(657,28,l),
(657,345,l),
(1038,345,l),
(1038,373,l),
(657,373,l),
(657,655,l),
(1078,655,l),
(1078,683,l),
(628,683,l),
(628,478,l),
(585,603,o),
(482,688,o),
(341,688,cs),
(151,688,o),
(30,536,o),
(30,339,cs),
(30,141,o),
(152,-5,o),
(341,-5,cs)
);
},
{
closed = 1;
nodes = (
(189,23,o),
(62,131,o),
(62,340,cs),
(62,550,o),
(190,660,o),
(341,660,cs),
(492,660,o),
(628,550,o),
(628,340,cs),
(628,131,o),
(493,23,o),
(341,23,cs)
);
}
);
width = 1105;
},
{
layerId = "88F21F75-214F-41EE-AE9C-B4AA79D6697C";
shapes = (
{
closed = 1;
nodes = (
(412,-5,o),
(482,27,o),
(524,84,c),
(524,0,l),
(1017,0,l),
(1017,150,l),
(684,150,l),
(684,284,l),
(977,284,l),
(977,424,l),
(684,424,l),
(684,532,l),
(1010,532,l),
(1010,682,l),
(524,682,l),
(524,609,l),
(493,655,o),
(425,688,o),
(352,688,cs),
(160,688,o),
(20,548,o),
(20,340,cs),
(20,129,o),
(163,-5,o),
(322,-5,cs)
);
},
{
closed = 1;
nodes = (
(257,155,o),
(200,222,o),
(200,340,cs),
(200,457,o),
(257,528,o),
(362,528,cs),
(467,528,o),
(524,457,o),
(524,340,cs),
(524,222,o),
(467,155,o),
(362,155,cs)
);
}
);
width = 1036;
}
);
metricLeft = O;
metricRight = E;
unicode = 338;
},
{
glyphname = P;
lastChange = "2021-10-06 15:00:21 +0000";
layers = (
{
hints = (
{
horizontal = 1;
origin = (0,10);
target = up;
type = BottomGhost;
},
{
horizontal = 1;
origin = (0,1);
target = (1,8);
type = Stem;
},
{
horizontal = 1;
origin = (0,9);
target = (1,0);
type = Stem;
},
{
origin = (0,10);
target = (0,0);
type = Stem;
},
{
origin = (1,4);
target = (0,5);
type = Stem;
}
);
layerId = "0A901A10-6B10-40AA-AC10-6ECA400C9626";
shapes = (
{
closed = 1;
nodes = (
(78,0,l),
(78,309,l),
(305,309,ls),
(436,309,o),
(521,384,o),
(521,499,cs),
(521,613,o),
(438,683,o),
(305,683,cs),
(50,683,l),
(50,0,l)
);
},
{
closed = 1;
nodes = (
(78,655,l),
(305,655,ls),
(422,655,o),
(493,596,o),
(493,499,cs),
(493,401,o),
(419,337,o),
(305,337,cs),
(78,337,l)
);
}
);
width = 541;
},
{
hints = (
{
horizontal = 1;
origin = (0,10);
target = up;
type = BottomGhost;
},
{
horizontal = 1;
origin = (0,1);
target = (1,8);
type = Stem;
},
{
horizontal = 1;
origin = (0,9);
target = (1,0);
type = Stem;
},
{
origin = (0,10);
target = (0,0);
type = Stem;
},
{
origin = (1,4);
target = (0,5);
type = Stem;
}
);
layerId = "88F21F75-214F-41EE-AE9C-B4AA79D6697C";
shapes = (
{
closed = 1;
nodes = (
(210,0,l),
(210,236,l),
(361,236,ls),
(520,236,o),
(613,304,o),
(613,453,cs),
(613,599,o),
(522,680,o),
(361,680,cs),
(50,680,l),
(50,0,l)
);
},
{
closed = 1;
nodes = (
(210,530,l),
(369,530,ls),
(428,530,o),
(453,504,o),
(453,453,cs),
(453,403,o),
(427,376,o),
(369,376,cs),
(210,376,l)
);
}
);
width = 623;
}
);
note = P;
unicode = 80;
},
{
glyphname = Thorn;
lastChange = "2021-10-22 22:04:10 +0000";
layers = (
{
layerId = "0A901A10-6B10-40AA-AC10-6ECA400C9626";
shapes = (
{
closed = 1;
nodes = (
(78,0,l),
(78,169,l),
(225,169,ls),
(356,169,o),
(441,244,o),
(441,359,cs),
(441,473,o),
(358,543,o),
(225,543,cs),
(78,543,l),
(78,683,l),
(50,683,l),
(50,0,l)
);
},
{
closed = 1;
nodes = (
(78,515,l),
(225,515,ls),
(342,515,o),
(413,456,o),
(413,359,cs),
(413,261,o),
(339,197,o),
(225,197,cs),
(78,197,l)
);
}
);
width = 461;
},
{
layerId = "88F21F75-214F-41EE-AE9C-B4AA79D6697C";
shapes = (
{
closed = 1;
nodes = (
(210,0,l),
(210,118,l),
(311,118,ls),
(470,118,o),
(563,186,o),
(563,335,cs),
(563,481,o),
(472,562,o),
(311,562,cs),
(210,562,l),
(210,683,l),
(50,683,l),
(50,0,l)
);
},
{
closed = 1;
nodes = (
(210,412,l),
(319,412,ls),
(378,412,o),
(403,386,o),
(403,335,cs),
(403,285,o),
(377,258,o),
(319,258,cs),
(210,258,l)
);
}
);
width = 573;
}
);
metricLeft = P;
metricRight = P;
unicode = 222;
},
{
glyphname = Q;
lastChange = "2021-12-27 21:32:19 +0000";
layers = (
{
hints = (
{
horizontal = 1;
place = (-5, 28);
place = (-5, 28);
type = Stem;
},
{
horizontal = 1;
place = (660, 28);
place = (660, 28);
type = Stem;
},
{
place = (20, 28);
place = (20, 28);
type = Stem;
},
{
place = (612, 28);
place = (612, 28);
type = Stem;
}
);
layerId = "0A901A10-6B10-40AA-AC10-6ECA400C9626";
shapes = (
{
closed = 1;
nodes = (
(402,-5,o),
(470,22,o),
(525,71,c),
(617,2,l),
(634,24,l),
(545,91,l),
(608,160,o),
(640,247,o),
(640,338,cs),
(640,516,o),
(515,688,o),
(331,688,cs),
(146,688,o),
(20,516,o),
(20,339,cs),
(20,164,o),
(144,-5,o),
(329,-5,cs)
);
},
{
closed = 1;
nodes = (
(174,23,o),
(48,165,o),
(48,341,cs),
(48,516,o),
(174,660,o),
(330,660,cs),
(485,660,o),
(612,516,o),
(612,340,cs),
(612,248,o),
(577,166,o),
(522,108,c),
(404,198,l),
(387,175,l),
(502,89,l),
(454,48,o),
(395,23,o),
(330,23,cs)
);
}
);
width = 670;
},
{
hints = (
{
horizontal = 1;
place = (-5, 160);
place = (-5, 160);
type = Stem;
},
{
horizontal = 1;
place = (528, 160);
place = (528, 160);
type = Stem;
},
{
place = (20, 160);
place = (20, 160);
type = Stem;
},
{
place = (545, 160);
place = (545, 160);
type = Stem;
}
);
layerId = "88F21F75-214F-41EE-AE9C-B4AA79D6697C";
shapes = (
{
closed = 1;
nodes = (
(422,-5,o),
(478,10,o),
(527,37,c),
(635,-42,l),
(712,68,l),
(632,127,l),
(678,185,o),
(705,260,o),
(705,340,cs),
(705,531,o),
(552,688,o),
(362,688,cs),
(170,688,o),
(20,528,o),
(20,340,cs),
(20,149,o),
(173,-5,o),
(362,-5,cs)
);
},
{
closed = 1;
nodes = (
(260,155,o),
(180,236,o),
(180,340,cs),
(180,444,o),
(262,528,o),
(362,528,cs),
(463,528,o),
(545,444,o),
(545,340,cs),
(545,294,o),
(529,253,o),
(503,221,c),
(424,279,l),
(347,169,l),
(366,155,l),
(361,155,o),
(355,155,o),
(350,155,cs)
);
}
);
width = 736;
}
);
note = Q;
unicode = 81;
},
{
glyphname = R;
lastChange = "2021-10-22 16:05:38 +0000";
layers = (
{
hints = (
{
horizontal = 1;
origin = (0,3);
target = up;
type = BottomGhost;
},
{
origin = (0,2);
target = (0,0);
type = Stem;
}
);
layerId = "0A901A10-6B10-40AA-AC10-6ECA400C9626";
shapes = (
{
closed = 1;
nodes = (
(491,0,l),
(342,319,l),
(311,319,l),
(461,0,l)
);
},
{
ref = P;
}
);
width = 541;
},
{
hints = (
{
horizontal = 1;
origin = (0,3);
target = up;
type = BottomGhost;
},
{
horizontal = 1;
origin = (0,3);
target = (0,2);
type = Stem;
},
{
origin = (0,2);
target = (0,0);
type = Stem;
}
);
layerId = "88F21F75-214F-41EE-AE9C-B4AA79D6697C";
shapes = (
{
closed = 1;
nodes = (
(630,0,l),
(506,264,l),
(339,264,l),
(463,0,l)
);
},
{
ref = P;
}
);
width = 640;
}
);
metricRight = P;
note = R;
unicode = 82;
},
{
glyphname = S;
lastChange = "2021-10-06 15:00:21 +0000";
layers = (
{
hints = (
{
horizontal = 1;
place = (-5, 28);
place = (-5, 28);
type = Stem;
},
{
horizontal = 1;
place = (660, 28);
place = (660, 28);
type = Stem;
},
{
place = (30, 28);
place = (30, 28);
type = Stem;
},
{
place = (493, 28);
place = (493, 28);
type = Stem;
},
{
place = (54, 28);
place = (54, 28);
type = Stem;
},
{
place = (474, 28);
place = (474, 28);
type = Stem;
}
);
layerId = "0A901A10-6B10-40AA-AC10-6ECA400C9626";
shapes = (
{
closed = 1;
nodes = (
(407,-5,o),
(521,56,o),
(521,185,cs),
(521,314,o),
(399,346,o),
(284,376,cs),
(180,403,o),
(82,429,o),
(82,523,cs),
(82,606,o),
(158,660,o),
(267,660,cs),
(329,660,o),
(474,642,o),
(474,474,c),
(502,474,l),
(502,617,o),
(402,688,o),
(272,688,cs),
(168,688,o),
(54,643,o),
(54,525,cs),
(54,407,o),
(167,377,o),
(278,349,cs),
(387,322,o),
(493,295,o),
(493,183,cs),
(493,74,o),
(392,23,o),
(289,23,cs),
(174,23,o),
(58,88,o),
(58,213,c),
(30,213,l),
(30,71,o),
(158,-5,o),
(289,-5,cs)
);
}
);
width = 550;
},
{
hints = (
{
horizontal = 1;
place = (-5, 160);
place = (-5, 160);
type = Stem;
},
{
horizontal = 1;
place = (528, 160);
place = (528, 160);
type = Stem;
},
{
place = (30, 160);
place = (30, 160);
type = Stem;
},
{
place = (436, 160);
place = (436, 160);
type = Stem;
},
{
place = (453, 160);
place = (453, 160);
type = Stem;
},
{
place = (52, 160);
place = (52, 160);
type = Stem;
}
);
layerId = "88F21F75-214F-41EE-AE9C-B4AA79D6697C";
shapes = (
{
closed = 1;
nodes = (
(498,-5,o),
(613,87,o),
(613,218,cs),
(613,335,o),
(547,401,o),
(329,430,cs),
(238,442,o),
(212,453,o),
(212,476,cs),
(212,509,o),
(251,528,o),
(318,528,cs),
(391,528,o),
(436,503,o),
(436,448,c),
(596,448,l),
(596,592,o),
(486,688,o),
(319,688,cs),
(161,688,o),
(52,606,o),
(52,487,cs),
(52,376,o),
(119,323,o),
(298,300,cs),
(422,284,o),
(453,266,o),
(453,218,cs),
(453,181,o),
(404,155,o),
(336,155,cs),
(254,155,o),
(190,191,o),
(190,238,c),
(30,238,l),
(30,99,o),
(160,-5,o),
(333,-5,cs)
);
}
);
width = 642;
},
{
associatedMasterId = "88F21F75-214F-41EE-AE9C-B4AA79D6697C";
hints = (
{
horizontal = 1;
place = (-5, 160);
place = (-5, 160);
type = Stem;
},
{
horizontal = 1;
place = (528, 160);
place = (528, 160);
type = Stem;
},
{
place = (30, 160);
place = (30, 160);
type = Stem;
},
{
place = (436, 160);
place = (436, 160);
type = Stem;
},
{
place = (453, 160);
place = (453, 160);
type = Stem;
},
{
place = (52, 160);
place = (52, 160);
type = Stem;
}
);
layerId = "8416854E-BE92-4C76-94F3-904E6428969B";
name = "22 Jun 21, 15:05";
shapes = (
{
closed = 1;
nodes = (
(470,-5,o),
(613,65,o),
(613,218,cs),
(613,389,o),
(448,413,o),
(329,430,cs),
(263,439,o),
(212,446,o),
(212,476,cs),
(212,515,o),
(263,528,o),
(318,528,cs),
(436,528,o),
(436,467,o),
(436,448,c),
(596,448,l),
(596,612,o),
(463,688,o),
(319,688,cs),
(193,688,o),
(52,630,o),
(52,487,cs),
(52,335,o),
(185,316,o),
(298,300,cs),
(381,288,o),
(453,278,o),
(453,218,cs),
(453,168,o),
(380,155,o),
(336,155,cs),
(283,155,o),
(190,175,o),
(190,238,c),
(30,238,l),
(30,77,o),
(187,-5,o),
(333,-5,cs)
);
}
);
width = 642;
}
);
note = S;
unicode = 83;
},
{
glyphname = T;
lastChange = "2021-10-06 15:00:21 +0000";
layers = (
{
hints = (
{
horizontal = 1;
place = (0, 21);
target = up;
type = BottomGhost;
},
{
horizontal = 1;
place = (655, 28);
place = (655, 28);
type = Stem;
},
{
place = (258, 28);
place = (258, 28);
type = Stem;
}
);
layerId = "0A901A10-6B10-40AA-AC10-6ECA400C9626";
shapes = (
{
closed = 1;
nodes = (
(286,0,l),
(286,655,l),
(530,655,l),
(530,683,l),
(10,683,l),
(10,655,l),
(258,655,l),
(258,0,l)
);
}
);
width = 540;
},
{
hints = (
{
horizontal = 1;
place = (0, 21);
target = up;
type = BottomGhost;
},
{
horizontal = 1;
place = (523, 160);
place = (523, 160);
type = Stem;
},
{
place = (192, 160);
place = (192, 160);
type = Stem;
}
);
layerId = "88F21F75-214F-41EE-AE9C-B4AA79D6697C";
shapes = (
{
closed = 1;
nodes = (
(392,0,l),
(392,530,l),
(610,530,l),
(610,680,l),
(10,680,l),
(10,530,l),
(232,530,l),
(232,0,l)
);
}
);
width = 620;
}
);
note = T;
unicode = 84;
},
{
glyphname = U;
lastChange = "2021-10-22 16:07:29 +0000";
layers = (
{
anchors = (
{
name = bottom;
pos = (287,0);
},
{
name = ogonek;
pos = (517,10);
},
{
name = top;
pos = (287,680);
},
{
name = topright;
pos = (554,680);
}
);
hints = (
{
horizontal = 1;
place = (-5, 28);
place = (-5, 28);
type = Stem;
},
{
place = (40, 28);
place = (40, 28);
type = Stem;
},
{
place = (507, 28);
place = (507, 28);
type = Stem;
}
);
layerId = "0A901A10-6B10-40AA-AC10-6ECA400C9626";
shapes = (
{
closed = 1;
nodes = (
(424,-5,o),
(535,76,o),
(535,243,cs),
(535,683,l),
(507,683,l),
(507,243,ls),
(507,91,o),
(409,23,o),
(288,23,cs),
(166,23,o),
(68,91,o),
(68,243,cs),
(68,683,l),
(40,683,l),
(40,243,ls),
(40,76,o),
(151,-5,o),
(288,-5,cs)
);
}
);
width = 574;
},
{
anchors = (
{
name = bottom;
pos = (345,0);
},
{
name = ogonek;
pos = (620,10);
},
{
name = top;
pos = (345,680);
},
{
name = topright;
pos = (669,680);
}
);
hints = (
{
horizontal = 1;
place = (-5, 160);
place = (-5, 160);
type = Stem;
},
{
place = (40, 160);
place = (40, 160);
type = Stem;
},
{
place = (490, 160);
place = (490, 160);
type = Stem;
}
);
layerId = "88F21F75-214F-41EE-AE9C-B4AA79D6697C";
shapes = (
{
closed = 1;
nodes = (
(512,-5,o),
(650,101,o),
(650,300,cs),
(650,683,l),
(490,683,l),
(490,340,ls),
(490,222,o),
(439,155,o),
(345,155,cs),
(251,155,o),
(200,222,o),
(200,340,cs),
(200,683,l),
(40,683,l),
(40,300,ls),
(40,103,o),
(176,-5,o),
(345,-5,cs)
);
}
);
width = 689;
}
);
note = U;
unicode = 85;
},
{
glyphname = V;
lastChange = "2021-10-06 15:00:21 +0000";
layers = (
{
hints = (
{
horizontal = 1;
place = (0, 39);
place = (0, 39);
type = Stem;
},
{
place = (15, 550);
place = (15, 550);
type = Stem;
}
);
layerId = "0A901A10-6B10-40AA-AC10-6ECA400C9626";
shapes = (
{
closed = 1;
nodes = (
(305,0,l),
(565,683,l),
(535,683,l),
(290,39,l),
(45,683,l),
(15,683,l),
(275,0,l)
);
}
);
width = 579;
},
{
hints = (
{
horizontal = 1;
place = (0, 21);
target = up;
type = BottomGhost;
},
{
place = (15, 691);
place = (15, 691);
type = Stem;
}
);
layerId = "88F21F75-214F-41EE-AE9C-B4AA79D6697C";
shapes = (
{
closed = 1;
nodes = (
(446,0,l),
(706,683,l),
(535,683,l),
(361,225,l),
(186,683,l),
(15,683,l),
(275,0,l)
);
}
);
width = 720;
}
);
note = V;
unicode = 86;
},
{
glyphname = W;
lastChange = "2021-10-06 15:00:21 +0000";
layers = (
{
hints = (
{
horizontal = 1;
place = (0, 49);
place = (0, 49);
type = Stem;
},
{
place = (20, 840);
place = (20, 840);
type = Stem;
}
);
layerId = "0A901A10-6B10-40AA-AC10-6ECA400C9626";
shapes = (
{
closed = 1;
nodes = (
(252,0,l),
(440,633,l),
(628,0,l),
(657,0,l),
(860,683,l),
(831,683,l),
(642,49,l),
(455,683,l),
(425,683,l),
(237,49,l),
(49,683,l),
(20,683,l),
(223,0,l)
);
}
);
width = 879;
},
{
hints = (
{
horizontal = 1;
place = (0, 21);
target = up;
type = BottomGhost;
},
{
place = (20, 978);
place = (20, 978);
type = Stem;
}
);
layerId = "88F21F75-214F-41EE-AE9C-B4AA79D6697C";
shapes = (
{
closed = 1;
nodes = (
(390,0,l),
(509,401,l),
(628,0,l),
(795,0,l),
(998,683,l),
(831,683,l),
(711,281,l),
(592,683,l),
(426,683,l),
(306,281,l),
(187,683,l),
(20,683,l),
(223,0,l)
);
}
);
width = 1017;
}
);
note = W;
unicode = 87;
},
{
glyphname = X;
lastChange = "2021-10-06 15:00:21 +0000";
layers = (
{
hints = (
{
horizontal = 1;
place = (0, 21);
target = up;
type = BottomGhost;
},
{
place = (20, 555);
place = (20, 555);
type = Stem;
}
);
layerId = "0A901A10-6B10-40AA-AC10-6ECA400C9626";
shapes = (
{
closed = 1;
nodes = (
(55,0,l),
(297,331,l),
(540,0,l),
(575,0,l),
(315,354,l),
(556,683,l),
(521,683,l),
(297,378,l),
(74,683,l),
(39,683,l),
(280,354,l),
(20,0,l)
);
}
);
width = 595;
},
{
hints = (
{
horizontal = 1;
place = (0, 21);
target = up;
type = BottomGhost;
},
{
place = (20, 702);
place = (20, 702);
type = Stem;
}
);
layerId = "88F21F75-214F-41EE-AE9C-B4AA79D6697C";
shapes = (
{
closed = 1;
nodes = (
(217,0,l),
(371,217,l),
(526,0,l),
(722,0,l),
(469,355,l),
(703,683,l),
(507,683,l),
(371,493,l),
(235,683,l),
(39,683,l),
(273,355,l),
(20,0,l)
);
}
);
width = 742;
}
);
note = X;
unicode = 88;
},
{
glyphname = Y;
lastChange = "2021-10-22 16:07:30 +0000";
layers = (
{
anchors = (
{
name = bottom;
pos = (283,0);
},
{
name = top;
pos = (283,680);
},
{
name = topleft;
pos = (20,680);
}
);
hints = (
{
horizontal = 1;
place = (0, 21);
target = up;
type = BottomGhost;
},
{
place = (269, 28);
place = (269, 28);
type = Stem;
}
);
layerId = "0A901A10-6B10-40AA-AC10-6ECA400C9626";
shapes = (
{
closed = 1;
nodes = (
(297,0,l),
(297,258,l),
(551,683,l),
(518,683,l),
(283,289,l),
(48,683,l),
(15,683,l),
(269,258,l),
(269,0,l)
);
}
);
width = 566;
},
{
anchors = (
{
name = bottom;
pos = (360,0);
},
{
name = top;
pos = (360,680);
},
{
name = topleft;
pos = (20,680);
}
);
hints = (
{
horizontal = 1;
place = (0, 21);
target = up;
type = BottomGhost;
},
{
place = (280, 160);
place = (280, 160);
type = Stem;
}
);
layerId = "88F21F75-214F-41EE-AE9C-B4AA79D6697C";
shapes = (
{
closed = 1;
nodes = (
(440,0,l),
(440,239,l),
(705,683,l),
(518,683,l),
(360,418,l),
(201,683,l),
(15,683,l),
(280,239,l),
(280,0,l)
);
}
);
width = 720;
}
);
note = Y;
unicode = 89;
},
{
glyphname = Z;
lastChange = "2021-10-06 15:00:21 +0000";
layers = (
{
hints = (
{
horizontal = 1;
origin = (0,9);
target = (0,8);
type = Stem;
},
{
horizontal = 1;
origin = (0,5);
target = (0,6);
type = Stem;
},
{
origin = (0,9);
target = (0,2);
type = Stem;
},
{
origin = (0,7);
target = (0,3);
type = Stem;
}
);
layerId = "0A901A10-6B10-40AA-AC10-6ECA400C9626";
shapes = (
{
closed = 1;
nodes = (
(539,0,l),
(539,28,l),
(55,28,l),
(535,651,l),
(535,680,l),
(24,680,l),
(24,652,l),
(501,652,l),
(20,28,l),
(20,0,l)
);
}
);
width = 559;
},
{
hints = (
{
horizontal = 1;
origin = (0,9);
target = (0,2);
type = Stem;
},
{
horizontal = 1;
origin = (0,5);
target = (0,6);
type = Stem;
},
{
origin = (0,9);
target = (0,0);
type = Stem;
}
);
layerId = "88F21F75-214F-41EE-AE9C-B4AA79D6697C";
shapes = (
{
closed = 1;
nodes = (
(559,0,l),
(559,150,l),
(220,150,l),
(555,531,l),
(555,680,l),
(24,680,l),
(24,530,l),
(355,530,l),
(20,158,l),
(20,0,l)
);
}
);
width = 585;
}
);
note = Z;
unicode = 90;
},
{
glyphname = G.001;
lastChange = "2021-10-08 09:40:10 +0000";
layers = (
{
hints = (
{
horizontal = 1;
place = (-4, 28);
place = (-4, 28);
type = Stem;
},
{
horizontal = 1;
place = (305, 28);
place = (305, 28);
type = Stem;
},
{
horizontal = 1;
place = (661, 28);
place = (661, 28);
type = Stem;
},
{
place = (30, 28);
place = (30, 28);
type = Stem;
},
{
place = (580, 29);
place = (580, 29);
type = Stem;
}
);
layerId = "0A901A10-6B10-40AA-AC10-6ECA400C9626";
shapes = (
{
closed = 1;
nodes = (
(505,-4,o),
(619,135,o),
(619,317,cs),
(619,333,l),
(285,333,l),
(285,305,l),
(613,305,l),
(591,324,l),
(591,139,o),
(474,24,o),
(331,23,cs),
(179,23,o),
(62,131,o),
(62,340,cs),
(62,550,o),
(180,660,o),
(331,660,cs),
(438,660,o),
(567,584,o),
(577,457,c),
(609,457,l),
(599,592,o),
(465,688,o),
(331,688,cs),
(141,688,o),
(30,536,o),
(30,339,cs),
(30,141,o),
(141,-4,o),
(330,-4,cs)
);
}
);
width = 649;
},
{
layerId = "88F21F75-214F-41EE-AE9C-B4AA79D6697C";
shapes = (
{
closed = 1;
nodes = (
(532,-5,o),
(697,103,o),
(697,325,cs),
(697,383,l),
(376,383,l),
(376,253,l),
(560,253,l),
(528,288,l),
(508,188,o),
(435,155,o),
(362,155,cs),
(257,155,o),
(200,222,o),
(200,340,cs),
(200,457,o),
(257,528,o),
(362,528,cs),
(434,528,o),
(498,494,o),
(508,415,c),
(694,415,l),
(684,591,o),
(530,688,o),
(362,688,cs),
(160,688,o),
(20,548,o),
(20,340,cs),
(20,129,o),
(163,-5,o),
(362,-5,cs)
);
}
);
width = 717;
}
);
metricLeft = O;
metricRight = O;
note = G;
},
{
glyphname = a;
lastChange = "2021-10-06 22:17:28 +0000";
layers = (
{
anchors = (
{
name = bottom;
pos = (259,0);
},
{
name = ogonek;
pos = (466,10);
},
{
name = top;
pos = (259,518);
}
);
hints = (
{
horizontal = 1;
place = (0, 60);
place = (0, 60);
type = Stem;
},
{
horizontal = 1;
place = (458, 60);
place = (458, 60);
type = Stem;
},
{
place = (-18, 60);
place = (-18, 60);
type = Stem;
},
{
place = (377, 60);
place = (377, 60);
type = Stem;
}
);
layerId = "0A901A10-6B10-40AA-AC10-6ECA400C9626";
shapes = (
{
closed = 1;
nodes = (
(343,-6,o),
(407,45,o),
(438,128,c),
(442,128,l),
(442,0,l),
(468,0,l),
(468,518,l),
(442,518,l),
(442,385,l),
(438,385,l),
(406,469,o),
(342,522,o),
(244,522,cs),
(101,522,o),
(20,413,o),
(20,257,cs),
(20,101,o),
(101,-6,o),
(244,-6,cs)
);
},
{
closed = 1;
nodes = (
(118,22,o),
(50,117,o),
(50,257,cs),
(50,398,o),
(119,494,o),
(244,494,cs),
(369,494,o),
(438,398,o),
(438,257,cs),
(438,117,o),
(370,22,o),
(244,22,cs)
);
}
);
width = 518;
},
{
anchors = (
{
name = bottom;
pos = (319,0);
},
{
name = ogonek;
pos = (573,10);
},
{
name = top;
pos = (319,518);
}
);
hints = (
{
horizontal = 1;
place = (0, 60);
place = (0, 60);
type = Stem;
},
{
horizontal = 1;
place = (458, 60);
place = (458, 60);
type = Stem;
},
{
place = (1, 60);
place = (1, 60);
type = Stem;
},
{
place = (396, 60);
place = (396, 60);
type = Stem;
}
);
layerId = "88F21F75-214F-41EE-AE9C-B4AA79D6697C";
metricRight = "=|n";
shapes = (
{
closed = 1;
nodes = (
(347,-7,o),
(398,33,o),
(420,79,c),
(424,79,l),
(424,0,l),
(577,0,l),
(577,518,l),
(424,518,l),
(424,437,l),
(420,437,l),
(398,483,o),
(337,523,o),
(264,523,cs),
(135,523,o),
(40,415,o),
(40,258,cs),
(40,101,o),
(135,-7,o),
(264,-7,cs)
);
},
{
closed = 1;
nodes = (
(231,151,o),
(198,190,o),
(198,258,cs),
(198,326,o),
(231,367,o),
(292,367,cs),
(353,367,o),
(386,326,o),
(386,258,cs),
(386,190,o),
(353,151,o),
(292,151,cs)
);
}
);
width = 637;
}
);
metricLeft = o;
note = a;
unicode = 97;
},
{
glyphname = ae;
lastChange = "2021-12-27 21:26:48 +0000";
layers = (
{
layerId = "0A901A10-6B10-40AA-AC10-6ECA400C9626";
shapes = (
{
closed = 1;
nodes = (
(343,-6,o),
(407,45,o),
(438,128,c),
(442,128,l),
(442,0,l),
(468,0,l),
(468,128,l),
(472,128,l),
(503,45,o),
(564,-6,o),
(663,-6,cs),
(766,-6,o),
(858,50,o),
(868,170,c),
(836,170,l),
(826,67,o),
(748,22,o),
(662,22,cs),
(536,22,o),
(468,117,o),
(468,268,c),
(867,268,l),
(867,284,ls),
(867,453,o),
(763,522,o),
(664,522,cs),
(568,522,o),
(504,469,o),
(472,385,c),
(468,385,l),
(468,518,l),
(442,518,l),
(442,385,l),
(438,385,l),
(406,469,o),
(342,522,o),
(244,522,cs),
(101,522,o),
(20,413,o),
(20,257,cs),
(20,101,o),
(101,-6,o),
(244,-6,cs)
);
},
{
closed = 1;
nodes = (
(118,22,o),
(50,117,o),
(50,257,cs),
(50,398,o),
(119,494,o),
(244,494,cs),
(369,494,o),
(438,398,o),
(438,257,cs),
(438,117,o),
(370,22,o),
(244,22,cs)
);
},
{
closed = 1;
nodes = (
(482,415,o),
(549,494,o),
(662,494,cs),
(747,494,o),
(826,449,o),
(836,296,c),
(470,296,l)
);
}
);
width = 888;
},
{
layerId = "88F21F75-214F-41EE-AE9C-B4AA79D6697C";
shapes = (
{
closed = 1;
nodes = (
(336,-7,o),
(394,26,o),
(420,79,c),
(424,79,l),
(424,0,l),
(577,0,l),
(577,79,l),
(581,79,l),
(596,27,o),
(652,-7,o),
(723,-7,cs),
(823,-7,o),
(893,61,o),
(921,185,c),
(766,185,l),
(747,157,o),
(715,140,o),
(681,140,cs),
(637,140,o),
(605,166,o),
(592,212,c),
(929,212,l),
(929,250,ls),
(929,409,o),
(845,523,o),
(728,523,cs),
(658,523,o),
(611,495,o),
(581,437,c),
(577,437,l),
(577,518,l),
(424,518,l),
(424,437,l),
(420,437,l),
(396,488,o),
(331,523,o),
(261,523,cs),
(133,523,o),
(40,412,o),
(40,258,cs),
(40,103,o),
(134,-7,o),
(266,-7,cs)
);
},
{
closed = 1;
nodes = (
(232,151,o),
(198,189,o),
(198,258,cs),
(198,327,o),
(232,367,o),
(292,367,cs),
(352,367,o),
(386,327,o),
(386,258,cs),
(386,189,o),
(352,151,o),
(292,151,cs)
);
},
{
closed = 1;
nodes = (
(612,350,o),
(641,373,o),
(678,373,cs),
(715,373,o),
(749,348,o),
(761,311,c),
(596,311,l)
);
}
);
width = 969;
}
);
metricLeft = a;
metricRight = e;
unicode = 230;
},
{
glyphname = b;
lastChange = "2021-10-06 15:00:21 +0000";
layers = (
{
hints = (
{
horizontal = 1;
origin = (0,3);
target = (0,2);
type = Stem;
},
{
origin = (0,3);
target = (0,0);
type = Stem;
}
);
layerId = "0A901A10-6B10-40AA-AC10-6ECA400C9626";
metricLeft = "=|a";
shapes = (
{
closed = 1;
nodes = (
(76,388,l),
(76,683,l),
(50,683,l),
(50,388,l)
);
},
{
pos = (518,0);
ref = a;
scale = (-1,1);
}
);
width = 518;
},
{
hints = (
{
horizontal = 1;
place = (0, 21);
target = up;
type = BottomGhost;
},
{
horizontal = 1;
place = (458, 60);
place = (458, 60);
type = Stem;
},
{
place = (181, 60);
place = (181, 60);
type = Stem;
},
{
place = (576, 60);
place = (576, 60);
type = Stem;
},
{
horizontal = 1;
place = (458, 225);
place = (458, 225);
type = Stem;
}
);
layerId = "88F21F75-214F-41EE-AE9C-B4AA79D6697C";
metricLeft = "=|a";
shapes = (
{
closed = 1;
nodes = (
(213,504,l),
(213,683,l),
(60,683,l),
(60,504,l)
);
},
{
pos = (637,0);
ref = a;
scale = (-1,1);
}
);
width = 637;
}
);
metricRight = o;
note = b;
unicode = 98;
},
{
glyphname = c;
lastChange = "2021-10-22 16:00:52 +0000";
layers = (
{
anchors = (
{
name = bottom;
pos = (235,0);
},
{
name = top;
pos = (235,518);
}
);
hints = (
{
horizontal = 1;
place = (-121, 60);
place = (-121, 60);
type = Stem;
},
{
horizontal = 1;
place = (337, 60);
place = (337, 60);
type = Stem;
},
{
place = (195, 60);
place = (195, 60);
type = Stem;
}
);
layerId = "0A901A10-6B10-40AA-AC10-6ECA400C9626";
shapes = (
{
closed = 1;
nodes = (
(347,-6,o),
(440,50,o),
(450,170,c),
(418,170,l),
(408,67,o),
(330,22,o),
(244,22,cs),
(118,22,o),
(50,117,o),
(50,257,cs),
(50,398,o),
(119,494,o),
(244,494,cs),
(329,494,o),
(408,449,o),
(418,346,c),
(449,346,l),
(439,465,o),
(345,522,o),
(244,522,cs),
(101,522,o),
(20,413,o),
(20,257,cs),
(20,101,o),
(101,-6,o),
(244,-6,cs)
);
}
);
width = 470;
},
{
anchors = (
{
name = bottom;
pos = (292,0);
},
{
name = top;
pos = (292,518);
}
);
hints = (
{
horizontal = 1;
place = (-121, 60);
place = (-121, 60);
type = Stem;
},
{
horizontal = 1;
place = (337, 60);
place = (337, 60);
type = Stem;
},
{
place = (230, 60);
place = (230, 60);
type = Stem;
}
);
layerId = "88F21F75-214F-41EE-AE9C-B4AA79D6697C";
shapes = (
{
closed = 1;
nodes = (
(436,-5,o),
(534,79,o),
(544,216,c),
(376,216,l),
(366,173,o),
(333,154,o),
(294,154,cs),
(237,154,o),
(202,194,o),
(202,258,cs),
(202,322,o),
(238,364,o),
(294,364,cs),
(332,364,o),
(366,344,o),
(376,291,c),
(544,291,l),
(534,438,o),
(434,523,o),
(294,523,cs),
(134,523,o),
(40,414,o),
(40,258,cs),
(40,102,o),
(134,-5,o),
(294,-5,cs)
);
}
);
width = 584;
}
);
metricLeft = o;
metricRight = o;
note = c;
unicode = 99;
},
{
glyphname = eth;
lastChange = "2021-10-11 17:05:19 +0000";
layers = (
{
layerId = "0A901A10-6B10-40AA-AC10-6ECA400C9626";
shapes = (
{
closed = 1;
nodes = (
(343,-6,o),
(407,45,o),
(438,128,c),
(442,128,l),
(442,0,l),
(468,0,l),
(468,612,ls),
(468,693,o),
(418,711,o),
(358,722,cs),
(245,742,l),
(245,714,l),
(358,694,ls),
(402,686,o),
(442,677,o),
(442,612,cs),
(442,385,l),
(438,385,l),
(406,469,o),
(342,522,o),
(244,522,cs),
(101,522,o),
(20,413,o),
(20,257,cs),
(20,101,o),
(101,-6,o),
(244,-6,cs)
);
},
{
closed = 1;
nodes = (
(118,22,o),
(50,117,o),
(50,257,cs),
(50,398,o),
(119,494,o),
(244,494,cs),
(369,494,o),
(438,398,o),
(438,257,cs),
(438,117,o),
(370,22,o),
(244,22,cs)
);
},
{
closed = 1;
nodes = (
(319,623,l),
(355,782,l),
(327,782,l),
(291,623,l)
);
}
);
width = 518;
},
{
hints = (
{
horizontal = 1;
place = (-203, 21);
target = up;
type = BottomGhost;
},
{
horizontal = 1;
place = (480, -20);
target = down;
type = TopGhost;
},
{
place = (197, 60);
place = (197, 60);
type = Stem;
},
{
place = (592, 60);
place = (592, 60);
type = Stem;
}
);
layerId = "88F21F75-214F-41EE-AE9C-B4AA79D6697C";
shapes = (
{
closed = 1;
nodes = (
(347,-7,o),
(398,33,o),
(420,79,c),
(424,79,l),
(424,0,l),
(577,0,l),
(577,604,ls),
(577,706,o),
(530,749,o),
(399,782,cs),
(198,832,l),
(198,672,l),
(379,625,ls),
(416,615,o),
(424,606,o),
(424,573,cs),
(424,437,l),
(420,437,l),
(398,483,o),
(337,523,o),
(264,523,cs),
(135,523,o),
(40,415,o),
(40,258,cs),
(40,101,o),
(135,-7,o),
(264,-7,cs)
);
},
{
closed = 1;
nodes = (
(231,151,o),
(198,190,o),
(198,258,cs),
(198,326,o),
(231,367,o),
(292,367,cs),
(353,367,o),
(386,326,o),
(386,258,cs),
(386,190,o),
(353,151,o),
(292,151,cs)
);
},
{
closed = 1;
nodes = (
(316,579,l),
(386,865,l),
(319,865,l),
(249,579,l)
);
}
);
width = 637;
}
);
metricLeft = d;
metricRight = d;
unicode = 240;
},
{
glyphname = e;
lastChange = "2021-12-27 17:45:40 +0000";
layers = (
{
anchors = (
{
name = bottom;
pos = (239,0);
},
{
name = ogonek;
pos = (429,10);
},
{
name = top;
pos = (239,518);
}
);
hints = (
{
horizontal = 1;
place = (20, 60);
place = (20, 60);
type = Stem;
},
{
horizontal = 1;
place = (252, 60);
place = (252, 60);
type = Stem;
},
{
horizontal = 1;
place = (478, 60);
place = (478, 60);
type = Stem;
}
);
layerId = "0A901A10-6B10-40AA-AC10-6ECA400C9626";
shapes = (
{
closed = 1;
nodes = (
(347,-6,o),
(440,50,o),
(450,170,c),
(418,170,l),
(408,67,o),
(330,22,o),
(244,22,cs),
(118,22,o),
(50,117,o),
(50,257,cs),
(50,398,o),
(119,494,o),
(244,494,cs),
(329,494,o),
(408,449,o),
(418,296,c),
(37,296,l),
(37,268,l),
(449,268,l),
(449,296,l),
(439,465,o),
(345,522,o),
(244,522,cs),
(101,522,o),
(20,413,o),
(20,257,cs),
(20,101,o),
(101,-6,o),
(244,-6,cs)
);
}
);
width = 470;
},
{
anchors = (
{
name = bottom;
pos = (292,0);
},
{
name = ogonek;
pos = (526,10);
},
{
name = top;
pos = (292,518);
}
);
hints = (
{
horizontal = 1;
place = (-5, 145);
place = (-5, 145);
target = (0,6);
type = Stem;
},
{
horizontal = 1;
origin = (0,17);
target = (0,16);
type = Stem;
},
{
horizontal = 1;
origin = (0,22);
target = (0,12);
type = Stem;
},
{
origin = (0,25);
target = (0,18);
type = Stem;
}
);
layerId = "88F21F75-214F-41EE-AE9C-B4AA79D6697C";
shapes = (
{
closed = 1;
nodes = (
(425,-5,o),
(511,73,o),
(536,185,c),
(381,185,l),
(367,164,o),
(340,140,o),
(294,140,cs),
(232,140,o),
(202,194,o),
(202,258,cs),
(202,323,o),
(238,373,o),
(294,373,cs),
(334,373,o),
(366,343,o),
(376,311,c),
(161,311,l),
(161,212,l),
(544,212,l),
(544,250,ls),
(544,414,o),
(442,523,o),
(289,523,cs),
(140,523,o),
(40,417,o),
(40,258,cs),
(40,109,o),
(132,-5,o),
(292,-5,cs)
);
}
);
width = 584;
}
);
metricLeft = o;
metricRight = o;
note = e;
unicode = 101;
},
{
glyphname = f;
lastChange = "2021-10-06 15:00:21 +0000";
layers = (
{
hints = (
{
horizontal = 1;
place = (454, 60);
place = (454, 60);
type = Stem;
},
{
horizontal = 1;
place = (679, -20);
target = down;
type = TopGhost;
},
{
place = (109, 60);
place = (109, 60);
type = Stem;
}
);
layerId = "0A901A10-6B10-40AA-AC10-6ECA400C9626";
shapes = (
{
closed = 1;
nodes = (
(149,0,l),
(149,490,l),
(250,490,l),
(250,518,l),
(149,518,l),
(149,573,ls),
(149,618,o),
(186,655,o),
(231,655,cs),
(264,655,l),
(264,683,l),
(231,683,ls),
(170,683,o),
(121,634,o),
(121,573,cs),
(121,518,l),
(20,518,l),
(20,490,l),
(121,490,l),
(121,0,l)
);
}
);
width = 283;
},
{
hints = (
{
horizontal = 1;
origin = (0,19);
target = up;
type = BottomGhost;
},
{
horizontal = 1;
origin = (0,16);
target = (0,17);
type = Stem;
},
{
horizontal = 1;
origin = (0,8);
target = (0,11);
type = Stem;
},
{
origin = (0,19);
target = (0,0);
type = Stem;
}
);
layerId = "88F21F75-214F-41EE-AE9C-B4AA79D6697C";
shapes = (
{
closed = 1;
nodes = (
(230,0,l),
(230,373,l),
(320,373,l),
(320,518,l),
(230,518,l),
(230,523,ls),
(230,540,o),
(238,556,o),
(266,556,cs),
(320,556,l),
(320,716,l),
(248,716,ls),
(150,716,o),
(70,669,o),
(70,538,cs),
(70,518,l),
(20,518,l),
(20,373,l),
(70,373,l),
(70,0,l)
);
}
);
width = 340;
}
);
note = f;
unicode = 102;
},
{
glyphname = g;
lastChange = "2021-10-06 15:00:21 +0000";
layers = (
{
hints = (
{
horizontal = 1;
place = (-361, 60);
place = (-361, 60);
type = Stem;
},
{
horizontal = 1;
place = (-196, 60);
place = (-196, 60);
type = Stem;
},
{
horizontal = 1;
place = (322, -20);
target = down;
type = TopGhost;
},
{
place = (48, 60);
place = (48, 60);
type = Stem;
},
{
place = (443, 60);
place = (443, 60);
type = Stem;
},
{
horizontal = 1;
place = (262, 60);
place = (262, 60);
type = Stem;
}
);
layerId = "0A901A10-6B10-40AA-AC10-6ECA400C9626";
shapes = (
{
closed = 1;
nodes = (
(389,-165,o),
(468,-101,o),
(468,0,c),
(442,0,l),
(442,-84,o),
(378,-137,o),
(274,-137,cs),
(224,-137,o),
(169,-125,o),
(134,-100,c),
(117,-123,l),
(157,-151,o),
(218,-165,o),
(272,-165,cs)
);
},
{
ref = a;
}
);
width = 508;
},
{
hints = (
{
horizontal = 1;
origin = (0,13);
target = (0,6);
type = Stem;
},
{
origin = (0,3);
target = (0,2);
type = Stem;
}
);
layerId = "88F21F75-214F-41EE-AE9C-B4AA79D6697C";
metricRight = "=|n";
shapes = (
{
closed = 1;
nodes = (
(494,-225,o),
(577,-149,o),
(577,0,c),
(424,0,l),
(424,-38,o),
(382,-65,o),
(324,-65,cs),
(290,-65,o),
(245,-54,o),
(226,-41,c),
(131,-169,l),
(184,-206,o),
(253,-225,o),
(333,-225,cs)
);
},
{
ref = a;
}
);
width = 637;
}
);
metricLeft = o;
note = g;
unicode = 103;
},
{
glyphname = h;
lastChange = "2021-10-06 15:00:21 +0000";
layers = (
{
hints = (
{
horizontal = 1;
place = (-101, 21);
target = up;
type = BottomGhost;
},
{
horizontal = 1;
place = (357, 60);
place = (357, 60);
type = Stem;
},
{
horizontal = 1;
place = (582, -20);
target = down;
type = TopGhost;
},
{
place = (80, 60);
place = (80, 60);
type = Stem;
},
{
place = (441, 60);
place = (441, 60);
type = Stem;
}
);
layerId = "0A901A10-6B10-40AA-AC10-6ECA400C9626";
shapes = (
{
closed = 1;
nodes = (
(76,388,l),
(76,683,l),
(50,683,l),
(50,388,l)
);
},
{
ref = n;
}
);
width = 479;
},
{
hints = (
{
horizontal = 1;
place = (-101, 21);
target = up;
type = BottomGhost;
},
{
horizontal = 1;
place = (357, 60);
place = (357, 60);
type = Stem;
},
{
horizontal = 1;
place = (582, -20);
target = down;
type = TopGhost;
},
{
place = (127, 60);
place = (127, 60);
type = Stem;
},
{
place = (488, 60);
place = (488, 60);
type = Stem;
}
);
layerId = "88F21F75-214F-41EE-AE9C-B4AA79D6697C";
shapes = (
{
closed = 1;
nodes = (
(213,504,l),
(213,683,l),
(60,683,l),
(60,504,l)
);
},
{
ref = n;
}
);
width = 621;
}
);
metricLeft = n;
metricRight = n;
note = h;
unicode = 104;
},
{
glyphname = i;
lastChange = "2021-12-09 13:56:48 +0000";
layers = (
{
hints = (
{
horizontal = 1;
place = (-142, 21);
target = up;
type = BottomGhost;
},
{
horizontal = 1;
place = (442, 99);
place = (442, 99);
type = Stem;
},
{
place = (36, 60);
place = (36, 60);
type = Stem;
}
);
layerId = "0A901A10-6B10-40AA-AC10-6ECA400C9626";
shapes = (
{
closed = 1;
nodes = (
(78,0,l),
(78,518,l),
(50,518,l),
(50,0,l)
);
},
{
closed = 1;
nodes = (
(78,583,l),
(78,683,l),
(50,683,l),
(50,583,l)
);
}
);
width = 128;
},
{
hints = (
{
horizontal = 1;
place = (-142, 21);
target = up;
type = BottomGhost;
},
{
horizontal = 1;
place = (442, 99);
place = (442, 99);
type = Stem;
},
{
place = (252, 60);
place = (252, 60);
type = Stem;
}
);
layerId = "88F21F75-214F-41EE-AE9C-B4AA79D6697C";
shapes = (
{
closed = 1;
nodes = (
(210,0,l),
(210,518,l),
(50,518,l),
(50,0,l)
);
},
{
closed = 1;
nodes = (
(210,568,l),
(210,694,l),
(50,694,l),
(50,568,l)
);
}
);
width = 260;
}
);
note = i;
unicode = 105;
},
{
glyphname = idotless;
lastChange = "2021-10-22 16:01:53 +0000";
layers = (
{
anchors = (
{
name = bottom;
pos = (64,0);
},
{
name = ogonek;
pos = (115,10);
},
{
name = top;
pos = (64,518);
}
);
layerId = "0A901A10-6B10-40AA-AC10-6ECA400C9626";
shapes = (
{
closed = 1;
nodes = (
(78,0,l),
(78,518,l),
(50,518,l),
(50,0,l)
);
}
);
width = 128;
},
{
anchors = (
{
name = bottom;
pos = (130,0);
},
{
name = ogonek;
pos = (234,10);
},
{
name = top;
pos = (130,518);
}
);
layerId = "88F21F75-214F-41EE-AE9C-B4AA79D6697C";
shapes = (
{
closed = 1;
nodes = (
(210,0,l),
(210,495,l),
(50,495,l),
(50,0,l)
);
}
);
width = 260;
}
);
metricLeft = i;
metricRight = i;
unicode = 305;
},
{
glyphname = j;
lastChange = "2021-10-06 15:00:21 +0000";
layers = (
{
hints = (
{
horizontal = 1;
place = (-199, 21);
target = up;
type = BottomGhost;
},
{
horizontal = 1;
place = (551, 98);
place = (551, 98);
type = Stem;
},
{
place = (198, 144);
place = (198, 144);
type = Stem;
}
);
layerId = "0A901A10-6B10-40AA-AC10-6ECA400C9626";
shapes = (
{
closed = 1;
nodes = (
(16,-165,ls),
(78,-165,o),
(128,-133,o),
(128,-53,cs),
(128,518,l),
(100,518,l),
(100,-53,ls),
(100,-111,o),
(62,-137,o),
(16,-137,cs),
(-8,-137,l),
(-8,-165,l)
);
},
{
closed = 1;
nodes = (
(128,583,l),
(128,683,l),
(100,683,l),
(100,583,l)
);
}
);
width = 177;
},
{
hints = (
{
horizontal = 1;
place = (-199, 21);
target = up;
type = BottomGhost;
},
{
horizontal = 1;
place = (551, 98);
place = (551, 98);
type = Stem;
},
{
place = (237, 144);
place = (237, 144);
type = Stem;
}
);
layerId = "88F21F75-214F-41EE-AE9C-B4AA79D6697C";
shapes = (
{
closed = 1;
nodes = (
(16,-215,ls),
(114,-215,o),
(194,-168,o),
(194,-37,cs),
(194,495,l),
(34,495,l),
(34,-22,ls),
(34,-39,o),
(26,-55,o),
(-2,-55,cs),
(-56,-55,l),
(-56,-215,l)
);
},
{
closed = 1;
nodes = (
(194,545,l),
(194,694,l),
(34,694,l),
(34,545,l)
);
}
);
width = 243;
}
);
note = j;
unicode = 106;
},
{
glyphname = k;
lastChange = "2021-10-06 15:00:21 +0000";
layers = (
{
hints = (
{
horizontal = 1;
place = (-117, 21);
target = up;
type = BottomGhost;
},
{
horizontal = 1;
place = (566, -20);
target = down;
type = TopGhost;
},
{
place = (26, 60);
place = (26, 60);
type = Stem;
}
);
layerId = "0A901A10-6B10-40AA-AC10-6ECA400C9626";
shapes = (
{
closed = 1;
nodes = (
(78,0,l),
(78,190,l),
(195,290,l),
(415,0,l),
(450,0,l),
(217,308,l),
(463,518,l),
(420,518,l),
(78,227,l),
(78,683,l),
(50,683,l),
(50,0,l)
);
}
);
width = 483;
},
{
hints = (
{
horizontal = 1;
place = (-117, 21);
target = up;
type = BottomGhost;
},
{
horizontal = 1;
place = (566, -20);
target = down;
type = TopGhost;
},
{
place = (77, 60);
place = (77, 60);
type = Stem;
}
);
layerId = "88F21F75-214F-41EE-AE9C-B4AA79D6697C";
shapes = (
{
closed = 1;
nodes = (
(210,0,l),
(210,164,l),
(239,194,l),
(352,0,l),
(538,0,l),
(354,313,l),
(553,518,l),
(330,518,l),
(210,394,l),
(210,683,l),
(50,683,l),
(50,0,l)
);
}
);
width = 573;
}
);
note = k;
unicode = 107;
},
{
glyphname = l;
lastChange = "2021-10-06 15:00:21 +0000";
layers = (
{
hints = (
{
horizontal = 1;
place = (-86, 21);
target = up;
type = BottomGhost;
},
{
horizontal = 1;
place = (597, -20);
target = down;
type = TopGhost;
},
{
place = (364, 60);
place = (364, 60);
type = Stem;
}
);
layerId = "0A901A10-6B10-40AA-AC10-6ECA400C9626";
shapes = (
{
closed = 1;
nodes = (
(78,0,l),
(78,683,l),
(50,683,l),
(50,0,l)
);
}
);
width = 128;
},
{
hints = (
{
horizontal = 1;
place = (-86, 21);
target = up;
type = BottomGhost;
},
{
horizontal = 1;
place = (597, -20);
target = down;
type = TopGhost;
},
{
place = (614, 60);
place = (614, 60);
type = Stem;
}
);
layerId = "88F21F75-214F-41EE-AE9C-B4AA79D6697C";
shapes = (
{
closed = 1;
nodes = (
(210,0,l),
(210,683,l),
(50,683,l),
(50,0,l)
);
}
);
width = 260;
}
);
note = l;
unicode = 108;
},
{
glyphname = m;
lastChange = "2021-10-06 15:00:21 +0000";
layers = (
{
hints = (
{
horizontal = 1;
origin = (0,35);
target = up;
type = BottomGhost;
},
{
horizontal = 1;
origin = (0,28);
target = (0,4);
type = Stem;
},
{
origin = (0,35);
target = (0,32);
type = Stem;
},
{
origin = (0,8);
target = (0,9);
type = Stem;
},
{
origin = (0,17);
target = (0,18);
type = Stem;
},
{
origin = (0,35);
target = (0,0);
type = Stem;
}
);
layerId = "0A901A10-6B10-40AA-AC10-6ECA400C9626";
shapes = (
{
closed = 1;
nodes = (
(78,-5,l),
(78,262,ls),
(78,403,o),
(152,490,o),
(260,490,cs),
(353,490,o),
(406,432,o),
(406,311,cs),
(406,-5,l),
(434,-5,l),
(434,262,ls),
(434,403,o),
(508,490,o),
(616,490,cs),
(709,490,o),
(762,432,o),
(762,311,cs),
(762,-5,l),
(790,-5,l),
(790,313,ls),
(790,450,o),
(728,518,o),
(618,518,cs),
(528,518,o),
(456,468,o),
(429,377,c),
(411,471,o),
(353,518,o),
(262,518,cs),
(171,518,o),
(106,469,o),
(80,384,c),
(76,384,l),
(76,513,l),
(50,513,l),
(50,-5,l)
);
}
);
width = 830;
},
{
hints = (
{
horizontal = 1;
origin = (0,35);
target = up;
type = BottomGhost;
},
{
horizontal = 1;
origin = (0,28);
target = (0,4);
type = Stem;
},
{
horizontal = 1;
origin = (0,34);
target = (0,4);
type = Stem;
},
{
origin = (0,35);
target = (0,0);
type = Stem;
},
{
origin = (0,8);
target = (0,9);
type = Stem;
},
{
origin = (0,17);
target = (0,18);
type = Stem;
},
{
origin = (0,35);
target = (0,32);
type = Stem;
}
);
layerId = "88F21F75-214F-41EE-AE9C-B4AA79D6697C";
shapes = (
{
closed = 1;
nodes = (
(220,0,l),
(220,239,ls),
(220,321,o),
(251,363,o),
(324,363,cs),
(384,363,o),
(411,326,o),
(411,246,cs),
(411,0,l),
(571,0,l),
(571,239,ls),
(571,321,o),
(602,363,o),
(675,363,cs),
(735,363,o),
(762,326,o),
(762,246,cs),
(762,0,l),
(922,0,l),
(922,315,ls),
(922,438,o),
(853,523,o),
(734,523,cs),
(661,523,o),
(587,486,o),
(547,427,c),
(517,487,o),
(461,523,o),
(383,523,cs),
(300,523,o),
(246,485,o),
(217,437,c),
(213,437,l),
(213,518,l),
(60,518,l),
(60,0,l)
);
}
);
width = 962;
}
);
metricLeft = n;
metricRight = n;
note = m;
unicode = 109;
},
{
glyphname = n;
lastChange = "2021-12-28 15:57:11 +0000";
layers = (
{
anchors = (
{
name = bottom;
pos = (240,0);
},
{
name = top;
pos = (240,518);
}
);
hints = (
{
horizontal = 1;
origin = (0,20);
target = up;
type = BottomGhost;
},
{
horizontal = 1;
origin = (0,13);
target = (0,4);
type = Stem;
},
{
horizontal = 1;
origin = (0,19);
target = down;
type = TopGhost;
},
{
origin = (0,20);
target = (0,17);
type = Stem;
},
{
origin = (0,8);
target = (0,9);
type = Stem;
},
{
origin = (0,20);
target = (0,0);
type = Stem;
}
);
layerId = "0A901A10-6B10-40AA-AC10-6ECA400C9626";
shapes = (
{
closed = 1;
nodes = (
(78,0,l),
(78,267,ls),
(78,408,o),
(152,495,o),
(260,495,cs),
(353,495,o),
(411,431,o),
(411,316,cs),
(411,0,l),
(439,0,l),
(439,318,ls),
(439,451,o),
(372,523,o),
(262,523,cs),
(171,523,o),
(106,474,o),
(80,389,c),
(76,389,l),
(76,518,l),
(50,518,l),
(50,0,l)
);
}
);
width = 479;
},
{
anchors = (
{
name = bottom;
pos = (311,0);
},
{
name = top;
pos = (311,518);
}
);
hints = (
{
horizontal = 1;
origin = (0,20);
target = up;
type = BottomGhost;
},
{
horizontal = 1;
origin = (0,13);
target = (0,4);
type = Stem;
},
{
horizontal = 1;
origin = (0,19);
target = (0,4);
type = Stem;
},
{
origin = (0,20);
target = (0,0);
type = Stem;
},
{
origin = (0,8);
target = (0,9);
type = Stem;
},
{
origin = (0,20);
target = (0,17);
type = Stem;
}
);
layerId = "88F21F75-214F-41EE-AE9C-B4AA79D6697C";
shapes = (
{
closed = 1;
nodes = (
(220,0,l),
(220,239,ls),
(220,321,o),
(251,363,o),
(324,363,cs),
(392,363,o),
(421,326,o),
(421,246,cs),
(421,0,l),
(581,0,l),
(581,315,ls),
(581,438,o),
(512,523,o),
(383,523,cs),
(300,523,o),
(246,485,o),
(217,437,c),
(213,437,l),
(213,518,l),
(60,518,l),
(60,0,l)
);
}
);
width = 621;
}
);
note = n;
unicode = 110;
},
{
glyphname = o;
lastChange = "2021-10-22 16:01:19 +0000";
layers = (
{
anchors = (
{
name = bottom;
pos = (244,0);
},
{
name = center;
pos = (244,259);
},
{
name = ogonek;
pos = (439,10);
},
{
name = top;
pos = (244,518);
},
{
name = topright;
pos = (468,518);
}
);
hints = (
{
horizontal = 1;
origin = (0,11);
target = (1,11);
type = Stem;
},
{
horizontal = 1;
origin = (0,5);
target = (1,5);
type = Stem;
},
{
origin = (0,8);
target = (1,2);
type = Stem;
},
{
origin = (1,8);
target = (0,2);
type = Stem;
}
);
layerId = "0A901A10-6B10-40AA-AC10-6ECA400C9626";
shapes = (
{
closed = 1;
nodes = (
(387,-6,o),
(468,101,o),
(468,257,cs),
(468,412,o),
(385,522,o),
(244,522,cs),
(101,522,o),
(20,413,o),
(20,257,cs),
(20,101,o),
(101,-6,o),
(244,-6,cs)
);
},
{
closed = 1;
nodes = (
(118,22,o),
(50,117,o),
(50,257,cs),
(50,398,o),
(119,494,o),
(244,494,cs),
(369,494,o),
(438,398,o),
(438,257,cs),
(438,117,o),
(370,22,o),
(244,22,cs)
);
}
);
width = 488;
},
{
anchors = (
{
name = bottom;
pos = (292,0);
},
{
name = center;
pos = (292,259);
},
{
name = ogonek;
pos = (526,10);
},
{
name = top;
pos = (292,518);
},
{
name = topright;
pos = (564,518);
}
);
hints = (
{
horizontal = 1;
origin = (0,11);
target = (1,11);
type = Stem;
},
{
horizontal = 1;
origin = (0,5);
target = (1,5);
type = Stem;
},
{
origin = (0,8);
target = (1,2);
type = Stem;
},
{
origin = (1,8);
target = (0,2);
type = Stem;
}
);
layerId = "88F21F75-214F-41EE-AE9C-B4AA79D6697C";
shapes = (
{
closed = 1;
nodes = (
(452,-5,o),
(544,109,o),
(544,258,cs),
(544,407,o),
(451,523,o),
(292,523,cs),
(132,523,o),
(40,407,o),
(40,258,cs),
(40,109,o),
(132,-5,o),
(292,-5,cs)
);
},
{
closed = 1;
nodes = (
(231,151,o),
(198,190,o),
(198,258,cs),
(198,326,o),
(231,367,o),
(292,367,cs),
(353,367,o),
(386,326,o),
(386,258,cs),
(386,190,o),
(353,151,o),
(292,151,cs)
);
}
);
width = 584;
}
);
note = o;
unicode = 111;
},
{
glyphname = oslash;
lastChange = "2021-10-22 22:05:59 +0000";
layers = (
{
layerId = "0A901A10-6B10-40AA-AC10-6ECA400C9626";
shapes = (
{
closed = 1;
nodes = (
(44,0,l),
(469,518,l),
(435,518,l),
(10,0,l)
);
},
{
ref = o;
}
);
width = 479;
},
{
layerId = "88F21F75-214F-41EE-AE9C-B4AA79D6697C";
shapes = (
{
closed = 1;
nodes = (
(190,0,l),
(575,518,l),
(405,518,l),
(20,0,l)
);
},
{
pos = (6,0);
ref = o;
}
);
width = 595;
}
);
unicode = 248;
},
{
glyphname = oe;
lastChange = "2021-12-27 21:31:36 +0000";
layers = (
{
layerId = "0A901A10-6B10-40AA-AC10-6ECA400C9626";
shapes = (
{
closed = 1;
nodes = (
(387,-6,o),
(468,101,o),
(468,257,cs),
(468,412,o),
(385,522,o),
(244,522,cs),
(101,522,o),
(20,413,o),
(20,257,cs),
(20,101,o),
(101,-6,o),
(244,-6,cs)
);
},
{
closed = 1;
nodes = (
(118,22,o),
(50,117,o),
(50,257,cs),
(50,398,o),
(119,494,o),
(244,494,cs),
(369,494,o),
(438,398,o),
(438,257,cs),
(438,117,o),
(370,22,o),
(244,22,cs)
);
},
{
closed = 1;
nodes = (
(765,-6,o),
(858,50,o),
(868,170,c),
(836,170,l),
(826,67,o),
(748,22,o),
(662,22,cs),
(536,22,o),
(468,117,o),
(468,257,cs),
(468,398,o),
(537,494,o),
(662,494,cs),
(747,494,o),
(826,449,o),
(836,296,c),
(455,296,l),
(455,268,l),
(867,268,l),
(867,296,l),
(857,465,o),
(763,522,o),
(662,522,cs),
(519,522,o),
(438,413,o),
(438,257,cs),
(438,101,o),
(519,-6,o),
(662,-6,cs)
);
}
);
width = 888;
},
{
layerId = "88F21F75-214F-41EE-AE9C-B4AA79D6697C";
shapes = (
{
closed = 1;
nodes = (
(452,-5,o),
(544,109,o),
(544,258,cs),
(544,407,o),
(451,523,o),
(292,523,cs),
(132,523,o),
(40,407,o),
(40,258,cs),
(40,109,o),
(132,-5,o),
(292,-5,cs)
);
},
{
closed = 1;
nodes = (
(231,151,o),
(198,190,o),
(198,258,cs),
(198,326,o),
(231,367,o),
(292,367,cs),
(353,367,o),
(386,326,o),
(386,258,cs),
(386,190,o),
(353,151,o),
(292,151,cs)
);
},
{
closed = 1;
nodes = (
(771,-5,o),
(857,73,o),
(882,185,c),
(727,185,l),
(713,164,o),
(686,140,o),
(640,140,cs),
(578,140,o),
(548,194,o),
(548,258,cs),
(548,323,o),
(584,364,o),
(640,364,cs),
(680,364,o),
(712,343,o),
(722,311,c),
(507,311,l),
(507,212,l),
(890,212,l),
(890,250,ls),
(890,414,o),
(788,523,o),
(635,523,cs),
(486,523,o),
(386,417,o),
(386,258,cs),
(386,109,o),
(478,-5,o),
(638,-5,cs)
);
}
);
width = 930;
}
);
metricLeft = o;
metricRight = e;
unicode = 339;
},
{
glyphname = thorn;
lastChange = "2021-10-22 14:07:27 +0000";
layers = (
{
layerId = "0A901A10-6B10-40AA-AC10-6ECA400C9626";
shapes = (
{
closed = 1;
nodes = (
(76,410,l),
(76,683,l),
(50,683,l),
(50,410,l)
);
},
{
ref = p;
}
);
width = 518;
},
{
layerId = "88F21F75-214F-41EE-AE9C-B4AA79D6697C";
shapes = (
{
closed = 1;
nodes = (
(213,412,l),
(213,683,l),
(60,683,l),
(60,412,l)
);
},
{
ref = p;
}
);
width = 637;
}
);
metricLeft = p;
metricRight = p;
unicode = 254;
},
{
glyphname = r;
lastChange = "2021-10-06 15:00:21 +0000";
layers = (
{
hints = (
{
horizontal = 1;
place = (-20, 21);
target = up;
type = BottomGhost;
},
{
horizontal = 1;
place = (438, 60);
place = (438, 60);
type = Stem;
},
{
place = (360, 60);
place = (360, 60);
type = Stem;
}
);
layerId = "0A901A10-6B10-40AA-AC10-6ECA400C9626";
shapes = (
{
closed = 1;
nodes = (
(78,0,l),
(78,257,ls),
(78,408,o),
(152,495,o),
(260,495,c),
(260,523,l),
(172,523,o),
(106,474,o),
(80,389,c),
(76,389,l),
(76,518,l),
(50,518,l),
(50,0,l)
);
}
);
width = 270;
},
{
hints = (
{
horizontal = 1;
place = (-20, 21);
target = up;
type = BottomGhost;
},
{
horizontal = 1;
place = (438, 60);
place = (438, 60);
type = Stem;
},
{
place = (415, 60);
place = (415, 60);
type = Stem;
}
);
layerId = "88F21F75-214F-41EE-AE9C-B4AA79D6697C";
shapes = (
{
closed = 1;
nodes = (
(220,0,l),
(220,227,ls),
(220,310,o),
(251,363,o),
(383,363,c),
(383,523,l),
(300,523,o),
(246,485,o),
(217,437,c),
(213,437,l),
(213,518,l),
(60,518,l),
(60,0,l)
);
}
);
width = 423;
}
);
metricLeft = n;
note = r;
unicode = 114;
},
{
glyphname = s;
lastChange = "2021-10-06 15:00:21 +0000";
layers = (
{
hints = (
{
horizontal = 1;
origin = (0,37);
target = (0,30);
type = Stem;
},
{
horizontal = 1;
origin = (0,18);
target = (0,11);
type = Stem;
},
{
origin = (0,21);
target = (0,8);
type = Stem;
},
{
origin = (0,27);
target = (0,2);
type = Stem;
},
{
origin = (0,14);
target = (0,15);
type = Stem;
}
);
layerId = "0A901A10-6B10-40AA-AC10-6ECA400C9626";
shapes = (
{
closed = 1;
nodes = (
(323,-6,o),
(396,51,o),
(396,129,cs),
(396,213,o),
(349,256,o),
(217,287,cs),
(105,313,o),
(67,345,o),
(67,399,cs),
(67,458,o),
(121,494,o),
(200,494,cs),
(294,494,o),
(344,452,o),
(354,357,c),
(382,357,l),
(373,462,o),
(307,522,o),
(206,522,cs),
(106,522,o),
(39,475,o),
(39,399,cs),
(39,333,o),
(86,290,o),
(209,261,cs),
(330,232,o),
(368,198,o),
(368,129,cs),
(368,65,o),
(308,22,o),
(220,22,cs),
(111,22,o),
(61,81,o),
(48,163,c),
(20,163,l),
(36,59,o),
(101,-6,o),
(214,-6,cs)
);
}
);
width = 415;
},
{
hints = (
{
horizontal = 1;
origin = (0,37);
target = (0,30);
type = Stem;
},
{
horizontal = 1;
origin = (0,18);
target = (0,11);
type = Stem;
},
{
horizontal = 1;
origin = (0,18);
target = (0,14);
type = Stem;
},
{
horizontal = 1;
origin = (0,37);
target = (0,34);
type = Stem;
},
{
origin = (0,34);
target = (0,33);
type = Stem;
},
{
origin = (0,27);
target = (0,2);
type = Stem;
},
{
origin = (0,21);
target = (0,24);
type = Stem;
},
{
origin = (0,14);
target = (0,15);
type = Stem;
}
);
layerId = "88F21F75-214F-41EE-AE9C-B4AA79D6697C";
shapes = (
{
closed = 1;
nodes = (
(374,-5,o),
(469,52,o),
(469,154,cs),
(469,225,o),
(427,273,o),
(315,298,cs),
(227,318,o),
(207,329,o),
(207,350,cs),
(207,371,o),
(228,380,o),
(253,380,cs),
(283,380,o),
(302,364,o),
(302,341,c),
(462,341,l),
(462,447,o),
(372,523,o),
(240,523,cs),
(131,523,o),
(40,471,o),
(40,369,cs),
(40,296,o),
(87,246,o),
(207,215,cs),
(293,193,o),
(306,186,o),
(306,169,cs),
(306,153,o),
(288,144,o),
(259,144,cs),
(217,144,o),
(192,162,o),
(180,192,c),
(20,192,l),
(30,80,o),
(117,-5,o),
(258,-5,cs)
);
}
);
width = 488;
},
{
associatedMasterId = "88F21F75-214F-41EE-AE9C-B4AA79D6697C";
hints = (
{
horizontal = 1;
place = (-20, 60);
place = (-20, 60);
type = Stem;
},
{
horizontal = 1;
place = (356, 60);
place = (356, 60);
type = Stem;
},
{
place = (263, 60);
place = (263, 60);
type = Stem;
},
{
place = (574, 60);
place = (574, 60);
type = Stem;
},
{
place = (246, 60);
place = (246, 60);
type = Stem;
}
);
layerId = "F9EB1860-1828-4B4C-BEC4-4FF858DEA812";
name = "22 Jun 21, 15:28";
shapes = (
{
closed = 1;
nodes = (
(362,-5,o),
(469,55,o),
(469,175,cs),
(469,326,o),
(202,293,o),
(202,350,cs),
(202,366,o),
(228,377,o),
(247,377,cs),
(275,377,o),
(297,367,o),
(297,341,c),
(457,341,l),
(457,461,o),
(348,523,o),
(239,523,cs),
(138,523,o),
(35,470,o),
(35,354,cs),
(35,202,o),
(306,230,o),
(306,171,cs),
(306,152,o),
(275,144,o),
(251,144,cs),
(222,144,o),
(180,162,o),
(180,192,c),
(20,192,l),
(19,147,o),
(35,103,o),
(66,69,cs),
(109,22,o),
(177,-5,o),
(251,-5,cs)
);
}
);
width = 488;
}
);
note = s;
unicode = 115;
},
{
glyphname = germandbls;
lastChange = "2021-10-10 22:22:26 +0000";
layers = (
{
layerId = "0A901A10-6B10-40AA-AC10-6ECA400C9626";
shapes = (
{
closed = 1;
nodes = (
(78,0,l),
(78,570,ls),
(78,615,o),
(115,652,o),
(160,652,cs),
(264,652,ls),
(373,652,o),
(422,587,o),
(422,519,cs),
(422,450,o),
(369,378,o),
(268,378,cs),
(157,378,l),
(157,350,l),
(268,350,ls),
(397,350,o),
(454,269,o),
(454,191,cs),
(454,110,o),
(389,28,o),
(264,28,cs),
(157,28,l),
(157,0,l),
(264,0,ls),
(407,0,o),
(482,96,o),
(482,193,cs),
(482,276,o),
(426,341,o),
(348,366,c),
(410,392,o),
(450,451,o),
(450,521,cs),
(450,625,o),
(362,680,o),
(264,680,cs),
(160,680,ls),
(99,680,o),
(50,631,o),
(50,570,cs),
(50,0,l)
);
}
);
width = 511;
},
{
layerId = "88F21F75-214F-41EE-AE9C-B4AA79D6697C";
shapes = (
{
closed = 1;
nodes = (
(210,0,l),
(210,507,ls),
(210,524,o),
(218,540,o),
(246,540,cs),
(330,540,ls),
(388,540,o),
(414,524,o),
(414,480,cs),
(414,428,o),
(379,416,o),
(320,416,cs),
(251,416,l),
(251,284,l),
(340,284,ls),
(392,284,o),
(424,260,o),
(424,214,cs),
(424,164,o),
(398,140,o),
(330,140,cs),
(251,140,l),
(251,0,l),
(331,0,ls),
(503,0,o),
(599,75,o),
(599,206,cs),
(599,276,o),
(572,324,o),
(498,358,c),
(548,385,o),
(574,445,o),
(574,501,cs),
(574,609,o),
(477,680,o),
(331,680,cs),
(228,680,ls),
(130,680,o),
(50,633,o),
(50,502,cs),
(50,0,l)
);
}
);
width = 628;
}
);
metricLeft = N;
metricRight = B;
unicode = 223;
},
{
glyphname = t;
lastChange = "2021-10-06 15:00:21 +0000";
layers = (
{
hints = (
{
horizontal = 1;
place = (-103, 21);
target = up;
type = BottomGhost;
},
{
horizontal = 1;
place = (355, 60);
place = (355, 60);
type = Stem;
},
{
horizontal = 1;
place = (580, -20);
target = down;
type = TopGhost;
},
{
place = (382, 152);
place = (382, 152);
type = Stem;
}
);
layerId = "0A901A10-6B10-40AA-AC10-6ECA400C9626";
shapes = (
{
closed = 1;
nodes = (
(235,0,l),
(235,28,l),
(211,28,ls),
(165,28,o),
(127,54,o),
(127,112,cs),
(127,492,l),
(230,492,l),
(230,518,l),
(127,518,l),
(127,643,l),
(99,643,l),
(99,518,l),
(20,518,l),
(20,492,l),
(99,492,l),
(99,112,ls),
(99,32,o),
(149,0,o),
(211,0,cs)
);
}
);
width = 265;
},
{
hints = (
{
horizontal = 1;
place = (-103, 21);
target = up;
type = BottomGhost;
},
{
horizontal = 1;
place = (355, 60);
place = (355, 60);
type = Stem;
},
{
horizontal = 1;
place = (580, -20);
target = down;
type = TopGhost;
},
{
place = (382, 152);
place = (382, 152);
type = Stem;
}
);
layerId = "88F21F75-214F-41EE-AE9C-B4AA79D6697C";
shapes = (
{
closed = 1;
nodes = (
(320,0,l),
(320,160,l),
(266,160,ls),
(238,160,o),
(230,176,o),
(230,193,cs),
(230,373,l),
(320,373,l),
(320,518,l),
(230,518,l),
(230,652,l),
(70,652,l),
(70,518,l),
(20,518,l),
(20,373,l),
(70,373,l),
(70,178,ls),
(70,47,o),
(150,0,o),
(248,0,cs)
);
}
);
width = 370;
}
);
note = t;
unicode = 116;
},
{
glyphname = u;
lastChange = "2021-10-22 16:03:32 +0000";
layers = (
{
anchors = (
{
name = bottom;
pos = (237,0);
},
{
name = ogonek;
pos = (427,10);
},
{
name = top;
pos = (237,518);
},
{
name = topright;
pos = (454,518);
}
);
hints = (
{
horizontal = 1;
origin = (0,6);
target = down;
type = TopGhost;
},
{
horizontal = 1;
origin = (0,20);
target = (0,11);
type = Stem;
},
{
horizontal = 1;
origin = (0,5);
target = up;
type = BottomGhost;
},
{
origin = (0,6);
target = (0,3);
type = Stem;
},
{
origin = (0,15);
target = (0,16);
type = Stem;
},
{
origin = (0,6);
target = (0,7);
type = Stem;
}
);
layerId = "0A901A10-6B10-40AA-AC10-6ECA400C9626";
metricLeft = "=|n";
metricRight = "=|n";
shapes = (
{
closed = 1;
nodes = (
(303,-5,o),
(368,44,o),
(394,129,c),
(398,129,l),
(398,0,l),
(424,0,l),
(424,518,l),
(396,518,l),
(396,251,ls),
(396,110,o),
(322,23,o),
(214,23,cs),
(121,23,o),
(68,81,o),
(68,202,cs),
(68,518,l),
(40,518,l),
(40,200,ls),
(40,63,o),
(102,-5,o),
(212,-5,cs)
);
}
);
width = 474;
},
{
anchors = (
{
name = bottom;
pos = (306,0);
},
{
name = ogonek;
pos = (551,10);
},
{
name = top;
pos = (306,518);
},
{
name = topright;
pos = (592,518);
}
);
hints = (
{
horizontal = 1;
origin = (0,20);
target = (0,11);
type = Stem;
},
{
horizontal = 1;
origin = (0,16);
target = down;
type = TopGhost;
},
{
horizontal = 1;
origin = (0,4);
target = (0,11);
type = Stem;
},
{
origin = (0,17);
target = (0,14);
type = Stem;
},
{
origin = (0,8);
target = (0,5);
type = Stem;
},
{
origin = (0,4);
target = (0,5);
type = Stem;
}
);
layerId = "88F21F75-214F-41EE-AE9C-B4AA79D6697C";
metricLeft = "=|n";
metricRight = "=|n";
shapes = (
{
closed = 1;
nodes = (
(315,-5,o),
(366,33,o),
(395,81,c),
(399,81,l),
(399,0,l),
(552,0,l),
(552,518,l),
(392,518,l),
(392,279,ls),
(392,198,o),
(361,155,o),
(291,155,cs),
(226,155,o),
(200,191,o),
(200,272,cs),
(200,518,l),
(40,518,l),
(40,203,ls),
(40,80,o),
(103,-5,o),
(232,-5,cs)
);
}
);
width = 612;
}
);
note = u;
unicode = 117;
},
{
glyphname = v;
lastChange = "2021-10-06 15:00:21 +0000";
layers = (
{
hints = (
{
horizontal = 1;
place = (498, -20);
target = down;
type = TopGhost;
}
);
layerId = "0A901A10-6B10-40AA-AC10-6ECA400C9626";
shapes = (
{
closed = 1;
nodes = (
(234,0,l),
(432,518,l),
(402,518,l),
(223,50,l),
(45,518,l),
(15,518,l),
(212,0,l)
);
}
);
width = 446;
},
{
hints = (
{
horizontal = 1;
place = (498, -20);
target = down;
type = TopGhost;
}
);
layerId = "88F21F75-214F-41EE-AE9C-B4AA79D6697C";
shapes = (
{
closed = 1;
nodes = (
(366,0,l),
(563,518,l),
(392,518,l),
(284,235,l),
(176,518,l),
(5,518,l),
(202,0,l)
);
}
);
width = 568;
}
);
note = v;
unicode = 118;
},
{
glyphname = w;
lastChange = "2021-10-06 15:00:21 +0000";
layers = (
{
hints = (
{
horizontal = 1;
place = (498, -20);
target = down;
type = TopGhost;
}
);
layerId = "0A901A10-6B10-40AA-AC10-6ECA400C9626";
shapes = (
{
closed = 1;
nodes = (
(200,0,l),
(352,473,l),
(504,0,l),
(527,0,l),
(694,518,l),
(664,518,l),
(515,56,l),
(367,518,l),
(337,518,l),
(188,56,l),
(39,518,l),
(10,518,l),
(177,0,l)
);
}
);
width = 703;
},
{
hints = (
{
horizontal = 1;
place = (498, -20);
target = down;
type = TopGhost;
}
);
layerId = "88F21F75-214F-41EE-AE9C-B4AA79D6697C";
shapes = (
{
closed = 1;
nodes = (
(338,0,l),
(421,257,l),
(504,0,l),
(665,0,l),
(832,518,l),
(664,518,l),
(585,271,l),
(505,518,l),
(337,518,l),
(257,271,l),
(178,518,l),
(10,518,l),
(177,0,l)
);
}
);
width = 841;
}
);
note = w;
unicode = 119;
},
{
glyphname = x;
lastChange = "2021-10-06 15:00:21 +0000";
layers = (
{
hints = (
{
horizontal = 1;
place = (178, 21);
target = up;
type = BottomGhost;
},
{
horizontal = 1;
place = (696, -20);
target = down;
type = TopGhost;
}
);
layerId = "0A901A10-6B10-40AA-AC10-6ECA400C9626";
shapes = (
{
closed = 1;
nodes = (
(55,0,l),
(240,246,l),
(426,0,l),
(461,0,l),
(258,269,l),
(445,518,l),
(410,518,l),
(240,292,l),
(70,518,l),
(35,518,l),
(223,269,l),
(20,0,l)
);
}
);
width = 481;
},
{
hints = (
{
horizontal = 1;
place = (178, 21);
target = up;
type = BottomGhost;
},
{
horizontal = 1;
place = (696, -20);
target = down;
type = TopGhost;
}
);
layerId = "88F21F75-214F-41EE-AE9C-B4AA79D6697C";
shapes = (
{
closed = 1;
nodes = (
(220,0,l),
(323,136,l),
(426,0,l),
(626,0,l),
(423,269,l),
(611,518,l),
(410,518,l),
(323,402,l),
(236,518,l),
(35,518,l),
(223,269,l),
(20,0,l)
);
}
);
width = 646;
}
);
note = x;
unicode = 120;
},
{
glyphname = y;
lastChange = "2021-10-22 16:03:14 +0000";
layers = (
{
anchors = (
{
name = bottom;
pos = (222,0);
},
{
name = top;
pos = (222,518);
}
);
hints = (
{
horizontal = 1;
place = (-165, 28);
place = (-165, 28);
type = Stem;
},
{
horizontal = 1;
place = (518, -20);
target = down;
type = TopGhost;
},
{
place = (20, 419);
place = (20, 419);
type = Stem;
}
);
layerId = "0A901A10-6B10-40AA-AC10-6ECA400C9626";
shapes = (
{
closed = 1;
nodes = (
(101,-165,ls),
(145,-165,o),
(185,-137,o),
(200,-97,cs),
(434,518,l),
(404,518,l),
(225,46,l),
(45,518,l),
(15,518,l),
(210,7,l),
(174,-87,ls),
(162,-117,o),
(133,-137,o),
(101,-137,cs),
(55,-137,l),
(55,-165,l)
);
}
);
width = 448;
},
{
anchors = (
{
name = bottom;
pos = (280,0);
},
{
name = top;
pos = (280,518);
}
);
hints = (
{
horizontal = 1;
place = (-191, 160);
place = (-191, 160);
type = Stem;
},
{
horizontal = 1;
place = (518, -20);
target = down;
type = TopGhost;
},
{
place = (20, 550);
place = (20, 550);
type = Stem;
}
);
layerId = "88F21F75-214F-41EE-AE9C-B4AA79D6697C";
shapes = (
{
closed = 1;
nodes = (
(142,-218,ls),
(232,-218,o),
(283,-185,o),
(312,-111,cs),
(555,518,l),
(384,518,l),
(280,245,l),
(176,518,l),
(5,518,l),
(188,36,l),
(196,12,ls),
(207,-20,o),
(175,-58,o),
(139,-58,cs),
(90,-58,l),
(90,-218,l)
);
}
);
width = 560;
}
);
metricLeft = v;
metricRight = v;
note = y;
unicode = 121;
},
{
glyphname = z;
lastChange = "2021-10-06 15:00:21 +0000";
layers = (
{
hints = (
{
horizontal = 1;
place = (178, 60);
place = (178, 60);
type = Stem;
},
{
horizontal = 1;
place = (636, 60);
place = (636, 60);
type = Stem;
}
);
layerId = "0A901A10-6B10-40AA-AC10-6ECA400C9626";
shapes = (
{
closed = 1;
nodes = (
(424,0,l),
(424,28,l),
(55,28,l),
(408,490,l),
(408,518,l),
(41,518,l),
(41,490,l),
(373,490,l),
(20,28,l),
(20,0,l)
);
}
);
width = 443;
},
{
hints = (
{
horizontal = 1;
place = (178, 60);
place = (178, 60);
type = Stem;
},
{
horizontal = 1;
place = (636, 60);
place = (636, 60);
type = Stem;
}
);
layerId = "88F21F75-214F-41EE-AE9C-B4AA79D6697C";
shapes = (
{
closed = 1;
nodes = (
(368,0,l),
(368,160,l),
(201,160,l),
(368,341,l),
(368,518,l),
(31,518,l),
(31,358,l),
(166,358,l),
(20,199,l),
(20,0,l)
);
}
);
width = 387;
}
);
note = z;
unicode = 122;
},
{
glyphname = ordfeminine;
lastChange = "2021-12-27 17:51:22 +0000";
layers = (
{
hints = (
{
horizontal = 1;
place = (0, 60);
place = (0, 60);
type = Stem;
},
{
horizontal = 1;
place = (458, 60);
place = (458, 60);
type = Stem;
},
{
place = (-18, 60);
place = (-18, 60);
type = Stem;
},
{
place = (377, 60);
place = (377, 60);
type = Stem;
}
);
layerId = "0A901A10-6B10-40AA-AC10-6ECA400C9626";
shapes = (
{
closed = 1;
nodes = (
(179,418,o),
(213,442,o),
(229,485,c),
(231,485,l),
(231,421,l),
(259,421,l),
(259,680,l),
(231,680,l),
(231,614,l),
(229,614,l),
(212,657,o),
(179,682,o),
(135,682,cs),
(68,682,o),
(20,627,o),
(20,550,cs),
(20,473,o),
(68,418,o),
(135,418,cs)
);
},
{
closed = 1;
nodes = (
(82,446,o),
(48,485,o),
(48,549,cs),
(48,614,o),
(83,654,o),
(139,654,cs),
(193,654,o),
(225,616,o),
(225,550,cs),
(225,484,o),
(193,446,o),
(138,446,cs)
);
}
);
width = 309;
},
{
hints = (
{
horizontal = 1;
place = (0, 60);
place = (0, 60);
type = Stem;
},
{
horizontal = 1;
place = (458, 60);
place = (458, 60);
type = Stem;
},
{
place = (1, 60);
place = (1, 60);
type = Stem;
},
{
place = (396, 60);
place = (396, 60);
type = Stem;
}
);
layerId = "88F21F75-214F-41EE-AE9C-B4AA79D6697C";
shapes = (
{
closed = 1;
nodes = (
(194,418,o),
(219,438,o),
(230,461,c),
(232,461,l),
(232,421,l),
(332,421,l),
(332,680,l),
(232,680,l),
(232,640,l),
(230,640,l),
(219,663,o),
(189,683,o),
(152,683,cs),
(88,683,o),
(40,629,o),
(40,550,cs),
(40,472,o),
(88,418,o),
(152,418,cs)
);
},
{
closed = 1;
nodes = (
(159,502,o),
(143,519,o),
(143,550,cs),
(143,581,o),
(159,600,o),
(186,600,cs),
(214,600,o),
(229,581,o),
(229,550,cs),
(229,519,o),
(214,502,o),
(186,502,cs)
);
}
);
width = 392;
}
);
metricLeft = o;
metricRight = a;
unicode = 170;
},
{
glyphname = ordmasculine;
lastChange = "2021-12-27 17:51:21 +0000";
layers = (
{
hints = (
{
horizontal = 1;
origin = (0,11);
target = (1,11);
type = Stem;
},
{
horizontal = 1;
origin = (0,5);
target = (1,5);
type = Stem;
},
{
origin = (0,8);
target = (1,2);
type = Stem;
},
{
origin = (1,8);
target = (0,2);
type = Stem;
}
);
layerId = "0A901A10-6B10-40AA-AC10-6ECA400C9626";
shapes = (
{
closed = 1;
nodes = (
(201,426,o),
(244,477,o),
(244,558,cs),
(244,638,o),
(200,690,o),
(132,690,cs),
(63,690,o),
(20,639,o),
(20,558,cs),
(20,477,o),
(63,426,o),
(132,426,cs)
);
},
{
closed = 1;
nodes = (
(80,454,o),
(48,491,o),
(48,558,cs),
(48,623,o),
(82,662,o),
(132,662,cs),
(183,662,o),
(216,625,o),
(216,558,cs),
(216,491,o),
(182,454,o),
(132,454,cs)
);
}
);
width = 264;
},
{
hints = (
{
horizontal = 1;
origin = (0,11);
target = (1,11);
type = Stem;
},
{
horizontal = 1;
origin = (0,5);
target = (1,5);
type = Stem;
},
{
origin = (0,8);
target = (1,2);
type = Stem;
},
{
origin = (1,8);
target = (0,2);
type = Stem;
}
);
layerId = "88F21F75-214F-41EE-AE9C-B4AA79D6697C";
shapes = (
{
closed = 1;
nodes = (
(246,426,o),
(292,483,o),
(292,558,cs),
(292,632,o),
(246,690,o),
(166,690,cs),
(86,690,o),
(40,632,o),
(40,558,cs),
(40,483,o),
(86,426,o),
(166,426,cs)
);
},
{
closed = 1;
nodes = (
(139,509,o),
(123,527,o),
(123,558,cs),
(123,589,o),
(139,607,o),
(166,607,cs),
(194,607,o),
(209,589,o),
(209,558,cs),
(209,527,o),
(194,509,o),
(166,509,cs)
);
}
);
width = 332;
}
);
metricLeft = o;
metricRight = o;
unicode = 186;
},
{
glyphname = uni05D0;
lastChange = "2021-10-06 15:00:21 +0000";
layers = (
{
hints = (
{
horizontal = 1;
place = (0, 21);
target = up;
type = BottomGhost;
},
{
horizontal = 1;
place = (519, -20);
target = down;
type = TopGhost;
},
{
place = (35, 28);
place = (35, 28);
type = Stem;
},
{
place = (461, 28);
place = (461, 28);
type = Stem;
}
);
layerId = "0A901A10-6B10-40AA-AC10-6ECA400C9626";
shapes = (
{
closed = 1;
nodes = (
(63,0,l),
(63,122,o),
(95,271,o),
(171,371,c),
(489,0,l),
(526,0,l),
(395,153,l),
(476,262,o),
(489,387,o),
(489,519,c),
(461,519,l),
(461,397,o),
(451,280,o),
(376,175,c),
(81,519,l),
(44,519,l),
(152,392,l),
(73,292,o),
(35,128,o),
(35,0,c)
);
}
);
width = 560;
},
{
hints = (
{
horizontal = 1;
place = (0, 21);
target = up;
type = BottomGhost;
},
{
horizontal = 1;
place = (519, -20);
target = down;
type = TopGhost;
},
{
place = (35, 160);
place = (35, 160);
type = Stem;
},
{
place = (422, 160);
place = (422, 160);
type = Stem;
},
{
horizontal = 1;
place = (398, 121);
place = (398, 121);
type = Stem;
},
{
horizontal = 1;
place = (0, 150);
place = (0, 150);
type = Stem;
}
);
layerId = "88F21F75-214F-41EE-AE9C-B4AA79D6697C";
shapes = (
{
closed = 1;
nodes = (
(195,0,l),
(195,121,o),
(215,204,o),
(235,253,c),
(420,0,l),
(618,0,l),
(509,150,l),
(581,266,o),
(582,377,o),
(582,519,c),
(422,519,l),
(422,413,o),
(421,353,o),
(402,296,c),
(239,519,l),
(41,519,l),
(130,398,l),
(54,280,o),
(35,137,o),
(35,0,c)
);
}
);
width = 652;
}
);
note = uni05D0;
unicode = 1488;
},
{
glyphname = uni05D1;
lastChange = "2021-10-06 15:00:21 +0000";
layers = (
{
hints = (
{
horizontal = 1;
place = (0, 28);
place = (0, 28);
type = Stem;
},
{
horizontal = 1;
place = (490, 28);
place = (490, 28);
type = Stem;
},
{
place = (353, 28);
place = (353, 28);
type = Stem;
}
);
layerId = "0A901A10-6B10-40AA-AC10-6ECA400C9626";
shapes = (
{
closed = 1;
nodes = (
(446,0,l),
(446,28,l),
(381,28,l),
(381,316,ls),
(381,428,o),
(291,518,o),
(179,518,cs),
(20,518,l),
(20,490,l),
(179,490,ls),
(275,490,o),
(353,412,o),
(353,316,cs),
(353,28,l),
(20,28,l),
(20,0,l)
);
}
);
width = 465;
},
{
hints = (
{
horizontal = 1;
place = (0, 160);
place = (0, 160);
type = Stem;
},
{
horizontal = 1;
place = (358, 160);
place = (358, 160);
type = Stem;
},
{
place = (267, 160);
place = (267, 160);
type = Stem;
}
);
layerId = "88F21F75-214F-41EE-AE9C-B4AA79D6697C";
shapes = (
{
closed = 1;
nodes = (
(475,0,l),
(475,160,l),
(427,160,l),
(427,278,ls),
(427,410,o),
(320,518,o),
(187,518,cs),
(20,518,l),
(20,358,l),
(187,358,ls),
(231,358,o),
(267,322,o),
(267,278,cs),
(267,160,l),
(20,160,l),
(20,0,l)
);
}
);
width = 494;
}
);
note = uni05D1;
unicode = 1489;
},
{
glyphname = uni05D2;
lastChange = "2021-10-06 15:00:21 +0000";
layers = (
{
hints = (
{
horizontal = 1;
place = (0, 28);
place = (0, 28);
type = Stem;
},
{
horizontal = 1;
place = (491, 28);
place = (491, 28);
type = Stem;
},
{
place = (243, 15);
place = (243, 15);
type = Stem;
}
);
layerId = "0A901A10-6B10-40AA-AC10-6ECA400C9626";
shapes = (
{
closed = 1;
nodes = (
(119,0,o),
(221,65,o),
(258,158,c),
(291,0,l),
(319,0,l),
(211,519,l),
(69,519,l),
(69,491,l),
(188,491,l),
(243,227,l),
(243,115,o),
(123,28,o),
(20,28,c),
(20,0,l)
);
}
);
width = 338;
},
{
hints = (
{
horizontal = 1;
place = (0, 160);
place = (0, 160);
type = Stem;
},
{
horizontal = 1;
place = (358, 160);
place = (358, 160);
type = Stem;
},
{
place = (20, 349);
place = (20, 349);
type = Stem;
}
);
layerId = "88F21F75-214F-41EE-AE9C-B4AA79D6697C";
shapes = (
{
closed = 1;
nodes = (
(81,0,o),
(142,21,o),
(193,58,c),
(205,0,l),
(369,0,l),
(260,518,l),
(65,518,l),
(65,358,l),
(130,358,l),
(149,271,l),
(149,204,o),
(75,160,o),
(20,160,c),
(20,0,l)
);
}
);
width = 388;
}
);
note = uni05D2;
unicode = 1490;
},
{
glyphname = uni05D3;
lastChange = "2021-10-06 15:00:21 +0000";
layers = (
{
hints = (
{
horizontal = 1;
place = (0, 21);
target = up;
type = BottomGhost;
},
{
horizontal = 1;
place = (490, 28);
place = (490, 28);
type = Stem;
},
{
place = (339, 28);
place = (339, 28);
type = Stem;
}
);
layerId = "0A901A10-6B10-40AA-AC10-6ECA400C9626";
shapes = (
{
closed = 1;
nodes = (
(367,0,l),
(367,490,l),
(435,490,l),
(435,518,l),
(30,518,l),
(30,490,l),
(339,490,l),
(339,0,l)
);
}
);
width = 465;
},
{
hints = (
{
horizontal = 1;
place = (0, 21);
target = up;
type = BottomGhost;
},
{
horizontal = 1;
place = (358, 160);
place = (358, 160);
type = Stem;
},
{
place = (212, 160);
place = (212, 160);
type = Stem;
}
);
layerId = "88F21F75-214F-41EE-AE9C-B4AA79D6697C";
shapes = (
{
closed = 1;
nodes = (
(372,0,l),
(372,358,l),
(429,358,l),
(429,518,l),
(10,518,l),
(10,358,l),
(212,358,l),
(212,0,l)
);
}
);
width = 448;
}
);
note = uni05D3;
unicode = 1491;
},
{
glyphname = uni05D4;
lastChange = "2021-10-06 15:00:21 +0000";
layers = (
{
hints = (
{
horizontal = 1;
place = (0, 21);
target = up;
type = BottomGhost;
},
{
horizontal = 1;
place = (490, 28);
place = (490, 28);
type = Stem;
},
{
place = (44, 28);
place = (44, 28);
type = Stem;
},
{
place = (413, 28);
place = (413, 28);
type = Stem;
}
);
layerId = "0A901A10-6B10-40AA-AC10-6ECA400C9626";
shapes = (
{
closed = 1;
nodes = (
(441,0,l),
(441,317,ls),
(441,428,o),
(351,518,o),
(240,518,cs),
(40,518,l),
(40,490,l),
(240,490,ls),
(335,490,o),
(413,412,o),
(413,317,cs),
(413,0,l)
);
},
{
closed = 1;
nodes = (
(72,0,l),
(72,297,l),
(44,297,l),
(44,0,l)
);
}
);
width = 480;
},
{
hints = (
{
horizontal = 1;
place = (0, 259);
place = (0, 259);
type = Stem;
},
{
horizontal = 1;
place = (358, 160);
place = (358, 160);
type = Stem;
},
{
place = (40, 160);
place = (40, 160);
type = Stem;
},
{
place = (337, 160);
place = (337, 160);
type = Stem;
}
);
layerId = "88F21F75-214F-41EE-AE9C-B4AA79D6697C";
shapes = (
{
closed = 1;
nodes = (
(497,0,l),
(497,278,ls),
(497,410,o),
(390,518,o),
(257,518,cs),
(40,518,l),
(40,358,l),
(257,358,ls),
(301,358,o),
(337,322,o),
(337,278,cs),
(337,0,l)
);
},
{
closed = 1;
nodes = (
(200,0,l),
(200,259,l),
(40,259,l),
(40,0,l)
);
}
);
width = 536;
}
);
note = uni05D4;
unicode = 1492;
},
{
glyphname = uni05D5;
lastChange = "2021-10-06 15:00:21 +0000";
layers = (
{
hints = (
{
horizontal = 1;
place = (0, 21);
target = up;
type = BottomGhost;
},
{
horizontal = 1;
place = (518, -20);
target = down;
type = TopGhost;
},
{
place = (60, 28);
place = (60, 28);
type = Stem;
}
);
layerId = "0A901A10-6B10-40AA-AC10-6ECA400C9626";
shapes = (
{
closed = 1;
nodes = (
(88,0,l),
(88,518,l),
(60,518,l),
(60,0,l)
);
}
);
width = 148;
},
{
hints = (
{
horizontal = 1;
place = (0, 21);
target = up;
type = BottomGhost;
},
{
horizontal = 1;
place = (518, -20);
target = down;
type = TopGhost;
},
{
place = (60, 160);
place = (60, 160);
type = Stem;
}
);
layerId = "88F21F75-214F-41EE-AE9C-B4AA79D6697C";
shapes = (
{
closed = 1;
nodes = (
(220,0,l),
(220,518,l),
(60,518,l),
(60,0,l)
);
}
);
width = 280;
}
);
note = uni05D5;
unicode = 1493;
},
{
glyphname = uni05D6;
lastChange = "2021-10-06 15:00:21 +0000";
layers = (
{
hints = (
{
horizontal = 1;
place = (0, 21);
target = up;
type = BottomGhost;
},
{
horizontal = 1;
place = (490, 28);
place = (490, 28);
type = Stem;
},
{
place = (192, 28);
place = (192, 28);
type = Stem;
}
);
layerId = "0A901A10-6B10-40AA-AC10-6ECA400C9626";
shapes = (
{
closed = 1;
nodes = (
(220,0,l),
(220,308,ls),
(220,384,o),
(187,452,o),
(121,490,c),
(287,490,l),
(287,518,l),
(10,518,l),
(10,490,l),
(119,490,o),
(192,417,o),
(192,308,cs),
(192,0,l)
);
}
);
width = 306;
},
{
hints = (
{
horizontal = 1;
place = (0, 21);
target = up;
type = BottomGhost;
},
{
horizontal = 1;
place = (358, 160);
place = (358, 160);
type = Stem;
},
{
place = (126, 160);
place = (126, 160);
type = Stem;
}
);
layerId = "88F21F75-214F-41EE-AE9C-B4AA79D6697C";
shapes = (
{
closed = 1;
nodes = (
(286,0,l),
(286,242,ls),
(286,324,o),
(251,353,o),
(245,358,c),
(335,358,l),
(335,518,l),
(10,518,l),
(10,358,l),
(66,358,o),
(126,328,o),
(126,242,cs),
(126,0,l)
);
}
);
width = 354;
}
);
note = uni05D6;
unicode = 1494;
},
{
glyphname = uni05D7;
lastChange = "2021-10-06 15:00:21 +0000";
layers = (
{
hints = (
{
horizontal = 1;
place = (0, 21);
target = up;
type = BottomGhost;
},
{
horizontal = 1;
place = (490, 28);
place = (490, 28);
type = Stem;
},
{
place = (50, 28);
place = (50, 28);
type = Stem;
},
{
place = (433, 28);
place = (433, 28);
type = Stem;
}
);
layerId = "0A901A10-6B10-40AA-AC10-6ECA400C9626";
shapes = (
{
closed = 1;
nodes = (
(78,0,l),
(78,490,l),
(260,490,ls),
(355,490,o),
(433,412,o),
(433,317,cs),
(433,0,l),
(461,0,l),
(461,317,ls),
(461,428,o),
(371,518,o),
(260,518,cs),
(50,518,l),
(50,0,l)
);
}
);
width = 500;
},
{
hints = (
{
horizontal = 1;
place = (0, 21);
target = up;
type = BottomGhost;
},
{
horizontal = 1;
place = (358, 160);
place = (358, 160);
type = Stem;
},
{
place = (50, 160);
place = (50, 160);
type = Stem;
},
{
place = (373, 160);
place = (373, 160);
type = Stem;
}
);
layerId = "88F21F75-214F-41EE-AE9C-B4AA79D6697C";
shapes = (
{
closed = 1;
nodes = (
(210,0,l),
(210,358,l),
(293,358,ls),
(337,358,o),
(373,322,o),
(373,278,cs),
(373,0,l),
(533,0,l),
(533,278,ls),
(533,410,o),
(425,518,o),
(293,518,cs),
(50,518,l),
(50,0,l)
);
}
);
width = 572;
}
);
note = uni05D7;
unicode = 1495;
},
{
glyphname = uni05D8;
lastChange = "2021-10-06 15:00:21 +0000";
layers = (
{
hints = (
{
horizontal = 1;
place = (-5, 28);
place = (-5, 28);
type = Stem;
},
{
horizontal = 1;
place = (485, 28);
place = (485, 28);
type = Stem;
},
{
place = (40, 28);
place = (40, 28);
type = Stem;
},
{
place = (472, 28);
place = (472, 28);
type = Stem;
}
);
layerId = "0A901A10-6B10-40AA-AC10-6ECA400C9626";
shapes = (
{
closed = 1;
nodes = (
(412,-5,o),
(500,124,o),
(500,262,cs),
(500,396,o),
(416,513,o),
(270,513,c),
(270,485,l),
(419,485,o),
(472,360,o),
(472,257,cs),
(472,124,o),
(383,23,o),
(270,23,cs),
(157,23,o),
(68,124,o),
(68,254,cs),
(68,513,l),
(40,513,l),
(40,254,ls),
(40,121,o),
(130,-5,o),
(271,-5,cs)
);
}
);
width = 530;
},
{
hints = (
{
horizontal = 1;
place = (-5, 160);
place = (-5, 160);
type = Stem;
},
{
horizontal = 1;
place = (353, 160);
place = (353, 160);
type = Stem;
},
{
place = (40, 160);
place = (40, 160);
type = Stem;
},
{
place = (398, 160);
place = (398, 160);
type = Stem;
}
);
layerId = "88F21F75-214F-41EE-AE9C-B4AA79D6697C";
shapes = (
{
closed = 1;
nodes = (
(443,-5,o),
(558,115,o),
(558,258,cs),
(558,400,o),
(444,513,o),
(300,513,c),
(300,353,l),
(368,353,o),
(398,298,o),
(398,254,cs),
(398,201,o),
(354,155,o),
(303,155,cs),
(248,155,o),
(200,208,o),
(200,266,cs),
(200,513,l),
(40,513,l),
(40,266,ls),
(40,119,o),
(159,-5,o),
(302,-5,cs)
);
}
);
width = 588;
}
);
note = uni05D8;
unicode = 1496;
},
{
glyphname = uni05D9;
lastChange = "2021-10-06 15:00:21 +0000";
layers = (
{
hints = (
{
horizontal = 1;
place = (237, 270);
place = (237, 270);
type = Stem;
},
{
place = (40, 28);
place = (40, 28);
type = Stem;
}
);
layerId = "0A901A10-6B10-40AA-AC10-6ECA400C9626";
shapes = (
{
closed = 1;
nodes = (
(68,237,l),
(68,507,l),
(40,507,l),
(40,237,l)
);
}
);
width = 108;
},
{
hints = (
{
horizontal = 1;
place = (271, 247);
place = (271, 247);
type = Stem;
},
{
place = (40, 160);
place = (40, 160);
type = Stem;
}
);
layerId = "88F21F75-214F-41EE-AE9C-B4AA79D6697C";
shapes = (
{
closed = 1;
nodes = (
(200,271,l),
(200,518,l),
(40,518,l),
(40,271,l)
);
}
);
width = 240;
}
);
note = uni05D9;
unicode = 1497;
},
{
glyphname = uni05DA;
lastChange = "2021-10-06 15:00:21 +0000";
layers = (
{
hints = (
{
horizontal = 1;
place = (490, 28);
place = (490, 28);
type = Stem;
},
{
place = (333, 28);
place = (333, 28);
type = Stem;
}
);
layerId = "0A901A10-6B10-40AA-AC10-6ECA400C9626";
shapes = (
{
closed = 1;
nodes = (
(361,-130,l),
(361,305,ls),
(361,422,o),
(265,518,o),
(148,518,cs),
(10,518,l),
(10,490,l),
(148,490,ls),
(250,490,o),
(333,407,o),
(333,305,cs),
(333,-130,l)
);
}
);
width = 381;
},
{
hints = (
{
horizontal = 1;
place = (358, 160);
place = (358, 160);
type = Stem;
},
{
place = (253, 160);
place = (253, 160);
type = Stem;
}
);
layerId = "88F21F75-214F-41EE-AE9C-B4AA79D6697C";
shapes = (
{
closed = 1;
nodes = (
(413,-165,l),
(413,278,ls),
(413,430,o),
(325,518,o),
(173,518,cs),
(10,518,l),
(10,358,l),
(173,358,ls),
(217,358,o),
(253,322,o),
(253,278,cs),
(253,-165,l)
);
}
);
width = 433;
}
);
note = uni05DA;
unicode = 1498;
},
{
glyphname = uni05DB;
lastChange = "2021-10-06 15:00:21 +0000";
layers = (
{
hints = (
{
horizontal = 1;
place = (0, 28);
place = (0, 28);
type = Stem;
},
{
horizontal = 1;
place = (490, 28);
place = (490, 28);
type = Stem;
},
{
place = (380, 28);
place = (380, 28);
type = Stem;
}
);
layerId = "0A901A10-6B10-40AA-AC10-6ECA400C9626";
shapes = (
{
closed = 1;
nodes = (
(185,0,ls),
(322,0,o),
(408,130,o),
(408,258,cs),
(408,386,o),
(321,518,o),
(185,518,cs),
(20,518,l),
(20,490,l),
(185,490,ls),
(293,490,o),
(380,386,o),
(380,258,cs),
(380,131,o),
(293,28,o),
(185,28,cs),
(20,28,l),
(20,0,l)
);
}
);
width = 437;
},
{
hints = (
{
horizontal = 1;
place = (0, 160);
place = (0, 160);
type = Stem;
},
{
horizontal = 1;
place = (358, 160);
place = (358, 160);
type = Stem;
},
{
place = (273, 160);
place = (273, 160);
type = Stem;
}
);
layerId = "88F21F75-214F-41EE-AE9C-B4AA79D6697C";
shapes = (
{
closed = 1;
nodes = (
(189,0,ls),
(330,0,o),
(433,121,o),
(433,258,cs),
(433,395,o),
(329,518,o),
(189,518,cs),
(20,518,l),
(20,358,l),
(189,358,ls),
(235,358,o),
(273,313,o),
(273,258,cs),
(273,204,o),
(235,160,o),
(189,160,cs),
(20,160,l),
(20,0,l)
);
}
);
width = 462;
}
);
note = uni05DB;
unicode = 1499;
},
{
glyphname = uni05DC;
lastChange = "2021-10-06 15:00:21 +0000";
layers = (
{
hints = (
{
horizontal = 1;
place = (0, 21);
target = up;
type = BottomGhost;
},
{
horizontal = 1;
place = (490, 28);
place = (490, 28);
type = Stem;
},
{
place = (10, 28);
place = (10, 28);
type = Stem;
}
);
layerId = "0A901A10-6B10-40AA-AC10-6ECA400C9626";
shapes = (
{
closed = 1;
nodes = (
(207,0,l),
(406,518,l),
(38,518,l),
(38,643,l),
(10,643,l),
(10,490,l),
(365,490,l),
(177,0,l)
);
}
);
width = 425;
},
{
hints = (
{
horizontal = 1;
place = (0, 21);
target = up;
type = BottomGhost;
},
{
horizontal = 1;
place = (358, 160);
place = (358, 160);
type = Stem;
},
{
place = (10, 160);
place = (10, 160);
type = Stem;
}
);
layerId = "88F21F75-214F-41EE-AE9C-B4AA79D6697C";
shapes = (
{
closed = 1;
nodes = (
(310,0,l),
(510,518,l),
(170,518,l),
(170,683,l),
(10,683,l),
(10,358,l),
(277,358,l),
(139,0,l)
);
}
);
width = 529;
}
);
note = uni05DC;
unicode = 1500;
},
{
glyphname = uni05DD;
lastChange = "2021-10-06 15:00:21 +0000";
layers = (
{
hints = (
{
horizontal = 1;
place = (0, 28);
place = (0, 28);
type = Stem;
},
{
horizontal = 1;
place = (490, 28);
place = (490, 28);
type = Stem;
},
{
place = (50, 28);
place = (50, 28);
type = Stem;
},
{
place = (434, 28);
place = (434, 28);
type = Stem;
}
);
layerId = "0A901A10-6B10-40AA-AC10-6ECA400C9626";
shapes = (
{
closed = 1;
nodes = (
(462,0,l),
(462,322,ls),
(462,430,o),
(371,518,o),
(260,518,cs),
(50,518,l),
(50,0,l)
);
},
{
closed = 1;
nodes = (
(78,490,l),
(260,490,ls),
(356,490,o),
(434,415,o),
(434,322,cs),
(434,28,l),
(78,28,l)
);
}
);
width = 502;
},
{
hints = (
{
horizontal = 1;
place = (0, 160);
place = (0, 160);
type = Stem;
},
{
place = (50, 160);
place = (50, 160);
type = Stem;
},
{
place = (358, 160);
place = (358, 160);
type = Stem;
}
);
layerId = "88F21F75-214F-41EE-AE9C-B4AA79D6697C";
shapes = (
{
closed = 1;
nodes = (
(518,0,l),
(518,278,ls),
(518,411,o),
(410,518,o),
(278,518,cs),
(50,518,l),
(50,0,l)
);
},
{
closed = 1;
nodes = (
(210,358,l),
(278,358,ls),
(322,358,o),
(358,322,o),
(358,278,cs),
(358,160,l),
(210,160,l)
);
}
);
width = 558;
}
);
note = uni05DD;
unicode = 1501;
},
{
glyphname = uni05DE;
lastChange = "2021-10-06 15:00:21 +0000";
layers = (
{
hints = (
{
horizontal = 1;
place = (0, 28);
place = (0, 28);
type = Stem;
},
{
horizontal = 1;
place = (495, 28);
place = (495, 28);
type = Stem;
},
{
place = (50, 28);
place = (50, 28);
type = Stem;
},
{
place = (481, 28);
place = (481, 28);
type = Stem;
},
{
horizontal = 1;
place = (518, -20);
target = down;
type = TopGhost;
}
);
layerId = "0A901A10-6B10-40AA-AC10-6ECA400C9626";
shapes = (
{
closed = 1;
nodes = (
(78,0,l),
(78,276,ls),
(78,379,o),
(138,495,o),
(280,495,cs),
(429,495,o),
(481,366,o),
(481,263,cs),
(481,130,o),
(393,28,o),
(280,28,c),
(280,0,l),
(422,0,o),
(509,131,o),
(509,265,cs),
(509,397,o),
(425,523,o),
(282,523,cs),
(192,523,o),
(116,473,o),
(78,393,c),
(78,518,l),
(50,518,l),
(50,0,l)
);
}
);
width = 538;
},
{
hints = (
{
horizontal = 1;
place = (0, 160);
place = (0, 160);
type = Stem;
},
{
horizontal = 1;
place = (358, 160);
place = (358, 160);
type = Stem;
},
{
place = (50, 160);
place = (50, 160);
type = Stem;
},
{
place = (416, 160);
place = (416, 160);
type = Stem;
}
);
layerId = "88F21F75-214F-41EE-AE9C-B4AA79D6697C";
shapes = (
{
closed = 1;
nodes = (
(210,0,l),
(210,253,ls),
(210,310,o),
(265,358,o),
(323,358,cs),
(385,358,o),
(416,303,o),
(416,259,cs),
(416,206,o),
(372,160,o),
(318,160,c),
(318,0,l),
(459,0,o),
(576,119,o),
(576,261,cs),
(576,400,o),
(465,518,o),
(324,518,cs),
(285,518,o),
(242,508,o),
(210,488,c),
(210,518,l),
(50,518,l),
(50,0,l)
);
}
);
width = 605;
}
);
note = uni05DE;
unicode = 1502;
},
{
glyphname = uni05DF;
lastChange = "2021-10-06 15:00:21 +0000";
layers = (
{
hints = (
{
horizontal = 1;
place = (518, -20);
target = down;
type = TopGhost;
},
{
place = (50, 28);
place = (50, 28);
type = Stem;
}
);
layerId = "0A901A10-6B10-40AA-AC10-6ECA400C9626";
shapes = (
{
closed = 1;
nodes = (
(78,-130,l),
(78,518,l),
(50,518,l),
(50,-130,l)
);
}
);
width = 128;
},
{
hints = (
{
horizontal = 1;
place = (518, -20);
target = down;
type = TopGhost;
},
{
place = (50, 160);
place = (50, 160);
type = Stem;
}
);
layerId = "88F21F75-214F-41EE-AE9C-B4AA79D6697C";
shapes = (
{
closed = 1;
nodes = (
(210,-165,l),
(210,518,l),
(50,518,l),
(50,-165,l)
);
}
);
width = 260;
}
);
note = uni05DF;
unicode = 1503;
},
{
glyphname = uni05E0;
lastChange = "2021-10-06 15:00:21 +0000";
layers = (
{
hints = (
{
horizontal = 1;
place = (0, 28);
place = (0, 28);
type = Stem;
},
{
horizontal = 1;
place = (490, 28);
place = (490, 28);
type = Stem;
},
{
place = (211, 28);
place = (211, 28);
type = Stem;
}
);
layerId = "0A901A10-6B10-40AA-AC10-6ECA400C9626";
shapes = (
{
closed = 1;
nodes = (
(88,0,ls),
(171,0,o),
(239,68,o),
(239,151,cs),
(239,518,l),
(97,518,l),
(97,490,l),
(211,490,l),
(211,151,ls),
(211,83,o),
(156,28,o),
(88,28,cs),
(20,28,l),
(20,0,l)
);
}
);
width = 278;
},
{
hints = (
{
horizontal = 1;
place = (0, 160);
place = (0, 160);
type = Stem;
},
{
horizontal = 1;
place = (358, 160);
place = (358, 160);
type = Stem;
},
{
place = (129, 160);
place = (129, 160);
type = Stem;
}
);
layerId = "88F21F75-214F-41EE-AE9C-B4AA79D6697C";
shapes = (
{
closed = 1;
nodes = (
(89,0,ls),
(199,0,o),
(289,90,o),
(289,200,cs),
(289,518,l),
(65,518,l),
(65,358,l),
(129,358,l),
(129,200,ls),
(129,178,o),
(111,160,o),
(89,160,cs),
(20,160,l),
(20,0,l)
);
}
);
width = 328;
}
);
note = uni05E0;
unicode = 1504;
},
{
glyphname = uni05E1;
lastChange = "2021-10-06 15:00:21 +0000";
layers = (
{
hints = (
{
horizontal = 1;
place = (-5, 28);
place = (-5, 28);
type = Stem;
},
{
horizontal = 1;
place = (490, 28);
place = (490, 28);
type = Stem;
},
{
place = (40, 28);
place = (40, 28);
type = Stem;
},
{
place = (472, 28);
place = (472, 28);
type = Stem;
}
);
layerId = "0A901A10-6B10-40AA-AC10-6ECA400C9626";
shapes = (
{
closed = 1;
nodes = (
(416,-5,o),
(500,128,o),
(500,265,cs),
(500,401,o),
(418,518,o),
(270,518,cs),
(40,518,l),
(40,259,ls),
(40,124,o),
(127,-5,o),
(271,-5,cs)
);
},
{
closed = 1;
nodes = (
(157,23,o),
(68,129,o),
(68,259,cs),
(68,490,l),
(270,490,ls),
(419,490,o),
(472,366,o),
(472,263,cs),
(472,129,o),
(384,23,o),
(270,23,cs)
);
}
);
width = 530;
},
{
hints = (
{
horizontal = 1;
place = (0, 160);
place = (0, 160);
type = Stem;
},
{
horizontal = 1;
place = (358, 160);
place = (358, 160);
type = Stem;
},
{
place = (40, 160);
place = (40, 160);
type = Stem;
},
{
place = (390, 160);
place = (390, 160);
type = Stem;
}
);
layerId = "88F21F75-214F-41EE-AE9C-B4AA79D6697C";
shapes = (
{
closed = 1;
nodes = (
(439,0,o),
(550,122,o),
(550,263,cs),
(550,403,o),
(440,518,o),
(296,518,cs),
(40,518,l),
(40,271,ls),
(40,124,o),
(157,0,o),
(299,0,cs)
);
},
{
closed = 1;
nodes = (
(241,160,o),
(200,213,o),
(200,271,cs),
(200,358,l),
(296,358,ls),
(361,358,o),
(390,303,o),
(390,259,cs),
(390,206,o),
(348,160,o),
(296,160,cs)
);
}
);
width = 580;
}
);
note = uni05E1;
unicode = 1505;
},
{
glyphname = uni05E2;
lastChange = "2021-10-06 15:00:21 +0000";
layers = (
{
hints = (
{
horizontal = 1;
place = (518, -20);
target = down;
type = TopGhost;
},
{
place = (414, 28);
place = (414, 28);
type = Stem;
}
);
layerId = "0A901A10-6B10-40AA-AC10-6ECA400C9626";
shapes = (
{
closed = 1;
nodes = (
(266,-15,o),
(442,98,o),
(442,370,cs),
(442,518,l),
(414,518,l),
(414,370,ls),
(414,198,o),
(343,85,o),
(197,28,c),
(83,518,l),
(54,518,l),
(171,19,l),
(127,5,o),
(76,-5,o),
(20,-10,c),
(23,-38,l)
);
}
);
width = 482;
},
{
hints = (
{
horizontal = 1;
place = (518, -20);
target = down;
type = TopGhost;
},
{
place = (379, 160);
place = (379, 160);
type = Stem;
}
);
layerId = "88F21F75-214F-41EE-AE9C-B4AA79D6697C";
shapes = (
{
closed = 1;
nodes = (
(365,-75,o),
(539,92,o),
(539,432,cs),
(539,518,l),
(379,518,l),
(379,432,ls),
(379,319,o),
(359,199,o),
(263,129,c),
(183,518,l),
(20,518,l),
(112,67,l),
(87,62,o),
(60,58,o),
(31,56,c),
(45,-104,l)
);
}
);
width = 579;
}
);
note = uni05E2;
unicode = 1506;
},
{
glyphname = uni05E3;
lastChange = "2021-10-06 15:00:21 +0000";
layers = (
{
hints = (
{
horizontal = 1;
place = (490, 28);
place = (490, 28);
type = Stem;
},
{
place = (40, 28);
place = (40, 28);
type = Stem;
},
{
place = (375, 28);
place = (375, 28);
type = Stem;
}
);
layerId = "0A901A10-6B10-40AA-AC10-6ECA400C9626";
shapes = (
{
closed = 1;
nodes = (
(403,-130,l),
(403,317,ls),
(403,428,o),
(312,518,o),
(201,518,cs),
(40,518,l),
(40,243,l),
(68,243,l),
(68,490,l),
(201,490,ls),
(297,490,o),
(375,412,o),
(375,317,cs),
(375,-130,l)
);
}
);
width = 443;
},
{
hints = (
{
horizontal = 1;
place = (358, 160);
place = (358, 160);
type = Stem;
},
{
place = (40, 160);
place = (40, 160);
type = Stem;
},
{
place = (325, 160);
place = (325, 160);
type = Stem;
}
);
layerId = "88F21F75-214F-41EE-AE9C-B4AA79D6697C";
shapes = (
{
closed = 1;
nodes = (
(485,-165,l),
(485,278,ls),
(485,410,o),
(377,518,o),
(245,518,cs),
(40,518,l),
(40,197,l),
(200,197,l),
(200,358,l),
(245,358,ls),
(289,358,o),
(325,322,o),
(325,278,cs),
(325,-165,l)
);
}
);
width = 525;
}
);
note = uni05E3;
unicode = 1507;
},
{
glyphname = uni05E4;
lastChange = "2021-10-06 15:00:21 +0000";
layers = (
{
hints = (
{
horizontal = 1;
place = (0, 28);
place = (0, 28);
type = Stem;
},
{
horizontal = 1;
place = (495, 28);
place = (495, 28);
type = Stem;
},
{
place = (40, 28);
place = (40, 28);
type = Stem;
},
{
place = (471, 28);
place = (471, 28);
type = Stem;
}
);
layerId = "0A901A10-6B10-40AA-AC10-6ECA400C9626";
shapes = (
{
closed = 1;
nodes = (
(270,0,ls),
(411,0,o),
(499,130,o),
(499,262,cs),
(499,396,o),
(410,523,o),
(269,523,cs),
(126,523,o),
(40,394,o),
(40,258,cs),
(40,240,o),
(42,221,o),
(45,202,c),
(72,207,l),
(69,224,o),
(68,242,o),
(68,259,cs),
(68,371,o),
(131,495,o),
(270,495,cs),
(408,495,o),
(471,371,o),
(471,260,cs),
(471,130,o),
(383,28,o),
(270,28,cs),
(112,28,l),
(112,0,l)
);
}
);
width = 518;
},
{
hints = (
{
horizontal = 1;
place = (0, 160);
place = (0, 160);
type = Stem;
},
{
horizontal = 1;
place = (358, 160);
place = (358, 160);
type = Stem;
},
{
place = (162, 38);
place = (162, 38);
type = Stem;
},
{
place = (390, 160);
place = (390, 160);
type = Stem;
}
);
layerId = "88F21F75-214F-41EE-AE9C-B4AA79D6697C";
shapes = (
{
closed = 1;
nodes = (
(300,0,ls),
(441,0,o),
(550,122,o),
(550,262,cs),
(550,404,o),
(438,518,o),
(290,518,cs),
(131,518,o),
(39,384,o),
(39,258,cs),
(39,248,o),
(40,237,o),
(41,227,c),
(201,227,l),
(200,235,o),
(199,242,o),
(199,250,cs),
(199,303,o),
(225,358,o),
(290,358,cs),
(360,358,o),
(390,302,o),
(390,258,cs),
(390,206,o),
(350,160,o),
(300,160,cs),
(162,160,l),
(162,0,l)
);
}
);
width = 569;
}
);
note = uni05E4;
unicode = 1508;
},
{
glyphname = uni05E5;
lastChange = "2021-10-06 15:00:21 +0000";
layers = (
{
hints = (
{
horizontal = 1;
place = (518, -20);
target = down;
type = TopGhost;
},
{
place = (20, 469);
place = (20, 469);
type = Stem;
}
);
layerId = "0A901A10-6B10-40AA-AC10-6ECA400C9626";
shapes = (
{
closed = 1;
nodes = (
(422,-130,l),
(266,142,l),
(489,518,l),
(456,518,l),
(251,170,l),
(52,518,l),
(20,518,l),
(390,-130,l)
);
}
);
width = 509;
},
{
hints = (
{
horizontal = 1;
place = (518, -20);
target = down;
type = TopGhost;
},
{
place = (20, 574);
place = (20, 574);
type = Stem;
}
);
layerId = "88F21F75-214F-41EE-AE9C-B4AA79D6697C";
shapes = (
{
closed = 1;
nodes = (
(594,-165,l),
(392,189,l),
(586,518,l),
(400,518,l),
(300,349,l),
(204,518,l),
(20,518,l),
(410,-165,l)
);
}
);
width = 614;
}
);
note = uni05E5;
unicode = 1509;
},
{
glyphname = uni05E6;
lastChange = "2021-10-06 15:00:21 +0000";
layers = (
{
hints = (
{
horizontal = 1;
place = (0, 25);
place = (0, 25);
type = Stem;
},
{
horizontal = 1;
place = (518, -20);
target = down;
type = TopGhost;
},
{
place = (446, 28);
place = (446, 28);
type = Stem;
},
{
horizontal = 1;
place = (0, 28);
place = (0, 28);
type = Stem;
}
);
layerId = "0A901A10-6B10-40AA-AC10-6ECA400C9626";
shapes = (
{
closed = 1;
nodes = (
(486,0,l),
(486,24,l),
(423,60,o),
(359,108,o),
(298,167,c),
(377,235,o),
(462,415,o),
(474,518,c),
(446,518,l),
(434,422,o),
(351,248,o),
(278,186,c),
(180,283,o),
(92,403,o),
(50,518,c),
(20,518,l),
(84,333,o),
(262,136,o),
(426,28,c),
(39,28,l),
(39,0,l)
);
}
);
width = 506;
},
{
hints = (
{
horizontal = 1;
place = (0, 160);
place = (0, 160);
type = Stem;
},
{
horizontal = 1;
place = (518, -20);
target = down;
type = TopGhost;
},
{
place = (20, 552);
place = (20, 552);
type = Stem;
}
);
layerId = "88F21F75-214F-41EE-AE9C-B4AA79D6697C";
shapes = (
{
closed = 1;
nodes = (
(552,0,l),
(552,149,l),
(523,163,o),
(476,192,o),
(447,213,c),
(497,276,o),
(558,380,o),
(572,518,c),
(411,518,l),
(401,446,o),
(371,377,o),
(327,319,c),
(271,379,o),
(226,446,o),
(193,518,c),
(20,518,l),
(70,381,o),
(154,259,o),
(260,160,c),
(48,160,l),
(48,0,l)
);
}
);
width = 592;
}
);
note = uni05E6;
unicode = 1510;
},
{
glyphname = uni05E7;
lastChange = "2021-10-06 15:00:21 +0000";
layers = (
{
hints = (
{
horizontal = 1;
place = (0, 28);
place = (0, 28);
type = Stem;
},
{
horizontal = 1;
place = (490, 28);
place = (490, 28);
type = Stem;
},
{
place = (53, 28);
place = (53, 28);
type = Stem;
},
{
place = (428, 28);
place = (428, 28);
type = Stem;
}
);
layerId = "0A901A10-6B10-40AA-AC10-6ECA400C9626";
shapes = (
{
closed = 1;
nodes = (
(366,0,o),
(456,127,o),
(456,259,cs),
(456,518,l),
(50,518,l),
(50,490,l),
(428,490,l),
(428,259,ls),
(428,129,o),
(339,28,o),
(226,28,c),
(226,0,l)
);
},
{
closed = 1;
nodes = (
(81,-130,l),
(81,357,l),
(53,357,l),
(53,-130,l)
);
}
);
width = 495;
},
{
hints = (
{
horizontal = 1;
place = (2, 160);
place = (2, 160);
type = Stem;
},
{
horizontal = 1;
place = (358, 160);
place = (358, 160);
type = Stem;
},
{
place = (50, 160);
place = (50, 160);
type = Stem;
},
{
place = (374, 160);
place = (374, 160);
type = Stem;
}
);
layerId = "88F21F75-214F-41EE-AE9C-B4AA79D6697C";
shapes = (
{
closed = 1;
nodes = (
(439,2,o),
(534,131,o),
(534,308,cs),
(534,518,l),
(50,518,l),
(50,358,l),
(374,358,l),
(374,308,ls),
(374,221,o),
(348,162,o),
(253,162,c),
(253,2,l)
);
},
{
closed = 1;
nodes = (
(210,-165,l),
(210,275,l),
(50,275,l),
(50,-165,l)
);
}
);
width = 573;
}
);
note = uni05E7;
unicode = 1511;
},
{
glyphname = uni05E8;
lastChange = "2021-10-06 15:00:21 +0000";
layers = (
{
hints = (
{
horizontal = 1;
place = (0, 21);
target = up;
type = BottomGhost;
},
{
horizontal = 1;
place = (490, 28);
place = (490, 28);
type = Stem;
},
{
place = (348, 28);
place = (348, 28);
type = Stem;
}
);
layerId = "0A901A10-6B10-40AA-AC10-6ECA400C9626";
shapes = (
{
closed = 1;
nodes = (
(376,0,l),
(376,317,ls),
(376,428,o),
(285,518,o),
(174,518,cs),
(10,518,l),
(10,490,l),
(174,490,ls),
(270,490,o),
(348,412,o),
(348,317,cs),
(348,0,l)
);
}
);
width = 416;
},
{
hints = (
{
horizontal = 1;
place = (0, 21);
target = up;
type = BottomGhost;
},
{
horizontal = 1;
place = (358, 160);
place = (358, 160);
type = Stem;
},
{
place = (262, 160);
place = (262, 160);
type = Stem;
}
);
layerId = "88F21F75-214F-41EE-AE9C-B4AA79D6697C";
shapes = (
{
closed = 1;
nodes = (
(422,0,l),
(422,278,ls),
(422,410,o),
(314,518,o),
(182,518,cs),
(10,518,l),
(10,358,l),
(182,358,ls),
(226,358,o),
(262,322,o),
(262,278,cs),
(262,0,l)
);
}
);
width = 462;
}
);
note = uni05E8;
unicode = 1512;
},
{
glyphname = uni05E9;
lastChange = "2021-10-06 15:00:21 +0000";
layers = (
{
hints = (
{
horizontal = 1;
place = (0, 28);
place = (0, 28);
type = Stem;
},
{
horizontal = 1;
place = (153, 28);
place = (153, 28);
type = Stem;
},
{
horizontal = 1;
place = (518, -20);
target = down;
type = TopGhost;
},
{
place = (283, 28);
place = (283, 28);
type = Stem;
},
{
place = (500, 28);
place = (500, 28);
type = Stem;
}
);
layerId = "0A901A10-6B10-40AA-AC10-6ECA400C9626";
shapes = (
{
closed = 1;
nodes = (
(314,0,ls),
(444,0,o),
(528,118,o),
(528,240,cs),
(528,518,l),
(500,518,l),
(500,240,ls),
(500,121,o),
(418,28,o),
(314,28,cs),
(117,28,l),
(99,153,l),
(207,153,o),
(311,180,o),
(311,301,cs),
(311,518,l),
(283,518,l),
(283,301,ls),
(283,198,o),
(190,181,o),
(95,181,c),
(48,518,l),
(20,518,l),
(92,0,l)
);
}
);
width = 567;
},
{
hints = (
{
horizontal = 1;
place = (0, 160);
place = (0, 160);
type = Stem;
},
{
horizontal = 1;
place = (185, 160);
place = (185, 160);
type = Stem;
},
{
horizontal = 1;
place = (518, -20);
target = down;
type = TopGhost;
},
{
place = (264, 160);
place = (264, 160);
type = Stem;
},
{
place = (473, 160);
place = (473, 160);
type = Stem;
}
);
layerId = "88F21F75-214F-41EE-AE9C-B4AA79D6697C";
shapes = (
{
closed = 1;
nodes = (
(354,0,ls),
(529,0,o),
(633,114,o),
(633,306,cs),
(633,518,l),
(473,518,l),
(473,306,ls),
(473,224,o),
(421,160,o),
(354,160,cs),
(224,160,l),
(221,185,l),
(336,185,o),
(424,267,o),
(424,374,cs),
(424,518,l),
(264,518,l),
(264,401,ls),
(264,358,o),
(241,345,o),
(202,345,c),
(181,518,l),
(20,518,l),
(82,0,l)
);
}
);
width = 672;
}
);
note = uni05E9;
unicode = 1513;
},
{
glyphname = uni05EA;
lastChange = "2021-10-06 15:00:21 +0000";
layers = (
{
hints = (
{
horizontal = 1;
place = (0, 28);
place = (0, 28);
type = Stem;
},
{
horizontal = 1;
place = (490, 28);
place = (490, 28);
type = Stem;
},
{
place = (113, 28);
place = (113, 28);
type = Stem;
},
{
place = (466, 28);
place = (466, 28);
type = Stem;
}
);
layerId = "0A901A10-6B10-40AA-AC10-6ECA400C9626";
shapes = (
{
closed = 1;
nodes = (
(141,0,l),
(141,490,l),
(293,490,ls),
(389,490,o),
(466,412,o),
(466,317,cs),
(466,0,l),
(494,0,l),
(494,317,ls),
(494,428,o),
(404,518,o),
(293,518,cs),
(42,518,l),
(42,490,l),
(113,490,l),
(113,28,l),
(20,28,l),
(20,0,l)
);
}
);
width = 533;
},
{
hints = (
{
horizontal = 1;
place = (0, 160);
place = (0, 160);
type = Stem;
},
{
horizontal = 1;
place = (358, 160);
place = (358, 160);
type = Stem;
},
{
place = (78, 154);
place = (78, 154);
type = Stem;
},
{
place = (350, 160);
place = (350, 160);
type = Stem;
}
);
layerId = "88F21F75-214F-41EE-AE9C-B4AA79D6697C";
shapes = (
{
closed = 1;
nodes = (
(232,0,l),
(232,358,l),
(270,358,ls),
(314,358,o),
(350,322,o),
(350,278,cs),
(350,0,l),
(510,0,l),
(510,278,ls),
(510,430,o),
(422,518,o),
(270,518,cs),
(20,518,l),
(20,358,l),
(78,358,l),
(78,160,l),
(20,160,l),
(20,0,l)
);
}
);
width = 549;
}
);
note = uni05EA;
unicode = 1514;
},
{
glyphname = zero;
lastChange = "2021-10-06 21:24:32 +0000";
layers = (
{
hints = (
{
horizontal = 1;
origin = (0,11);
target = (1,11);
type = Stem;
},
{
horizontal = 1;
origin = (0,5);
target = (1,5);
type = Stem;
},
{
origin = (0,8);
target = (1,2);
type = Stem;
},
{
origin = (1,8);
target = (0,2);
type = Stem;
}
);
layerId = "0A901A10-6B10-40AA-AC10-6ECA400C9626";
shapes = (
{
closed = 1;
nodes = (
(354,-5,o),
(438,132,o),
(438,342,cs),
(438,572,o),
(354,690,o),
(233,690,cs),
(113,690,o),
(30,572,o),
(30,341,cs),
(30,131,o),
(114,-5,o),
(234,-5,cs)
);
},
{
closed = 1;
nodes = (
(130,21,o),
(60,148,o),
(60,342,cs),
(60,555,o),
(131,664,o),
(234,664,cs),
(338,664,o),
(408,555,o),
(408,342,cs),
(408,148,o),
(337,21,o),
(233,21,cs)
);
}
);
width = 468;
},
{
hints = (
{
horizontal = 1;
origin = (0,11);
target = (1,11);
type = Stem;
},
{
horizontal = 1;
origin = (0,5);
target = (1,5);
type = Stem;
},
{
origin = (0,8);
target = (1,2);
type = Stem;
},
{
origin = (1,8);
target = (0,2);
type = Stem;
}
);
layerId = "88F21F75-214F-41EE-AE9C-B4AA79D6697C";
shapes = (
{
closed = 1;
nodes = (
(398,0,o),
(483,120,o),
(483,354,cs),
(483,586,o),
(399,690,o),
(255,690,cs),
(115,690,o),
(30,592,o),
(30,355,cs),
(30,119,o),
(114,0,o),
(256,0,cs)
);
},
{
closed = 1;
nodes = (
(213,158,o),
(189,221,o),
(189,345,cs),
(189,466,o),
(212,532,o),
(256,532,cs),
(300,532,o),
(324,467,o),
(324,346,cs),
(324,222,o),
(299,158,o),
(256,158,cs)
);
}
);
width = 513;
}
);
note = zero;
unicode = 48;
},
{
glyphname = one;
lastChange = "2021-10-06 21:23:17 +0000";
layers = (
{
hints = (
{
horizontal = 1;
origin = (0,6);
target = up;
type = BottomGhost;
},
{
origin = (0,6);
target = (0,0);
type = Stem;
},
{
origin = (0,4);
target = (0,0);
type = Stem;
}
);
layerId = "0A901A10-6B10-40AA-AC10-6ECA400C9626";
shapes = (
{
closed = 1;
nodes = (
(161,0,l),
(161,680,l),
(134,680,l),
(20,607,l),
(20,574,l),
(133,646,l),
(133,0,l)
);
}
);
width = 211;
},
{
hints = (
{
horizontal = 1;
place = (0, 21);
target = up;
type = BottomGhost;
},
{
place = (169, 160);
place = (169, 160);
type = Stem;
}
);
layerId = "88F21F75-214F-41EE-AE9C-B4AA79D6697C";
shapes = (
{
closed = 1;
nodes = (
(317,0,l),
(317,680,l),
(190,680,l),
(20,566,l),
(20,406,l),
(157,492,l),
(157,0,l)
);
}
);
width = 367;
}
);
metricRight = N;
note = one;
unicode = 49;
},
{
glyphname = two;
lastChange = "2021-12-27 17:28:57 +0000";
layers = (
{
hints = (
{
horizontal = 1;
place = (0, 28);
place = (0, 28);
type = Stem;
},
{
horizontal = 1;
place = (580, 28);
place = (580, 28);
type = Stem;
},
{
place = (21, 28);
place = (21, 28);
type = Stem;
},
{
place = (370, 28);
place = (370, 28);
type = Stem;
}
);
layerId = "0A901A10-6B10-40AA-AC10-6ECA400C9626";
shapes = (
{
closed = 1;
nodes = (
(412,0,l),
(412,28,l),
(58,28,l),
(220,217,ls),
(315,327,o),
(415,427,o),
(415,533,cs),
(415,637,o),
(330,690,o),
(230,690,cs),
(113,690,o),
(49,617,o),
(38,496,c),
(66,496,l),
(76,617,o),
(148,663,o),
(233,663,cs),
(316,663,o),
(387,620,o),
(387,533,cs),
(387,436,o),
(288,337,o),
(199,234,cs),
(20,26,l),
(20,0,l)
);
}
);
width = 436;
},
{
hints = (
{
horizontal = 1;
place = (0, 160);
place = (0, 160);
type = Stem;
},
{
horizontal = 1;
place = (443, 160);
place = (443, 160);
type = Stem;
},
{
place = (20, 160);
place = (20, 160);
type = Stem;
},
{
place = (280, 159);
place = (280, 159);
type = Stem;
}
);
layerId = "88F21F75-214F-41EE-AE9C-B4AA79D6697C";
shapes = (
{
closed = 1;
nodes = (
(424,0,l),
(424,160,l),
(235,160,l),
(351,301,ls),
(418,383,o),
(436,431,o),
(436,493,cs),
(436,634,o),
(341,690,o),
(237,690,cs),
(105,690,o),
(29,602,o),
(17,472,c),
(177,472,l),
(182,509,o),
(198,532,o),
(230,532,cs),
(256,532,o),
(277,517,o),
(277,484,cs),
(277,431,o),
(217,370,o),
(155,296,cs),
(20,136,l),
(20,0,l)
);
}
);
width = 469;
}
);
note = two;
unicode = 50;
},
{
glyphname = three;
lastChange = "2021-12-27 17:28:27 +0000";
layers = (
{
hints = (
{
horizontal = 1;
place = (-5, 28);
place = (-5, 28);
type = Stem;
},
{
horizontal = 1;
place = (310, 28);
place = (310, 28);
type = Stem;
},
{
horizontal = 1;
place = (580, 28);
place = (580, 28);
type = Stem;
},
{
place = (30, 28);
place = (30, 28);
type = Stem;
},
{
place = (410, 28);
place = (410, 28);
type = Stem;
},
{
place = (391, 28);
place = (391, 28);
type = Stem;
}
);
layerId = "0A901A10-6B10-40AA-AC10-6ECA400C9626";
shapes = (
{
closed = 1;
nodes = (
(364,0,o),
(455,78,o),
(455,193,cs),
(455,282,o),
(403,350,o),
(321,376,c),
(384,402,o),
(423,462,o),
(423,531,cs),
(423,624,o),
(347,690,o),
(241,690,cs),
(123,690,o),
(42,609,o),
(42,494,c),
(70,494,l),
(70,595,o),
(138,662,o),
(240,662,cs),
(333,662,o),
(395,607,o),
(395,529,cs),
(395,453,o),
(336,388,o),
(256,388,cs),
(241,388,l),
(241,360,l),
(257,360,ls),
(358,360,o),
(427,289,o),
(427,194,cs),
(427,92,o),
(347,28,o),
(241,28,cs),
(131,28,o),
(58,95,o),
(58,196,c),
(30,196,l),
(30,81,o),
(118,0,o),
(243,0,cs)
);
}
);
width = 485;
},
{
hints = (
{
horizontal = 1;
place = (0, 145);
place = (0, 145);
type = Stem;
},
{
horizontal = 1;
place = (255, 103);
place = (255, 103);
type = Stem;
},
{
horizontal = 1;
place = (463, 140);
place = (463, 140);
type = Stem;
},
{
place = (291, 166);
place = (291, 166);
type = Stem;
},
{
place = (284, 159);
place = (284, 159);
type = Stem;
}
);
layerId = "88F21F75-214F-41EE-AE9C-B4AA79D6697C";
shapes = (
{
closed = 1;
nodes = (
(399,0,o),
(506,74,o),
(506,208,cs),
(506,283,o),
(473,337,o),
(405,368,c),
(451,393,o),
(481,449,o),
(481,510,cs),
(481,619,o),
(385,690,o),
(255,690,cs),
(151,690,o),
(72,644,o),
(37,570,c),
(172,506,l),
(189,534,o),
(213,550,o),
(251,550,cs),
(297,550,o),
(321,526,o),
(321,489,cs),
(321,449,o),
(294,426,o),
(227,426,cs),
(197,426,l),
(197,323,l),
(227,323,ls),
(286,323,o),
(331,285,o),
(331,226,cs),
(331,175,o),
(297,140,o),
(249,140,cs),
(211,140,o),
(179,161,o),
(164,186,c),
(30,122,l),
(75,44,o),
(150,0,o),
(258,0,cs)
);
}
);
width = 536;
}
);
note = three;
unicode = 51;
},
{
glyphname = four;
lastChange = "2021-12-27 17:28:39 +0000";
layers = (
{
hints = (
{
horizontal = 1;
place = (134, 28);
place = (134, 28);
type = Stem;
},
{
place = (20, 33);
place = (20, 33);
type = Stem;
},
{
place = (327, 28);
place = (327, 28);
type = Stem;
},
{
horizontal = 1;
place = (0, 162);
place = (0, 162);
type = Stem;
}
);
layerId = "0A901A10-6B10-40AA-AC10-6ECA400C9626";
shapes = (
{
closed = 1;
nodes = (
(405,0,l),
(405,184,l),
(509,184,l),
(509,212,l),
(405,212,l),
(405,680,l),
(374,680,l),
(20,215,l),
(20,184,l),
(377,184,l),
(377,0,l)
);
},
{
closed = 1;
nodes = (
(377,635,l),
(377,212,l),
(53,212,l)
);
}
);
width = 525;
},
{
hints = (
{
horizontal = 1;
place = (0, 21);
target = up;
type = BottomGhost;
},
{
horizontal = 1;
place = (68, 160);
place = (68, 160);
type = Stem;
},
{
place = (278, 160);
place = (278, 160);
type = Stem;
}
);
layerId = "88F21F75-214F-41EE-AE9C-B4AA79D6697C";
shapes = (
{
closed = 1;
nodes = (
(438,0,l),
(438,118,l),
(498,118,l),
(498,278,l),
(438,278,l),
(438,680,l),
(278,680,l),
(20,268,l),
(20,118,l),
(278,118,l),
(278,0,l)
);
},
{
closed = 1;
nodes = (
(278,440,l),
(278,278,l),
(188,278,l)
);
}
);
width = 517;
}
);
note = four;
unicode = 52;
},
{
glyphname = five;
lastChange = "2021-12-27 17:20:38 +0000";
layers = (
{
hints = (
{
horizontal = 1;
place = (-5, 28);
place = (-5, 28);
type = Stem;
},
{
horizontal = 1;
place = (385, 28);
place = (385, 28);
type = Stem;
},
{
horizontal = 1;
place = (575, 28);
place = (575, 28);
type = Stem;
},
{
place = (40, 28);
place = (40, 28);
type = Stem;
},
{
place = (421, 28);
place = (421, 28);
type = Stem;
}
);
layerId = "0A901A10-6B10-40AA-AC10-6ECA400C9626";
shapes = (
{
closed = 1;
nodes = (
(369,-5,o),
(449,82,o),
(449,204,cs),
(449,326,o),
(369,413,o),
(244,413,cs),
(179,413,o),
(125,389,o),
(89,346,c),
(111,652,l),
(409,652,l),
(409,680,l),
(86,680,l),
(54,286,l),
(83,286,l),
(111,349,o),
(167,385,o),
(244,385,cs),
(374,385,o),
(421,287,o),
(421,204,cs),
(421,120,o),
(374,23,o),
(244,23,cs),
(114,23,o),
(68,120,o),
(68,204,c),
(40,204,l),
(40,81,o),
(120,-5,o),
(244,-5,cs)
);
}
);
width = 478;
},
{
hints = (
{
horizontal = 1;
origin = (0,30);
target = (0,23);
type = Stem;
},
{
horizontal = 1;
origin = (0,17);
target = (0,5);
type = Stem;
},
{
horizontal = 1;
origin = (0,9);
target = (0,12);
type = Stem;
},
{
horizontal = 1;
origin = (0,30);
target = (0,27);
type = Stem;
},
{
origin = (0,27);
target = (0,26);
type = Stem;
},
{
origin = (0,20);
target = (0,2);
type = Stem;
}
);
layerId = "88F21F75-214F-41EE-AE9C-B4AA79D6697C";
shapes = (
{
closed = 1;
nodes = (
(371,0,o),
(459,87,o),
(459,206,cs),
(459,314,o),
(386,418,o),
(272,418,cs),
(259,418,o),
(242,417,o),
(226,413,c),
(240,520,l),
(432,520,l),
(432,680,l),
(98,680,l),
(48,279,l),
(201,249,l),
(212,263,o),
(230,273,o),
(249,273,cs),
(283,273,o),
(311,245,o),
(311,211,cs),
(311,177,o),
(283,150,o),
(249,150,cs),
(215,150,o),
(188,177,o),
(188,211,c),
(40,211,l),
(40,90,o),
(127,0,o),
(249,0,cs)
);
}
);
width = 488;
}
);
note = five;
unicode = 53;
},
{
glyphname = six;
lastChange = "2021-12-27 17:25:19 +0000";
layers = (
{
hints = (
{
horizontal = 1;
place = (-5, 28);
place = (-5, 28);
type = Stem;
},
{
horizontal = 1;
place = (345, 28);
place = (345, 28);
type = Stem;
},
{
place = (30, 28);
place = (30, 28);
type = Stem;
},
{
place = (380, 28);
place = (380, 28);
type = Stem;
}
);
layerId = "0A901A10-6B10-40AA-AC10-6ECA400C9626";
shapes = (
{
closed = 1;
nodes = (
(323,-5,o),
(408,80,o),
(408,184,cs),
(408,288,o),
(329,373,o),
(225,373,cs),
(198,373,o),
(166,368,o),
(139,352,c),
(371,680,l),
(337,680,l),
(68,299,ls),
(44,265,o),
(30,225,o),
(30,184,cs),
(30,80,o),
(115,-5,o),
(219,-5,cs)
);
},
{
closed = 1;
nodes = (
(130,23,o),
(58,95,o),
(58,184,cs),
(58,271,o),
(132,345,o),
(219,345,cs),
(308,345,o),
(380,273,o),
(380,184,cs),
(380,95,o),
(308,23,o),
(219,23,cs)
);
}
);
width = 437;
},
{
hints = (
{
horizontal = 1;
place = (0, 160);
place = (0, 160);
type = Stem;
},
{
place = (30, 160);
place = (30, 160);
type = Stem;
},
{
place = (340, 160);
place = (340, 160);
type = Stem;
}
);
layerId = "88F21F75-214F-41EE-AE9C-B4AA79D6697C";
shapes = (
{
closed = 1;
nodes = (
(395,0,o),
(500,105,o),
(500,235,cs),
(500,333,o),
(433,418,o),
(344,443,cs),
(337,445,o),
(330,447,o),
(324,448,c),
(486,680,l),
(291,680,l),
(79,378,ls),
(49,336,o),
(30,287,o),
(30,233,cs),
(30,105,o),
(135,0,o),
(265,0,cs)
);
},
{
closed = 1;
nodes = (
(224,160,o),
(190,194,o),
(190,235,cs),
(190,283,o),
(231,310,o),
(265,310,cs),
(306,310,o),
(340,276,o),
(340,235,cs),
(340,194,o),
(306,160,o),
(265,160,cs)
);
}
);
width = 529;
}
);
note = six;
unicode = 54;
},
{
glyphname = seven;
lastChange = "2021-12-27 17:21:48 +0000";
layers = (
{
hints = (
{
horizontal = 1;
place = (0, 21);
target = up;
type = BottomGhost;
},
{
horizontal = 1;
place = (575, 28);
place = (575, 28);
type = Stem;
},
{
place = (10, 365);
place = (10, 365);
type = Stem;
}
);
layerId = "0A901A10-6B10-40AA-AC10-6ECA400C9626";
shapes = (
{
closed = 1;
nodes = (
(93,0,l),
(395,653,l),
(395,680,l),
(30,680,l),
(30,652,l),
(387,652,l),
(374,673,l),
(62,0,l)
);
}
);
width = 411;
},
{
hints = (
{
horizontal = 1;
place = (0, 21);
target = up;
type = BottomGhost;
},
{
horizontal = 1;
place = (443, 160);
place = (443, 160);
type = Stem;
},
{
place = (10, 423);
place = (10, 423);
type = Stem;
}
);
layerId = "88F21F75-214F-41EE-AE9C-B4AA79D6697C";
shapes = (
{
closed = 1;
nodes = (
(218,0,l),
(463,533,l),
(463,680,l),
(40,680,l),
(40,520,l),
(325,520,l),
(299,561,l),
(41,0,l)
);
}
);
width = 479;
}
);
note = seven;
unicode = 55;
},
{
glyphname = eight;
lastChange = "2021-12-27 17:30:19 +0000";
layers = (
{
hints = (
{
horizontal = 1;
place = (-5, 28);
place = (-5, 28);
type = Stem;
},
{
horizontal = 1;
place = (310, 28);
place = (310, 28);
type = Stem;
},
{
horizontal = 1;
place = (580, 28);
place = (580, 28);
type = Stem;
},
{
place = (49, 28);
place = (49, 28);
type = Stem;
},
{
place = (393, 28);
place = (393, 28);
type = Stem;
},
{
place = (30, 28);
place = (30, 28);
type = Stem;
},
{
place = (412, 28);
place = (412, 28);
type = Stem;
}
);
layerId = "0A901A10-6B10-40AA-AC10-6ECA400C9626";
shapes = (
{
closed = 1;
nodes = (
(358,-5,o),
(440,82,o),
(440,189,cs),
(440,280,o),
(384,357,o),
(304,377,c),
(374,398,o),
(421,459,o),
(421,529,cs),
(421,620,o),
(340,690,o),
(235,690,cs),
(131,690,o),
(49,621,o),
(49,532,cs),
(49,459,o),
(99,397,o),
(173,377,c),
(88,357,o),
(30,281,o),
(30,190,cs),
(30,83,o),
(113,-5,o),
(235,-5,cs)
);
},
{
closed = 1;
nodes = (
(129,23,o),
(58,98,o),
(58,188,cs),
(58,288,o),
(133,364,o),
(235,364,cs),
(337,364,o),
(412,288,o),
(412,188,cs),
(412,98,o),
(341,23,o),
(235,23,cs)
);
},
{
closed = 1;
nodes = (
(144,388,o),
(77,447,o),
(77,525,cs),
(77,602,o),
(146,662,o),
(235,662,cs),
(324,662,o),
(393,603,o),
(393,526,cs),
(393,448,o),
(325,388,o),
(235,388,cs)
);
}
);
width = 470;
},
{
hints = (
{
horizontal = 1;
place = (0, 143);
place = (0, 143);
type = Stem;
},
{
horizontal = 1;
place = (256, 122);
place = (256, 122);
type = Stem;
},
{
horizontal = 1;
place = (463, 140);
place = (463, 140);
type = Stem;
},
{
place = (43, 154);
place = (43, 154);
type = Stem;
},
{
place = (306, 154);
place = (306, 154);
type = Stem;
},
{
place = (30, 154);
place = (30, 154);
type = Stem;
},
{
place = (293, 154);
place = (293, 154);
type = Stem;
}
);
layerId = "88F21F75-214F-41EE-AE9C-B4AA79D6697C";
shapes = (
{
closed = 1;
nodes = (
(395,-5,o),
(500,100,o),
(500,230,cs),
(500,296,o),
(473,356,o),
(429,398,c),
(452,427,o),
(466,464,o),
(466,507,cs),
(466,620,o),
(371,690,o),
(264,690,cs),
(157,690,o),
(62,620,o),
(62,507,cs),
(62,463,o),
(76,425,o),
(100,396,c),
(57,353,o),
(30,293,o),
(30,228,cs),
(30,100,o),
(135,-5,o),
(265,-5,cs)
);
},
{
closed = 1;
nodes = (
(224,155,o),
(190,189,o),
(190,230,cs),
(190,278,o),
(231,305,o),
(265,305,cs),
(306,305,o),
(340,271,o),
(340,230,cs),
(340,189,o),
(306,155,o),
(265,155,cs)
);
},
{
closed = 1;
nodes = (
(238,465,o),
(216,480,o),
(216,507,cs),
(216,534,o),
(239,550,o),
(264,550,cs),
(289,550,o),
(312,534,o),
(312,507,cs),
(312,480,o),
(290,465,o),
(264,465,cs)
);
}
);
width = 489;
}
);
note = eight;
unicode = 56;
},
{
glyphname = fraction;
lastChange = "2021-12-27 21:21:55 +0000";
layers = (
{
layerId = "0A901A10-6B10-40AA-AC10-6ECA400C9626";
shapes = (
{
closed = 1;
nodes = (
(31,0,l),
(396,680,l),
(366,680,l),
(0,0,l)
);
}
);
width = 396;
},
{
layerId = "88F21F75-214F-41EE-AE9C-B4AA79D6697C";
shapes = (
{
closed = 1;
nodes = (
(177,0,l),
(542,680,l),
(366,680,l),
(0,0,l)
);
}
);
width = 542;
}
);
unicode = 8260;
},
{
glyphname = onesuperior;
lastChange = "2021-12-27 21:16:58 +0000";
layers = (
{
hints = (
{
horizontal = 1;
origin = (0,6);
target = up;
type = BottomGhost;
},
{
origin = (0,6);
target = (0,0);
type = Stem;
},
{
origin = (0,4);
target = (0,0);
type = Stem;
}
);
layerId = "0A901A10-6B10-40AA-AC10-6ECA400C9626";
shapes = (
{
closed = 1;
nodes = (
(105,340,l),
(105,680,l),
(77,680,l),
(20,644,l),
(20,612,l),
(77,648,l),
(77,340,l)
);
}
);
width = 155;
},
{
hints = (
{
horizontal = 1;
place = (356, 21);
target = up;
type = BottomGhost;
},
{
place = (80.478, 76.192);
place = (80.478, 76.192);
type = Stem;
}
);
layerId = "88F21F75-214F-41EE-AE9C-B4AA79D6697C";
shapes = (
{
closed = 1;
nodes = (
(215,356,l),
(215,680,l),
(100,680,l),
(20,626,l),
(20,499,l),
(85,540,l),
(85,356,l)
);
}
);
width = 265;
}
);
metricLeft = one;
metricRight = one;
unicode = 185;
},
{
glyphname = twosuperior;
lastChange = "2021-12-27 21:18:49 +0000";
layers = (
{
hints = (
{
horizontal = 1;
place = (345, 14);
place = (345, 14);
type = Stem;
},
{
horizontal = 1;
place = (635, 14);
place = (635, 14);
type = Stem;
},
{
place = (10.5, 14);
place = (10.5, 14);
type = Stem;
},
{
place = (185, 14);
place = (185, 14);
type = Stem;
}
);
layerId = "0A901A10-6B10-40AA-AC10-6ECA400C9626";
shapes = (
{
closed = 1;
nodes = (
(227,341,l),
(227,369,l),
(57,369,l),
(129,444,ls),
(189,506,o),
(223,545,o),
(223,596,cs),
(223,645,o),
(190,690,o),
(121,690,cs),
(62,690,o),
(20,654,o),
(20,593,c),
(47,593,l),
(47,643,o),
(82,662,o),
(122,662,cs),
(170,662,o),
(195,634,o),
(195,596,cs),
(195,548,o),
(162,514,o),
(102,452,cs),
(21,368,l),
(21,341,l)
);
}
);
width = 248;
},
{
layerId = "88F21F75-214F-41EE-AE9C-B4AA79D6697C";
shapes = (
{
closed = 1;
nodes = (
(263,355,l),
(263,455,l),
(175,455,l),
(214,495,ls),
(249,531,o),
(260,562,o),
(260,593,cs),
(260,649,o),
(218,690,o),
(145,690,cs),
(68,690,o),
(17,645,o),
(17,571,c),
(114,571,l),
(114,602,o),
(122,609,o),
(136,609,cs),
(151,609,o),
(157,601,o),
(157,585,cs),
(157,557,o),
(119,527,o),
(73,484,cs),
(30,443,l),
(30,355,l)
);
}
);
width = 296;
}
);
metricLeft = two;
metricRight = two;
unicode = 178;
},
{
glyphname = threesuperior;
lastChange = "2021-12-27 21:21:18 +0000";
layers = (
{
hints = (
{
horizontal = 1;
place = (342.5, 14);
place = (342.5, 14);
type = Stem;
},
{
horizontal = 1;
place = (500, 14);
place = (500, 14);
type = Stem;
},
{
horizontal = 1;
place = (635, 14);
place = (635, 14);
type = Stem;
},
{
place = (15, 14);
place = (15, 14);
type = Stem;
},
{
place = (205, 14);
place = (205, 14);
type = Stem;
},
{
place = (195.5, 14);
place = (195.5, 14);
type = Stem;
}
);
layerId = "0A901A10-6B10-40AA-AC10-6ECA400C9626";
shapes = (
{
closed = 1;
nodes = (
(197,345,o),
(243,381,o),
(243,442,cs),
(243,489,o),
(219,524,o),
(178,535,c),
(208,549,o),
(227,578,o),
(227,611,cs),
(227,657,o),
(189,690,o),
(136,690,cs),
(77,690,o),
(36,650,o),
(36,592,c),
(64,592,l),
(64,637,o),
(90,662,o),
(135,662,cs),
(176,662,o),
(199,643,o),
(199,610,cs),
(199,572,o),
(173,546,o),
(133,546,cs),
(106,546,l),
(106,518,l),
(134,518,ls),
(183,518,o),
(217,489,o),
(217,446,cs),
(217,400,o),
(185,373,o),
(134,373,cs),
(89,373,o),
(58,403,o),
(58,443,c),
(30,443,l),
(30,388,o),
(71,345,o),
(134,345,cs)
);
}
);
width = 273;
},
{
layerId = "88F21F75-214F-41EE-AE9C-B4AA79D6697C";
shapes = (
{
closed = 1;
nodes = (
(219,345,o),
(268,386,o),
(268,449,cs),
(268,489,o),
(249,514,o),
(209,529,c),
(238,539,o),
(256,567,o),
(256,602,cs),
(256,654,o),
(211,690,o),
(145,690,cs),
(87,690,o),
(43,662,o),
(30,618,c),
(114,587,l),
(115,603,o),
(126,615,o),
(141,615,cs),
(155,615,o),
(165,605,o),
(165,589,cs),
(165,571,o),
(150,558,o),
(129,558,cs),
(114,558,l),
(114,490,l),
(131,490,ls),
(157,490,o),
(172,480,o),
(172,461,cs),
(172,445,o),
(159,433,o),
(142,433,cs),
(132,433,o),
(121,438,o),
(115,452,c),
(30,406,l),
(54,365,o),
(92,345,o),
(144,345,cs)
);
}
);
width = 298;
}
);
metricLeft = three;
metricRight = three;
unicode = 179;
},
{
glyphname = foursuperior;
lastChange = "2021-12-27 21:19:28 +0000";
layers = (
{
hints = (
{
horizontal = 1;
place = (407, 14);
place = (407, 14);
type = Stem;
},
{
place = (10, 16.5);
place = (10, 16.5);
type = Stem;
},
{
place = (163.5, 14);
place = (163.5, 14);
type = Stem;
},
{
horizontal = 1;
place = (340, 81);
place = (340, 81);
type = Stem;
}
);
layerId = "0A901A10-6B10-40AA-AC10-6ECA400C9626";
shapes = (
{
closed = 1;
nodes = (
(227,340,l),
(227,418,l),
(265,418,l),
(265,446,l),
(227,446,l),
(227,680,l),
(197,680,l),
(20,448,l),
(20,418,l),
(199,418,l),
(199,340,l)
);
},
{
closed = 1;
nodes = (
(199,644,l),
(199,446,l),
(48,446,l)
);
}
);
width = 281;
},
{
layerId = "88F21F75-214F-41EE-AE9C-B4AA79D6697C";
shapes = (
{
closed = 1;
nodes = (
(249,340,l),
(249,409,l),
(289,409,l),
(289,509,l),
(249,509,l),
(249,680,l),
(149,680,l),
(20,504,l),
(20,409,l),
(149,409,l),
(149,340,l)
);
},
{
closed = 1;
nodes = (
(149,570,l),
(149,509,l),
(104,509,l)
);
}
);
width = 308;
}
);
metricLeft = four;
metricRight = four;
unicode = 8308;
},
{
glyphname = period;
lastChange = "2021-10-11 16:55:26 +0000";
layers = (
{
hints = (
{
horizontal = 1;
place = (0, 70);
place = (0, 70);
type = Stem;
},
{
place = (20, 55);
place = (20, 55);
type = Stem;
}
);
layerId = "0A901A10-6B10-40AA-AC10-6ECA400C9626";
shapes = (
{
closed = 1;
nodes = (
(58,0,l),
(58,70,l),
(30,70,l),
(30,0,l)
);
}
);
width = 88;
},
{
hints = (
{
horizontal = 1;
place = (0, 160);
place = (0, 160);
type = Stem;
},
{
place = (2, 160);
place = (2, 160);
type = Stem;
}
);
layerId = "88F21F75-214F-41EE-AE9C-B4AA79D6697C";
shapes = (
{
closed = 1;
nodes = (
(190,0,l),
(190,160,l),
(30,160,l),
(30,0,l)
);
}
);
width = 220;
}
);
note = period;
unicode = 46;
},
{
glyphname = comma;
lastChange = "2021-10-11 16:55:26 +0000";
layers = (
{
hints = (
{
horizontal = 1;
place = (-88, 164);
place = (-88, 164);
type = Stem;
},
{
place = (84, 28);
place = (84, 28);
type = Stem;
}
);
layerId = "0A901A10-6B10-40AA-AC10-6ECA400C9626";
shapes = (
{
closed = 1;
nodes = (
(29,-88,l),
(89,76,l),
(61,76,l),
(20,-88,l)
);
}
);
width = 119;
},
{
hints = (
{
horizontal = 1;
place = (-90, 203);
place = (-90, 203);
type = Stem;
},
{
place = (94, 150);
place = (94, 150);
type = Stem;
}
);
layerId = "88F21F75-214F-41EE-AE9C-B4AA79D6697C";
shapes = (
{
closed = 1;
nodes = (
(75,-156,l),
(184,110,l),
(24,110,l),
(-24,-156,l)
);
}
);
width = 264;
}
);
note = comma;
unicode = 44;
},
{
glyphname = colon;
lastChange = "2021-10-11 16:55:26 +0000";
layers = (
{
hints = (
{
horizontal = 1;
place = (80, 70);
place = (80, 70);
type = Stem;
},
{
horizontal = 1;
place = (373, 70);
place = (373, 70);
type = Stem;
},
{
place = (30, 55);
place = (30, 55);
type = Stem;
}
);
layerId = "0A901A10-6B10-40AA-AC10-6ECA400C9626";
shapes = (
{
closed = 1;
nodes = (
(58,448,l),
(58,518,l),
(30,518,l),
(30,448,l)
);
},
{
closed = 1;
nodes = (
(58,0,l),
(58,70,l),
(30,70,l),
(30,0,l)
);
}
);
width = 88;
},
{
hints = (
{
horizontal = 1;
place = (60, 160);
place = (60, 160);
type = Stem;
},
{
horizontal = 1;
place = (317, 161);
place = (317, 161);
type = Stem;
},
{
place = (30, 160);
place = (30, 160);
type = Stem;
}
);
layerId = "88F21F75-214F-41EE-AE9C-B4AA79D6697C";
shapes = (
{
closed = 1;
nodes = (
(190,357,l),
(190,518,l),
(30,518,l),
(30,357,l)
);
},
{
closed = 1;
nodes = (
(190,0,l),
(190,160,l),
(30,160,l),
(30,0,l)
);
}
);
width = 220;
}
);
note = colon;
unicode = 58;
},
{
glyphname = semicolon;
lastChange = "2021-10-11 16:55:26 +0000";
layers = (
{
hints = (
{
horizontal = 1;
origin = (1,2);
target = (1,3);
type = Stem;
},
{
origin = (1,3);
target = (1,0);
type = Stem;
}
);
layerId = "0A901A10-6B10-40AA-AC10-6ECA400C9626";
shapes = (
{
closed = 1;
nodes = (
(29,-88,l),
(89,76,l),
(61,76,l),
(20,-88,l)
);
},
{
closed = 1;
nodes = (
(72,448,l),
(72,518,l),
(44,518,l),
(44,448,l)
);
}
);
width = 119;
},
{
hints = (
{
horizontal = 1;
origin = (0,3);
target = (0,2);
type = Stem;
},
{
horizontal = 1;
origin = (1,2);
target = (1,3);
type = Stem;
},
{
origin = (1,3);
target = (1,0);
type = Stem;
}
);
layerId = "88F21F75-214F-41EE-AE9C-B4AA79D6697C";
shapes = (
{
closed = 1;
nodes = (
(75,-156,l),
(184,110,l),
(24,110,l),
(-24,-156,l)
);
},
{
closed = 1;
nodes = (
(190,357,l),
(190,518,l),
(30,518,l),
(30,357,l)
);
}
);
width = 284;
}
);
note = semicolon;
unicode = 59;
},
{
glyphname = exclam;
lastChange = "2021-10-11 16:55:26 +0000";
layers = (
{
hints = (
{
horizontal = 1;
origin = (1,3);
target = (1,2);
type = Stem;
},
{
origin = (1,3);
target = (1,0);
type = Stem;
}
);
layerId = "0A901A10-6B10-40AA-AC10-6ECA400C9626";
shapes = (
{
closed = 1;
nodes = (
(71,182,l),
(78,406,l),
(78,627,l),
(50,627,l),
(50,406,l),
(57,182,l)
);
},
{
closed = 1;
nodes = (
(78,0,l),
(78,70,l),
(50,70,l),
(50,0,l)
);
}
);
width = 128;
},
{
hints = (
{
horizontal = 1;
place = (0, 160);
place = (0, 160);
type = Stem;
},
{
place = (50, 160);
place = (50, 160);
type = Stem;
}
);
layerId = "88F21F75-214F-41EE-AE9C-B4AA79D6697C";
shapes = (
{
closed = 1;
nodes = (
(181,228,l),
(210,444,l),
(210,633,l),
(50,633,l),
(50,444,l),
(79,228,l)
);
},
{
closed = 1;
nodes = (
(210,0,l),
(210,160,l),
(50,160,l),
(50,0,l)
);
}
);
width = 260;
}
);
note = exclam;
unicode = 33;
},
{
glyphname = question;
lastChange = "2021-10-11 16:55:26 +0000";
layers = (
{
hints = (
{
horizontal = 1;
origin = (1,3);
target = (1,2);
type = Stem;
},
{
horizontal = 1;
origin = (0,16);
target = (0,9);
type = Stem;
},
{
origin = (0,12);
target = (0,13);
type = Stem;
},
{
origin = (1,3);
target = (0,0);
type = Stem;
},
{
origin = (0,19);
target = (0,6);
type = Stem;
},
{
origin = (1,3);
target = (1,0);
type = Stem;
}
);
layerId = "0A901A10-6B10-40AA-AC10-6ECA400C9626";
shapes = (
{
closed = 1;
nodes = (
(205,188,l),
(205,258,o),
(215,300,o),
(278,358,cs),
(337,413,o),
(364,449,o),
(364,501,cs),
(364,579,o),
(293,633,o),
(201,633,cs),
(96,633,o),
(20,552,o),
(20,438,c),
(48,438,l),
(48,537,o),
(111,606,o),
(202,606,cs),
(280,606,o),
(336,566,o),
(336,501,cs),
(336,458,o),
(313,426,o),
(265,383,cs),
(190,315,o),
(179,262,o),
(179,188,c)
);
},
{
closed = 1;
nodes = (
(207,0,l),
(207,70,l),
(179,70,l),
(179,0,l)
);
}
);
width = 384;
},
{
hints = (
{
horizontal = 1;
origin = (1,3);
target = (1,2);
type = Stem;
},
{
horizontal = 1;
origin = (0,16);
target = (0,9);
type = Stem;
},
{
horizontal = 1;
origin = (0,12);
target = (0,9);
type = Stem;
},
{
origin = (1,3);
target = (1,0);
type = Stem;
},
{
origin = (0,19);
target = (0,6);
type = Stem;
},
{
origin = (0,12);
target = (0,13);
type = Stem;
}
);
layerId = "88F21F75-214F-41EE-AE9C-B4AA79D6697C";
shapes = (
{
closed = 1;
nodes = (
(316,195,l),
(316,224,o),
(332,256,o),
(370,289,cs),
(433,344,o),
(466,391,o),
(466,457,cs),
(466,565,o),
(368,643,o),
(245,643,cs),
(109,643,o),
(30,537,o),
(20,382,c),
(180,382,l),
(190,449,o),
(205,486,o),
(249,486,cs),
(280,486,o),
(296,471,o),
(296,442,cs),
(296,420,o),
(286,407,o),
(243,373,cs),
(182,325,o),
(156,271,o),
(156,195,c)
);
},
{
closed = 1;
nodes = (
(316,0,l),
(316,160,l),
(156,160,l),
(156,0,l)
);
}
);
width = 486;
}
);
note = question;
unicode = 63;
},
{
glyphname = questiondown;
lastChange = "2021-10-11 16:55:26 +0000";
layers = (
{
layerId = "0A901A10-6B10-40AA-AC10-6ECA400C9626";
metricLeft = "=|question";
metricRight = "=|question";
shapes = (
{
closed = 1;
nodes = (
(288,-100,o),
(364,-19,o),
(364,95,c),
(336,95,l),
(336,-4,o),
(273,-73,o),
(182,-73,cs),
(104,-73,o),
(48,-33,o),
(48,32,cs),
(48,75,o),
(71,107,o),
(119,150,cs),
(194,218,o),
(205,271,o),
(205,345,c),
(179,345,l),
(179,275,o),
(169,233,o),
(106,175,cs),
(47,120,o),
(20,84,o),
(20,32,cs),
(20,-46,o),
(91,-100,o),
(183,-100,cs)
);
},
{
closed = 1;
nodes = (
(205,463,l),
(205,533,l),
(177,533,l),
(177,463,l)
);
}
);
width = 384;
},
{
layerId = "88F21F75-214F-41EE-AE9C-B4AA79D6697C";
shapes = (
{
closed = 1;
nodes = (
(377,-100,o),
(456,6,o),
(466,161,c),
(306,161,l),
(296,94,o),
(281,57,o),
(237,57,cs),
(206,57,o),
(190,72,o),
(190,101,cs),
(190,123,o),
(200,136,o),
(243,170,cs),
(304,218,o),
(330,272,o),
(330,348,c),
(170,348,l),
(170,319,o),
(154,287,o),
(116,254,cs),
(53,199,o),
(20,152,o),
(20,86,cs),
(20,-22,o),
(118,-100,o),
(241,-100,cs)
);
},
{
closed = 1;
nodes = (
(330,383,l),
(330,543,l),
(170,543,l),
(170,383,l)
);
}
);
width = 600;
}
);
unicode = 191;
},
{
glyphname = periodcentered;
lastChange = "2021-10-11 16:56:32 +0000";
layers = (
{
layerId = "0A901A10-6B10-40AA-AC10-6ECA400C9626";
shapes = (
{
closed = 1;
nodes = (
(104,242,o),
(126,263,o),
(126,290,cs),
(126,316,o),
(104,338,o),
(78,338,cs),
(51,338,o),
(30,316,o),
(30,290,cs),
(30,263,o),
(51,242,o),
(78,242,cs)
);
}
);
width = 156;
},
{
layerId = "88F21F75-214F-41EE-AE9C-B4AA79D6697C";
shapes = (
{
closed = 1;
nodes = (
(185,190,o),
(230,234,o),
(230,290,cs),
(230,345,o),
(185,390,o),
(130,390,cs),
(74,390,o),
(30,345,o),
(30,290,cs),
(30,234,o),
(74,190,o),
(130,190,cs)
);
}
);
width = 260;
}
);
unicode = 183;
},
{
glyphname = bullet;
lastChange = "2021-10-11 16:56:29 +0000";
layers = (
{
layerId = "0A901A10-6B10-40AA-AC10-6ECA400C9626";
shapes = (
{
closed = 1;
nodes = (
(177,195,o),
(220,237,o),
(220,290,cs),
(220,342,o),
(177,385,o),
(125,385,cs),
(72,385,o),
(30,342,o),
(30,290,cs),
(30,237,o),
(72,195,o),
(125,195,cs)
);
}
);
width = 250;
},
{
layerId = "88F21F75-214F-41EE-AE9C-B4AA79D6697C";
shapes = (
{
closed = 1;
nodes = (
(340,90,o),
(430,178,o),
(430,290,cs),
(430,400,o),
(340,490,o),
(230,490,cs),
(118,490,o),
(30,400,o),
(30,290,cs),
(30,178,o),
(118,90,o),
(230,90,cs)
);
}
);
width = 460;
}
);
unicode = 8226;
},
{
glyphname = asterisk;
lastChange = "2021-10-06 15:00:21 +0000";
layers = (
{
hints = (
{
horizontal = 1;
place = (199, 308);
place = (199, 308);
type = Stem;
},
{
place = (178, 28);
place = (178, 28);
type = Stem;
}
);
layerId = "0A901A10-6B10-40AA-AC10-6ECA400C9626";
shapes = (
{
closed = 1;
nodes = (
(192,318,l),
(279,199,l),
(301,215,l),
(215,334,l),
(355,379,l),
(346,406,l),
(206,361,l),
(206,507,l),
(178,507,l),
(178,361,l),
(39,406,l),
(30,379,l),
(170,334,l),
(83,215,l),
(106,199,l)
);
}
);
width = 385;
},
{
hints = (
{
horizontal = 1;
place = (151, 383);
place = (151, 383);
type = Stem;
},
{
place = (156, 150);
place = (156, 150);
type = Stem;
}
);
layerId = "88F21F75-214F-41EE-AE9C-B4AA79D6697C";
shapes = (
{
closed = 1;
nodes = (
(231,219,l),
(280,151,l),
(402,240,l),
(353,307,l),
(432,333,l),
(386,476,l),
(306,450,l),
(306,534,l),
(156,534,l),
(156,450,l),
(76,476,l),
(30,333,l),
(110,307,l),
(60,240,l),
(182,151,l)
);
}
);
width = 462;
}
);
note = asterisk;
unicode = 42;
},
{
glyphname = numbersign;
lastChange = "2021-10-06 15:00:21 +0000";
layers = (
{
hints = (
{
horizontal = 1;
place = (0, 21);
target = up;
type = BottomGhost;
},
{
horizontal = 1;
place = (202, 28);
place = (202, 28);
type = Stem;
},
{
horizontal = 1;
place = (368, 28);
place = (368, 28);
type = Stem;
},
{
place = (30, 409);
place = (30, 409);
type = Stem;
}
);
layerId = "0A901A10-6B10-40AA-AC10-6ECA400C9626";
shapes = (
{
closed = 1;
nodes = (
(121,0,l),
(149,202,l),
(303,202,l),
(275,0,l),
(303,0,l),
(331,202,l),
(414,202,l),
(414,230,l),
(335,230,l),
(354,368,l),
(439,368,l),
(439,396,l),
(358,396,l),
(387,603,l),
(359,603,l),
(330,396,l),
(176,396,l),
(205,603,l),
(177,603,l),
(148,396,l),
(54,396,l),
(54,368,l),
(144,368,l),
(125,230,l),
(30,230,l),
(30,202,l),
(121,202,l),
(93,0,l)
);
},
{
closed = 1;
nodes = (
(172,368,l),
(326,368,l),
(307,230,l),
(153,230,l)
);
}
);
width = 469;
},
{
hints = (
{
horizontal = 1;
place = (0, 21);
target = up;
type = BottomGhost;
},
{
horizontal = 1;
place = (121, 150);
place = (121, 150);
type = Stem;
},
{
horizontal = 1;
place = (327, 150);
place = (327, 150);
type = Stem;
},
{
place = (30, 579);
place = (30, 579);
type = Stem;
}
);
layerId = "88F21F75-214F-41EE-AE9C-B4AA79D6697C";
shapes = (
{
closed = 1;
nodes = (
(248,0,l),
(265,121,l),
(325,121,l),
(308,0,l),
(460,0,l),
(477,121,l),
(575,121,l),
(575,271,l),
(498,271,l),
(505,327,l),
(609,327,l),
(609,477,l),
(526,477,l),
(544,603,l),
(393,603,l),
(375,477,l),
(314,477,l),
(332,603,l),
(180,603,l),
(163,477,l),
(64,477,l),
(64,327,l),
(142,327,l),
(134,271,l),
(30,271,l),
(30,121,l),
(113,121,l),
(96,0,l)
);
},
{
closed = 1;
nodes = (
(293,327,l),
(354,327,l),
(346,271,l),
(286,271,l)
);
}
);
width = 639;
}
);
note = numbersign;
unicode = 35;
},
{
glyphname = slash;
lastChange = "2021-12-27 17:33:12 +0000";
layers = (
{
hints = (
{
horizontal = 1;
place = (-169, 848);
place = (-169, 848);
type = Stem;
},
{
place = (10, 424);
place = (10, 424);
type = Stem;
}
);
layerId = "0A901A10-6B10-40AA-AC10-6ECA400C9626";
shapes = (
{
closed = 1;
nodes = (
(41,-169,l),
(434,680,l),
(404,680,l),
(10,-169,l)
);
}
);
width = 444;
},
{
hints = (
{
horizontal = 1;
place = (-164, 848);
place = (-164, 848);
type = Stem;
},
{
place = (10, 570);
place = (10, 570);
type = Stem;
}
);
layerId = "88F21F75-214F-41EE-AE9C-B4AA79D6697C";
shapes = (
{
closed = 1;
nodes = (
(186,-164,l),
(580,684,l),
(404,684,l),
(10,-164,l)
);
}
);
width = 590;
}
);
note = slash;
unicode = 47;
},
{
glyphname = backslash;
lastChange = "2021-10-06 15:00:21 +0000";
layers = (
{
hints = (
{
horizontal = 1;
place = (-169, 848);
place = (-169, 848);
type = Stem;
},
{
place = (10, 424);
place = (10, 424);
type = Stem;
}
);
layerId = "0A901A10-6B10-40AA-AC10-6ECA400C9626";
shapes = (
{
closed = 1;
nodes = (
(434,-169,l),
(41,679,l),
(10,679,l),
(404,-169,l)
);
}
);
width = 444;
},
{
hints = (
{
horizontal = 1;
place = (-164, 848);
place = (-164, 848);
type = Stem;
},
{
place = (10, 570);
place = (10, 570);
type = Stem;
}
);
layerId = "88F21F75-214F-41EE-AE9C-B4AA79D6697C";
shapes = (
{
closed = 1;
nodes = (
(580,-164,l),
(186,684,l),
(10,684,l),
(404,-164,l)
);
}
);
width = 590;
}
);
note = backslash;
unicode = 92;
},
{
glyphname = hyphen;
lastChange = "2021-10-06 15:00:21 +0000";
layers = (
{
hints = (
{
horizontal = 1;
place = (350, 31);
place = (350, 31);
type = Stem;
},
{
place = (20, 143);
place = (20, 143);
type = Stem;
}
);
layerId = "0A901A10-6B10-40AA-AC10-6ECA400C9626";
shapes = (
{
closed = 1;
nodes = (
(163,350,l),
(163,381,l),
(20,381,l),
(20,350,l)
);
}
);
width = 183;
},
{
hints = (
{
horizontal = 1;
place = (282, 150);
place = (282, 150);
type = Stem;
},
{
place = (20, 272);
place = (20, 272);
type = Stem;
}
);
layerId = "88F21F75-214F-41EE-AE9C-B4AA79D6697C";
shapes = (
{
closed = 1;
nodes = (
(292,282,l),
(292,432,l),
(20,432,l),
(20,282,l)
);
}
);
width = 312;
}
);
note = hyphen;
unicode = 45;
},
{
glyphname = endash;
lastChange = "2021-10-11 16:56:20 +0000";
layers = (
{
layerId = "0A901A10-6B10-40AA-AC10-6ECA400C9626";
shapes = (
{
closed = 1;
nodes = (
(635,350,l),
(635,381,l),
(20,381,l),
(20,350,l)
);
}
);
width = 655;
},
{
layerId = "88F21F75-214F-41EE-AE9C-B4AA79D6697C";
shapes = (
{
closed = 1;
nodes = (
(635,282,l),
(635,432,l),
(20,432,l),
(20,282,l)
);
}
);
width = 655;
}
);
unicode = 8211;
},
{
glyphname = emdash;
lastChange = "2021-10-06 21:26:51 +0000";
layers = (
{
layerId = "0A901A10-6B10-40AA-AC10-6ECA400C9626";
shapes = (
{
closed = 1;
nodes = (
(797,344,l),
(797,370,l),
(20,370,l),
(20,344,l)
);
}
);
width = 817;
},
{
layerId = "88F21F75-214F-41EE-AE9C-B4AA79D6697C";
shapes = (
{
closed = 1;
nodes = (
(797,282,l),
(797,432,l),
(20,432,l),
(20,282,l)
);
}
);
width = 817;
}
);
unicode = 8212;
},
{
glyphname = ltr95;
lastChange = "2021-10-06 15:00:21 +0000";
layers = (
{
hints = (
{
horizontal = 1;
place = (0, 28);
place = (0, 28);
type = Stem;
},
{
place = (20, 360);
place = (20, 360);
type = Stem;
}
);
layerId = "0A901A10-6B10-40AA-AC10-6ECA400C9626";
shapes = (
{
closed = 1;
nodes = (
(380,0,l),
(380,28,l),
(20,28,l),
(20,0,l)
);
}
);
width = 400;
},
{
hints = (
{
horizontal = 1;
place = (0, 130);
place = (0, 130);
type = Stem;
},
{
place = (20, 455);
place = (20, 455);
type = Stem;
}
);
layerId = "88F21F75-214F-41EE-AE9C-B4AA79D6697C";
shapes = (
{
closed = 1;
nodes = (
(475,0,l),
(475,130,l),
(20,130,l),
(20,0,l)
);
}
);
width = 495;
}
);
note = ltr95;
unicode = 95;
},
{
glyphname = parenleft;
lastChange = "2021-10-06 16:17:54 +0000";
layers = (
{
hints = (
{
horizontal = 1;
place = (-87, 767);
place = (-87, 767);
type = Stem;
},
{
place = (20, 31);
place = (20, 31);
type = Stem;
}
);
layerId = "0A901A10-6B10-40AA-AC10-6ECA400C9626";
shapes = (
{
closed = 1;
nodes = (
(162,-87,l),
(92,29,o),
(51,160,o),
(51,297,cs),
(51,435,o),
(92,565,o),
(161,680,c),
(130,680,l),
(61,564,o),
(20,433,o),
(20,297,cs),
(20,161,o),
(61,29,o),
(131,-87,c)
);
}
);
width = 172;
},
{
hints = (
{
horizontal = 1;
place = (-76, 769);
place = (-76, 769);
type = Stem;
},
{
place = (20, 154);
place = (20, 154);
type = Stem;
}
);
layerId = "88F21F75-214F-41EE-AE9C-B4AA79D6697C";
shapes = (
{
closed = 1;
nodes = (
(320,-76,l),
(231,50,o),
(173,174,o),
(173,309,cs),
(173,444,o),
(231,567,o),
(319,693,c),
(148,693,l),
(63,567,o),
(20,440,o),
(20,309,cs),
(20,178,o),
(63,51,o),
(148,-76,c)
);
}
);
width = 330;
}
);
note = parenleft;
unicode = 40;
},
{
glyphname = parenright;
lastChange = "2021-10-06 16:17:52 +0000";
layers = (
{
hints = (
{
horizontal = 1;
place = (-87, 767);
place = (-87, 767);
type = Stem;
},
{
place = (121, 31);
place = (121, 31);
type = Stem;
}
);
layerId = "0A901A10-6B10-40AA-AC10-6ECA400C9626";
shapes = (
{
closed = 1;
nodes = (
(41,-87,l),
(110,29,o),
(152,161,o),
(152,297,cs),
(152,433,o),
(111,564,o),
(41,680,c),
(11,680,l),
(80,565,o),
(121,435,o),
(121,297,cs),
(121,160,o),
(79,29,o),
(10,-87,c)
);
}
);
width = 172;
},
{
hints = (
{
horizontal = 1;
place = (-77, 769);
place = (-77, 769);
type = Stem;
},
{
place = (157, 153);
place = (157, 153);
type = Stem;
}
);
layerId = "88F21F75-214F-41EE-AE9C-B4AA79D6697C";
shapes = (
{
closed = 1;
nodes = (
(182,-77,l),
(267,50,o),
(310,177,o),
(310,308,cs),
(310,439,o),
(268,566,o),
(182,692,c),
(11,692,l),
(108,556,o),
(158,433,o),
(158,309,cs),
(158,174,o),
(99,49,o),
(10,-77,c)
);
}
);
width = 330;
}
);
note = parenright;
unicode = 41;
},
{
glyphname = braceleft;
lastChange = "2021-10-06 15:00:21 +0000";
layers = (
{
hints = (
{
place = (-170, 28);
place = (-170, 28);
type = Stem;
},
{
place = (40, 39);
place = (40, 39);
type = Stem;
},
{
place = (109, 28);
place = (109, 28);
type = Stem;
},
{
place = (240, 28);
place = (240, 28);
type = Stem;
},
{
place = (650, 28);
place = (650, 28);
type = Stem;
}
);
layerId = "0A901A10-6B10-40AA-AC10-6ECA400C9626";
shapes = (
{
closed = 1;
nodes = (
(216,-142,l),
(172,-142,o),
(137,-109,o),
(137,-67,cs),
(137,63,ls),
(137,117,o),
(125,216,o),
(79,254,c),
(125,291,o),
(137,390,o),
(137,444,cs),
(137,574,ls),
(137,616,o),
(172,650,o),
(216,650,c),
(216,678,l),
(157,678,o),
(109,631,o),
(109,574,cs),
(109,444,ls),
(109,407,o),
(97,268,o),
(40,268,c),
(40,240,l),
(97,240,o),
(109,100,o),
(109,63,cs),
(109,-67,ls),
(109,-124,o),
(157,-170,o),
(216,-170,c)
);
}
);
width = 216;
},
{
hints = (
{
horizontal = 1;
place = (185, 150);
place = (185, 150);
type = Stem;
},
{
place = (96, 150);
place = (96, 150);
type = Stem;
},
{
horizontal = 1;
place = (-162, 843);
place = (-162, 843);
type = Stem;
},
{
horizontal = 1;
place = (-162, 150);
place = (-162, 150);
type = Stem;
},
{
horizontal = 1;
place = (531, 150);
place = (531, 150);
type = Stem;
}
);
layerId = "88F21F75-214F-41EE-AE9C-B4AA79D6697C";
shapes = (
{
closed = 1;
nodes = (
(285,-12,l),
(264,-12,o),
(246,8,o),
(246,33,cs),
(246,98,ls),
(246,155,o),
(242,212,o),
(208,260,c),
(242,307,o),
(246,364,o),
(246,421,cs),
(246,487,ls),
(246,511,o),
(264,531,o),
(285,531,c),
(285,681,l),
(181,681,o),
(96,594,o),
(96,487,cs),
(96,421,ls),
(96,363,o),
(100,335,o),
(40,335,c),
(40,185,l),
(98,185,o),
(96,156,o),
(96,98,cs),
(96,33,ls),
(96,-75,o),
(181,-162,o),
(285,-162,c)
);
}
);
width = 285;
}
);
note = braceleft;
unicode = 123;
},
{
glyphname = braceright;
lastChange = "2021-10-06 15:00:21 +0000";
layers = (
{
hints = (
{
place = (-170, 28);
place = (-170, 28);
type = Stem;
},
{
place = (79, 28);
place = (79, 28);
type = Stem;
},
{
place = (137, 39);
place = (137, 39);
type = Stem;
},
{
place = (240, 28);
place = (240, 28);
type = Stem;
},
{
place = (650, 28);
place = (650, 28);
type = Stem;
}
);
layerId = "0A901A10-6B10-40AA-AC10-6ECA400C9626";
shapes = (
{
closed = 1;
nodes = (
(59,-170,o),
(107,-124,o),
(107,-67,cs),
(107,63,ls),
(107,100,o),
(119,240,o),
(176,240,c),
(176,268,l),
(119,268,o),
(107,407,o),
(107,444,cs),
(107,574,ls),
(107,631,o),
(59,678,o),
(0,678,c),
(0,650,l),
(43,650,o),
(79,616,o),
(79,574,cs),
(79,444,ls),
(79,390,o),
(91,291,o),
(137,254,c),
(91,216,o),
(79,117,o),
(79,63,cs),
(79,-67,ls),
(79,-109,o),
(43,-142,o),
(0,-142,c),
(0,-170,l)
);
}
);
width = 216;
},
{
hints = (
{
horizontal = 1;
place = (-160, 150);
place = (-160, 150);
type = Stem;
},
{
horizontal = 1;
place = (187, 150);
place = (187, 150);
type = Stem;
},
{
place = (38, 150);
place = (38, 150);
type = Stem;
},
{
horizontal = 1;
place = (-160, 843);
place = (-160, 843);
type = Stem;
},
{
horizontal = 1;
place = (533, 150);
place = (533, 150);
type = Stem;
}
);
layerId = "88F21F75-214F-41EE-AE9C-B4AA79D6697C";
shapes = (
{
closed = 1;
nodes = (
(104,-160,o),
(188,-73,o),
(188,35,cs),
(188,100,ls),
(188,158,o),
(187,187,o),
(245,187,c),
(245,337,l),
(187,337,o),
(188,365,o),
(188,423,cs),
(188,489,ls),
(188,596,o),
(104,683,o),
(0,683,c),
(0,533,l),
(21,533,o),
(38,513,o),
(38,489,cs),
(38,423,ls),
(38,366,o),
(43,309,o),
(77,262,c),
(43,214,o),
(38,157,o),
(38,100,cs),
(38,35,ls),
(38,10,o),
(21,-10,o),
(0,-10,c),
(0,-160,l)
);
}
);
width = 285;
}
);
note = braceright;
unicode = 125;
},
{
glyphname = bracketleft;
lastChange = "2021-10-06 21:16:09 +0000";
layers = (
{
hints = (
{
horizontal = 1;
place = (-169, 28);
place = (-169, 28);
type = Stem;
},
{
horizontal = 1;
place = (651, 28);
place = (651, 28);
type = Stem;
},
{
place = (50, 28);
place = (50, 28);
type = Stem;
}
);
layerId = "0A901A10-6B10-40AA-AC10-6ECA400C9626";
shapes = (
{
closed = 1;
nodes = (
(199,-129,l),
(199,-101,l),
(78,-101,l),
(78,724,l),
(199,724,l),
(199,752,l),
(50,752,l),
(50,-129,l)
);
}
);
width = 199;
},
{
hints = (
{
horizontal = 1;
place = (-160, 150);
place = (-160, 150);
type = Stem;
},
{
horizontal = 1;
place = (533, 150);
place = (533, 150);
type = Stem;
},
{
place = (50, 150);
place = (50, 150);
type = Stem;
}
);
layerId = "88F21F75-214F-41EE-AE9C-B4AA79D6697C";
shapes = (
{
closed = 1;
nodes = (
(289,-160,l),
(289,-10,l),
(200,-10,l),
(200,632,l),
(289,632,l),
(289,782,l),
(50,782,l),
(50,-160,l)
);
}
);
width = 289;
}
);
note = bracketleft;
unicode = 91;
},
{
glyphname = bracketright;
lastChange = "2021-10-06 21:16:04 +0000";
layers = (
{
hints = (
{
horizontal = 1;
place = (-169, 28);
place = (-169, 28);
type = Stem;
},
{
horizontal = 1;
place = (651, 28);
place = (651, 28);
type = Stem;
},
{
place = (121, 28);
place = (121, 28);
type = Stem;
}
);
layerId = "0A901A10-6B10-40AA-AC10-6ECA400C9626";
shapes = (
{
closed = 1;
nodes = (
(149,-129,l),
(149,752,l),
(0,752,l),
(0,724,l),
(121,724,l),
(121,-101,l),
(0,-101,l),
(0,-129,l)
);
}
);
width = 199;
},
{
hints = (
{
horizontal = 1;
place = (-160, 150);
place = (-160, 150);
type = Stem;
},
{
horizontal = 1;
place = (533, 150);
place = (533, 150);
type = Stem;
},
{
place = (89, 150);
place = (89, 150);
type = Stem;
}
);
layerId = "88F21F75-214F-41EE-AE9C-B4AA79D6697C";
shapes = (
{
closed = 1;
nodes = (
(239,-160,l),
(239,782,l),
(0,782,l),
(0,632,l),
(89,632,l),
(89,-10,l),
(0,-10,l),
(0,-160,l)
);
}
);
width = 289;
}
);
note = bracketright;
unicode = 93;
},
{
glyphname = guillemetleft;
lastChange = "2021-12-09 14:01:25 +0000";
layers = (
{
layerId = "0A901A10-6B10-40AA-AC10-6ECA400C9626";
shapes = (
{
closed = 1;
nodes = (
(415,67,l),
(235,258,l),
(415,449,l),
(415,487,l),
(206,267,l),
(206,249,l),
(415,29,l)
);
},
{
closed = 1;
nodes = (
(239,67,l),
(59,258,l),
(239,449,l),
(239,487,l),
(30,267,l),
(30,249,l),
(239,29,l)
);
}
);
width = 435;
},
{
layerId = "88F21F75-214F-41EE-AE9C-B4AA79D6697C";
shapes = (
{
closed = 1;
nodes = (
(449,189,l),
(381,258,l),
(449,327,l),
(449,487,l),
(240,267,l),
(240,249,l),
(449,29,l)
);
},
{
closed = 1;
nodes = (
(229,189,l),
(161,258,l),
(229,327,l),
(229,487,l),
(20,267,l),
(20,249,l),
(229,29,l)
);
}
);
width = 479;
}
);
unicode = 171;
},
{
glyphname = guillemetright;
lastChange = "2021-12-09 14:01:08 +0000";
layers = (
{
layerId = "0A901A10-6B10-40AA-AC10-6ECA400C9626";
shapes = (
{
closed = 1;
nodes = (
(405,249,l),
(405,267,l),
(196,487,l),
(196,449,l),
(376,258,l),
(196,67,l),
(196,29,l)
);
},
{
closed = 1;
nodes = (
(229,249,l),
(229,267,l),
(20,487,l),
(20,449,l),
(200,258,l),
(20,67,l),
(20,29,l)
);
}
);
width = 435;
},
{
layerId = "88F21F75-214F-41EE-AE9C-B4AA79D6697C";
shapes = (
{
closed = 1;
nodes = (
(459,249,l),
(459,267,l),
(250,487,l),
(250,327,l),
(318,258,l),
(250,189,l),
(250,29,l)
);
},
{
closed = 1;
nodes = (
(239,249,l),
(239,267,l),
(30,487,l),
(30,327,l),
(98,258,l),
(30,189,l),
(30,29,l)
);
}
);
width = 479;
}
);
unicode = 187;
},
{
glyphname = guilsinglleft;
lastChange = "2021-12-09 14:00:39 +0000";
layers = (
{
layerId = "0A901A10-6B10-40AA-AC10-6ECA400C9626";
shapes = (
{
closed = 1;
nodes = (
(239,67,l),
(59,258,l),
(239,449,l),
(239,487,l),
(30,267,l),
(30,249,l),
(239,29,l)
);
}
);
width = 259;
},
{
layerId = "88F21F75-214F-41EE-AE9C-B4AA79D6697C";
shapes = (
{
closed = 1;
nodes = (
(229,189,l),
(161,258,l),
(229,327,l),
(229,487,l),
(20,267,l),
(20,249,l),
(229,29,l)
);
}
);
width = 259;
}
);
unicode = 8249;
},
{
glyphname = guilsinglright;
lastChange = "2021-12-09 14:00:51 +0000";
layers = (
{
layerId = "0A901A10-6B10-40AA-AC10-6ECA400C9626";
shapes = (
{
closed = 1;
nodes = (
(229,249,l),
(229,267,l),
(20,487,l),
(20,449,l),
(200,258,l),
(20,67,l),
(20,29,l)
);
}
);
width = 259;
},
{
layerId = "88F21F75-214F-41EE-AE9C-B4AA79D6697C";
shapes = (
{
closed = 1;
nodes = (
(239,249,l),
(239,267,l),
(30,487,l),
(30,327,l),
(98,258,l),
(30,189,l),
(30,29,l)
);
}
);
width = 259;
}
);
unicode = 8250;
},
{
glyphname = quotedbl;
lastChange = "2021-11-09 13:34:12 +0000";
layers = (
{
hints = (
{
horizontal = 1;
place = (411, 164);
place = (411, 164);
type = Stem;
},
{
place = (84, 28);
place = (84, 28);
type = Stem;
},
{
place = (160, 28);
place = (160, 28);
type = Stem;
}
);
layerId = "0A901A10-6B10-40AA-AC10-6ECA400C9626";
shapes = (
{
closed = 1;
nodes = (
(100,516,l),
(110,680,l),
(80,680,l),
(89,516,l)
);
},
{
closed = 1;
nodes = (
(51,516,l),
(60,680,l),
(30,680,l),
(40,516,l)
);
}
);
width = 150;
},
{
hints = (
{
horizontal = 1;
place = (432, 203);
place = (432, 203);
type = Stem;
},
{
place = (10, 150);
place = (10, 150);
type = Stem;
},
{
place = (292, 150);
place = (292, 150);
type = Stem;
}
);
layerId = "88F21F75-214F-41EE-AE9C-B4AA79D6697C";
shapes = (
{
closed = 1;
nodes = (
(324,410,l),
(358,636,l),
(198,636,l),
(228,410,l)
);
},
{
closed = 1;
nodes = (
(138,410,l),
(172,636,l),
(12,636,l),
(42,410,l)
);
}
);
width = 368;
}
);
note = quotedbl;
unicode = 34;
},
{
glyphname = quotesingle;
lastChange = "2021-11-09 13:34:07 +0000";
layers = (
{
hints = (
{
horizontal = 1;
place = (460, 164);
place = (460, 164);
type = Stem;
},
{
place = (29, 28);
place = (29, 28);
type = Stem;
}
);
layerId = "0A901A10-6B10-40AA-AC10-6ECA400C9626";
shapes = (
{
closed = 1;
nodes = (
(50,516,l),
(60,680,l),
(30,680,l),
(39,516,l)
);
}
);
width = 100;
},
{
hints = (
{
horizontal = 1;
place = (432, 203);
place = (432, 203);
type = Stem;
},
{
place = (10, 224);
place = (10, 224);
type = Stem;
}
);
layerId = "88F21F75-214F-41EE-AE9C-B4AA79D6697C";
shapes = (
{
closed = 1;
nodes = (
(138,410,l),
(172,636,l),
(12,636,l),
(42,410,l)
);
}
);
width = 182;
}
);
note = quotesingle;
unicode = 39;
},
{
glyphname = at;
lastChange = "2021-10-06 15:00:21 +0000";
layers = (
{
hints = (
{
horizontal = 1;
place = (79, 28);
place = (79, 28);
type = Stem;
},
{
horizontal = 1;
place = (150, 28);
place = (150, 28);
type = Stem;
},
{
horizontal = 1;
place = (340, 28);
place = (340, 28);
type = Stem;
},
{
horizontal = 1;
place = (411, 28);
place = (411, 28);
type = Stem;
},
{
place = (30, 28);
place = (30, 28);
type = Stem;
},
{
place = (101, 28);
place = (101, 28);
type = Stem;
},
{
place = (291, 28);
place = (291, 28);
type = Stem;
},
{
place = (362, 28);
place = (362, 28);
type = Stem;
}
);
layerId = "0A901A10-6B10-40AA-AC10-6ECA400C9626";
shapes = (
{
closed = 1;
nodes = (
(230,79,o),
(249,82,o),
(267,88,c),
(258,115,l),
(242,109,o),
(225,107,o),
(209,107,cs),
(125,107,o),
(58,177,o),
(58,260,cs),
(58,343,o),
(127,411,o),
(210,411,cs),
(292,411,o),
(362,343,o),
(362,261,cs),
(362,224,o),
(347,178,o),
(330,178,cs),
(324,178,o),
(319,183,o),
(319,189,cs),
(319,259,ls),
(319,319,o),
(270,368,o),
(210,368,cs),
(150,368,o),
(101,319,o),
(101,259,cs),
(101,199,o),
(150,150,o),
(210,150,cs),
(242,150,o),
(271,164,o),
(291,186,c),
(292,166,o),
(309,150,o),
(330,150,cs),
(368,150,o),
(390,213,o),
(390,262,cs),
(390,359,o),
(307,439,o),
(210,439,cs),
(112,439,o),
(30,359,o),
(30,260,cs),
(30,162,o),
(109,79,o),
(208,79,cs)
);
},
{
closed = 1;
nodes = (
(165,178,o),
(129,214,o),
(129,259,cs),
(129,304,o),
(165,340,o),
(210,340,cs),
(255,340,o),
(291,304,o),
(291,259,cs),
(291,214,o),
(255,178,o),
(210,178,cs)
);
}
);
width = 420;
},
{
hints = (
{
horizontal = 1;
place = (79, 70);
place = (79, 70);
type = Stem;
},
{
horizontal = 1;
place = (165, 70);
place = (165, 70);
type = Stem;
},
{
horizontal = 1;
place = (283, 70);
place = (283, 70);
type = Stem;
},
{
horizontal = 1;
place = (369, 70);
place = (369, 70);
type = Stem;
},
{
place = (30, 70);
place = (30, 70);
type = Stem;
},
{
place = (116, 70);
place = (116, 70);
type = Stem;
},
{
place = (234, 70);
place = (234, 70);
type = Stem;
},
{
place = (320, 70);
place = (320, 70);
type = Stem;
},
{
horizontal = 1;
place = (168, 70);
place = (168, 70);
type = Stem;
}
);
layerId = "88F21F75-214F-41EE-AE9C-B4AA79D6697C";
shapes = (
{
closed = 1;
nodes = (
(237,79,o),
(264,85,o),
(288,97,c),
(258,160,l),
(242,152,o),
(226,149,o),
(210,149,cs),
(149,149,o),
(100,199,o),
(100,259,cs),
(100,319,o),
(148,369,o),
(209,369,cs),
(270,369,o),
(320,320,o),
(320,260,cs),
(320,246,o),
(318,238,o),
(312,238,cs),
(307,238,o),
(304,241,o),
(304,245,cs),
(304,259,ls),
(304,311,o),
(262,353,o),
(210,353,cs),
(158,353,o),
(116,311,o),
(116,259,cs),
(116,207,o),
(158,165,o),
(210,165,cs),
(231,165,o),
(250,172,o),
(265,183,c),
(278,173,o),
(294,168,o),
(313,168,cs),
(365,168,o),
(390,212,o),
(390,260,cs),
(390,359,o),
(307,439,o),
(209,439,cs),
(110,439,o),
(30,357,o),
(30,259,cs),
(30,161,o),
(109,79,o),
(208,79,cs)
);
},
{
closed = 1;
nodes = (
(197,235,o),
(186,246,o),
(186,259,cs),
(186,272,o),
(197,283,o),
(210,283,cs),
(223,283,o),
(234,272,o),
(234,259,cs),
(234,246,o),
(223,235,o),
(210,235,cs)
);
}
);
width = 420;
}
);
note = at;
unicode = 64;
},
{
glyphname = ampersand;
lastChange = "2021-10-11 16:28:48 +0000";
layers = (
{
hints = (
{
horizontal = 1;
place = (0, 28);
place = (0, 28);
type = Stem;
},
{
horizontal = 1;
place = (575, 28);
place = (575, 28);
type = Stem;
},
{
place = (20, 28);
place = (20, 28);
type = Stem;
},
{
place = (64, 28);
place = (64, 28);
type = Stem;
},
{
place = (289, 28);
place = (289, 28);
type = Stem;
}
);
layerId = "0A901A10-6B10-40AA-AC10-6ECA400C9626";
shapes = (
{
closed = 1;
nodes = (
(401,0,o),
(458,156,o),
(478,232,c),
(449,232,l),
(429,168,o),
(385,28,o),
(218,28,cs),
(129,28,o),
(48,92,o),
(48,182,cs),
(48,241,o),
(82,294,o),
(143,334,c),
(457,0,l),
(495,0,l),
(141,377,ls),
(129,389,o),
(92,429,o),
(92,478,cs),
(92,530,o),
(135,575,o),
(191,575,cs),
(247,575,o),
(289,530,o),
(289,471,c),
(317,471,l),
(317,543,o),
(265,603,o),
(192,603,cs),
(120,603,o),
(64,545,o),
(64,477,cs),
(64,420,o),
(104,375,o),
(123,355,c),
(65,316,o),
(20,256,o),
(20,183,cs),
(20,77,o),
(114,0,o),
(218,0,cs)
);
}
);
width = 515;
},
{
hints = (
{
horizontal = 1;
place = (0, 124);
place = (0, 124);
type = Stem;
},
{
horizontal = 1;
place = (444, 159);
place = (444, 159);
type = Stem;
},
{
horizontal = 1;
place = (124, 155);
place = (124, 155);
type = Stem;
},
{
horizontal = 1;
place = (483, 120);
place = (483, 120);
type = Stem;
},
{
place = (30, 120);
place = (30, 120);
type = Stem;
},
{
place = (368, 0);
place = (368, 0);
type = Stem;
},
{
place = (405, 120);
place = (405, 120);
type = Stem;
},
{
place = (64, 120);
place = (64, 120);
type = Stem;
}
);
layerId = "88F21F75-214F-41EE-AE9C-B4AA79D6697C";
shapes = (
{
closed = 1;
nodes = (
(378,0,o),
(507,110,o),
(507,289,c),
(387,289,l),
(387,192,o),
(323,120,o),
(241,120,cs),
(188,120,o),
(150,150,o),
(150,193,cs),
(150,215,o),
(161,236,o),
(181,255,c),
(417,0,l),
(581,0,l),
(211,399,ls),
(189,422,o),
(184,433,o),
(184,446,cs),
(184,467,o),
(199,483,o),
(219,483,cs),
(239,483,o),
(253,466,o),
(253,444,c),
(373,444,l),
(373,533,o),
(305,603,o),
(219,603,cs),
(134,603,o),
(64,533,o),
(64,446,cs),
(64,412,o),
(75,380,o),
(100,344,c),
(55,301,o),
(30,247,o),
(30,192,cs),
(30,83,o),
(121,0,o),
(240,0,cs)
);
}
);
width = 611;
}
);
note = ampersand;
unicode = 38;
},
{
glyphname = paragraph;
lastChange = "2021-10-06 16:14:43 +0000";
layers = (
{
layerId = "0A901A10-6B10-40AA-AC10-6ECA400C9626";
metricLeft = "=|P";
shapes = (
{
closed = 1;
nodes = (
(311,-100,l),
(311,683,l),
(236,683,ls),
(103,683,o),
(20,613,o),
(20,499,cs),
(20,384,o),
(105,309,o),
(236,309,cs),
(283,309,l),
(283,-100,l)
);
},
{
closed = 1;
nodes = (
(369,-100,l),
(369,683,l),
(341,683,l),
(341,-100,l)
);
}
);
width = 419;
},
{
layerId = "88F21F75-214F-41EE-AE9C-B4AA79D6697C";
metricLeft = "=|P";
shapes = (
{
closed = 1;
nodes = (
(453,-100,l),
(453,680,l),
(262,680,ls),
(101,680,o),
(10,599,o),
(10,453,cs),
(10,304,o),
(103,236,o),
(262,236,cs),
(293,236,l),
(293,-100,l)
);
},
{
closed = 1;
nodes = (
(673,-103,l),
(673,680,l),
(513,680,l),
(513,-103,l)
);
}
);
width = 723;
}
);
metricRight = N;
unicode = 182;
},
{
glyphname = section;
lastChange = "2021-12-09 13:53:41 +0000";
layers = (
{
layerId = "0A901A10-6B10-40AA-AC10-6ECA400C9626";
shapes = (
{
closed = 1;
nodes = (
(333,-102,o),
(406,-45,o),
(406,33,cs),
(406,101,o),
(375,142,o),
(272,172,c),
(362,190,o),
(406,237,o),
(406,297,cs),
(406,381,o),
(359,424,o),
(227,455,cs),
(114,482,o),
(77,514,o),
(77,567,cs),
(77,626,o),
(134,662,o),
(213,662,cs),
(307,662,o),
(354,620,o),
(364,525,c),
(392,525,l),
(383,630,o),
(317,690,o),
(216,690,cs),
(116,690,o),
(49,643,o),
(49,567,cs),
(49,512,o),
(84,470,o),
(175,442,c),
(89,423,o),
(49,362,o),
(49,303,cs),
(49,237,o),
(96,194,o),
(219,165,cs),
(340,136,o),
(378,102,o),
(378,33,cs),
(378,-31,o),
(318,-74,o),
(230,-74,cs),
(121,-74,o),
(71,-15,o),
(58,67,c),
(30,67,l),
(46,-37,o),
(111,-102,o),
(224,-102,cs)
);
},
{
closed = 1;
nodes = (
(115,218,o),
(77,249,o),
(77,303,cs),
(77,382,o),
(162,435,o),
(239,426,c),
(340,401,o),
(378,366,o),
(378,297,cs),
(378,233,o),
(319,190,o),
(227,191,c)
);
}
);
width = 435;
},
{
layerId = "88F21F75-214F-41EE-AE9C-B4AA79D6697C";
shapes = (
{
closed = 1;
nodes = (
(368,-28,o),
(459,24,o),
(459,126,cs),
(459,159,o),
(449,187,o),
(428,211,c),
(449,233,o),
(462,264,o),
(462,301,cs),
(462,372,o),
(420,420,o),
(308,445,cs),
(220,465,o),
(200,476,o),
(200,497,cs),
(200,518,o),
(221,527,o),
(246,527,cs),
(276,527,o),
(295,511,o),
(295,488,c),
(455,488,l),
(455,594,o),
(365,670,o),
(233,670,cs),
(124,670,o),
(33,618,o),
(33,516,cs),
(33,483,o),
(43,455,o),
(64,431,c),
(43,409,o),
(30,378,o),
(30,341,cs),
(30,270,o),
(72,222,o),
(184,197,cs),
(272,177,o),
(292,166,o),
(292,145,cs),
(292,124,o),
(271,115,o),
(246,115,cs),
(216,115,o),
(197,131,o),
(197,154,c),
(37,154,l),
(37,48,o),
(127,-28,o),
(259,-28,cs)
);
},
{
closed = 1;
nodes = (
(202,305,o),
(193,312,o),
(193,326,cs),
(193,342,o),
(211,351,o),
(240,351,c),
(290,337,o),
(299,330,o),
(299,316,cs),
(299,300,o),
(281,291,o),
(252,291,c)
);
}
);
width = 491;
}
);
metricLeft = S;
metricRight = S;
unicode = 167;
},
{
glyphname = copyright;
lastChange = "2021-12-28 15:58:51 +0000";
layers = (
{
hints = (
{
horizontal = 1;
place = (74, 28);
place = (74, 28);
type = Stem;
},
{
horizontal = 1;
place = (143, 28);
place = (143, 28);
type = Stem;
},
{
horizontal = 1;
place = (337, 28);
place = (337, 28);
type = Stem;
},
{
horizontal = 1;
place = (406, 28);
place = (406, 28);
type = Stem;
},
{
place = (30, 28);
place = (30, 28);
type = Stem;
},
{
place = (104, 28);
place = (104, 28);
type = Stem;
},
{
place = (362, 28);
place = (362, 28);
type = Stem;
}
);
layerId = "0A901A10-6B10-40AA-AC10-6ECA400C9626";
shapes = (
{
closed = 1;
nodes = (
(254,142,o),
(293,166,o),
(311,204,c),
(286,216,l),
(272,188,o),
(243,170,o),
(212,170,cs),
(166,170,o),
(129,207,o),
(129,253,cs),
(129,298,o),
(166,336,o),
(212,336,cs),
(244,336,o),
(273,317,o),
(287,288,c),
(312,300,l),
(294,339,o),
(254,364,o),
(212,364,cs),
(150,364,o),
(101,314,o),
(101,253,cs),
(101,192,o),
(150,142,o),
(212,142,cs)
);
},
{
closed = 1;
nodes = (
(309,74,o),
(390,154,o),
(390,254,cs),
(390,353,o),
(309,434,o),
(210,434,cs),
(111,434,o),
(30,353,o),
(30,254,cs),
(30,154,o),
(111,74,o),
(210,74,cs)
);
},
{
closed = 1;
nodes = (
(126,102,o),
(58,170,o),
(58,254,cs),
(58,338,o),
(126,406,o),
(210,406,cs),
(294,406,o),
(362,338,o),
(362,254,cs),
(362,170,o),
(294,102,o),
(210,102,cs)
);
}
);
width = 420;
},
{
hints = (
{
horizontal = 1;
place = (77, 70);
place = (77, 70);
type = Stem;
},
{
horizontal = 1;
place = (162, 70);
place = (162, 70);
type = Stem;
},
{
horizontal = 1;
place = (282, 70);
place = (282, 70);
type = Stem;
},
{
horizontal = 1;
place = (367, 70);
place = (367, 70);
type = Stem;
},
{
place = (30, 70);
place = (30, 70);
type = Stem;
},
{
place = (115, 70);
place = (115, 70);
type = Stem;
},
{
place = (320, 70);
place = (320, 70);
type = Stem;
}
);
layerId = "88F21F75-214F-41EE-AE9C-B4AA79D6697C";
shapes = (
{
closed = 1;
nodes = (
(246,162,o),
(280,183,o),
(295,215,c),
(233,246,l),
(228,237,o),
(220,232,o),
(210,232,cs),
(196,232,o),
(185,243,o),
(185,257,cs),
(185,271,o),
(196,282,o),
(210,282,cs),
(220,282,o),
(229,277,o),
(233,268,c),
(296,298,l),
(280,331,o),
(247,352,o),
(210,352,cs),
(157,352,o),
(115,310,o),
(115,257,cs),
(115,205,o),
(157,162,o),
(210,162,cs)
);
},
{
closed = 1;
nodes = (
(309,77,o),
(390,158,o),
(390,257,cs),
(390,356,o),
(309,437,o),
(210,437,cs),
(111,437,o),
(30,356,o),
(30,257,cs),
(30,158,o),
(111,77,o),
(210,77,cs)
);
},
{
closed = 1;
nodes = (
(149,147,o),
(100,197,o),
(100,257,cs),
(100,318,o),
(149,367,o),
(210,367,cs),
(271,367,o),
(320,318,o),
(320,257,cs),
(320,197,o),
(271,147,o),
(210,147,cs)
);
}
);
width = 420;
}
);
note = copyright;
unicode = 169;
},
{
glyphname = registered;
lastChange = "2021-12-09 13:48:28 +0000";
layers = (
{
layerId = "0A901A10-6B10-40AA-AC10-6ECA400C9626";
shapes = (
{
closed = 1;
nodes = (
(309,330,o),
(390,410,o),
(390,510,cs),
(390,609,o),
(309,690,o),
(210,690,cs),
(111,690,o),
(30,609,o),
(30,510,cs),
(30,410,o),
(111,330,o),
(210,330,cs)
);
},
{
closed = 1;
nodes = (
(287,415,l),
(254,485,l),
(223,485,l),
(257,415,l)
);
},
{
closed = 1;
nodes = (
(126,358,o),
(58,426,o),
(58,510,cs),
(58,594,o),
(126,662,o),
(210,662,cs),
(294,662,o),
(362,594,o),
(362,510,cs),
(362,426,o),
(294,358,o),
(210,358,cs)
);
},
{
closed = 1;
nodes = (
(168,415,l),
(168,480,l),
(215,480,ls),
(266,480,o),
(301,502,o),
(301,547,cs),
(301,591,o),
(268,614,o),
(215,614,cs),
(140,614,l),
(140,415,l)
);
},
{
closed = 1;
nodes = (
(168,586,l),
(215,586,ls),
(252,586,o),
(273,574,o),
(273,547,cs),
(273,519,o),
(249,508,o),
(215,508,cs),
(168,508,l)
);
}
);
width = 420;
},
{
layerId = "88F21F75-214F-41EE-AE9C-B4AA79D6697C";
shapes = (
{
closed = 1;
nodes = (
(309,330,o),
(390,411,o),
(390,510,cs),
(390,609,o),
(309,690,o),
(210,690,cs),
(111,690,o),
(30,609,o),
(30,510,cs),
(30,411,o),
(111,330,o),
(210,330,cs)
);
},
{
closed = 1;
nodes = (
(279,443,l),
(251,501,l),
(199,501,l),
(226,443,l)
);
},
{
closed = 1;
nodes = (
(149,400,o),
(100,450,o),
(100,510,cs),
(100,571,o),
(149,620,o),
(210,620,cs),
(271,620,o),
(320,571,o),
(320,510,cs),
(320,450,o),
(271,400,o),
(210,400,cs)
);
},
{
closed = 1;
nodes = (
(199,443,l),
(199,491,l),
(228,491,ls),
(260,491,o),
(279,504,o),
(279,534,cs),
(279,562,o),
(261,579,o),
(228,579,cs),
(147,579,l),
(147,443,l)
);
},
{
closed = 1;
nodes = (
(199,549,l),
(210,549,ls),
(222,549,o),
(226,543,o),
(226,534,cs),
(226,524,o),
(222,518,o),
(210,518,cs),
(199,518,l)
);
}
);
width = 420;
}
);
unicode = 174;
},
{
glyphname = degree;
lastChange = "2021-11-30 13:43:39 +0000";
layers = (
{
layerId = "0A901A10-6B10-40AA-AC10-6ECA400C9626";
shapes = (
{
closed = 1;
nodes = (
(166,502,o),
(208,544,o),
(208,596,cs),
(208,648,o),
(166,690,o),
(114,690,cs),
(62,690,o),
(20,648,o),
(20,596,cs),
(20,544,o),
(62,502,o),
(114,502,cs)
);
},
{
closed = 1;
nodes = (
(76,526,o),
(44,558,o),
(44,596,cs),
(44,634,o),
(76,666,o),
(114,666,cs),
(152,666,o),
(184,634,o),
(184,596,cs),
(184,558,o),
(152,526,o),
(114,526,cs)
);
}
);
width = 238;
},
{
layerId = "88F21F75-214F-41EE-AE9C-B4AA79D6697C";
shapes = (
{
closed = 1;
nodes = (
(166,502,o),
(208,544,o),
(208,596,cs),
(208,648,o),
(166,690,o),
(114,690,cs),
(62,690,o),
(20,648,o),
(20,596,cs),
(20,544,o),
(62,502,o),
(114,502,cs)
);
},
{
closed = 1;
nodes = (
(96,563,o),
(81,578,o),
(81,596,cs),
(81,614,o),
(96,629,o),
(114,629,cs),
(132,629,o),
(147,614,o),
(147,596,cs),
(147,578,o),
(132,563,o),
(114,563,cs)
);
}
);
width = 238;
}
);
unicode = 176;
},
{
glyphname = bar;
lastChange = "2021-10-06 16:16:35 +0000";
layers = (
{
hints = (
{
horizontal = 1;
place = (-172, 851);
place = (-172, 851);
type = Stem;
},
{
place = (50, 31);
place = (50, 31);
type = Stem;
}
);
layerId = "0A901A10-6B10-40AA-AC10-6ECA400C9626";
shapes = (
{
closed = 1;
nodes = (
(81,-100,l),
(81,680,l),
(50,680,l),
(50,-100,l)
);
}
);
width = 131;
},
{
hints = (
{
horizontal = 1;
place = (-164, 848);
place = (-164, 848);
type = Stem;
},
{
place = (50, 160);
place = (50, 160);
type = Stem;
}
);
layerId = "88F21F75-214F-41EE-AE9C-B4AA79D6697C";
shapes = (
{
closed = 1;
nodes = (
(210,-100,l),
(210,680,l),
(50,680,l),
(50,-100,l)
);
}
);
width = 260;
}
);
metricLeft = N;
metricRight = N;
note = bar;
unicode = 124;
},
{
glyphname = brokenbar;
lastChange = "2021-10-06 16:17:24 +0000";
layers = (
{
layerId = "0A901A10-6B10-40AA-AC10-6ECA400C9626";
shapes = (
{
closed = 1;
nodes = (
(81,432,l),
(81,680,l),
(50,680,l),
(50,432,l)
);
},
{
closed = 1;
nodes = (
(81,-100,l),
(81,148,l),
(50,148,l),
(50,-100,l)
);
}
);
width = 131;
},
{
layerId = "88F21F75-214F-41EE-AE9C-B4AA79D6697C";
shapes = (
{
closed = 1;
nodes = (
(210,360,l),
(210,680,l),
(50,680,l),
(50,360,l)
);
},
{
closed = 1;
nodes = (
(210,-100,l),
(210,220,l),
(50,220,l),
(50,-100,l)
);
}
);
width = 260;
}
);
metricLeft = N;
metricRight = N;
unicode = 166;
},
{
glyphname = cent;
lastChange = "2021-10-11 16:28:40 +0000";
layers = (
{
layerId = "0A901A10-6B10-40AA-AC10-6ECA400C9626";
shapes = (
{
closed = 1;
nodes = (
(347,14,o),
(440,70,o),
(450,190,c),
(418,190,l),
(408,87,o),
(330,42,o),
(244,42,cs),
(118,42,o),
(50,137,o),
(50,277,cs),
(50,418,o),
(119,514,o),
(244,514,cs),
(329,514,o),
(408,469,o),
(418,366,c),
(449,366,l),
(439,485,o),
(345,542,o),
(244,542,cs),
(101,542,o),
(20,433,o),
(20,277,cs),
(20,121,o),
(101,14,o),
(244,14,cs)
);
},
{
closed = 1;
nodes = (
(254,-102,l),
(254,24,l),
(226,24,l),
(226,-102,l)
);
},
{
closed = 1;
nodes = (
(259,527,l),
(259,653,l),
(231,653,l),
(231,527,l)
);
}
);
width = 470;
},
{
hints = (
{
horizontal = 1;
place = (-121, 60);
place = (-121, 60);
type = Stem;
},
{
horizontal = 1;
place = (337, 60);
place = (337, 60);
type = Stem;
},
{
place = (230, 60);
place = (230, 60);
type = Stem;
}
);
layerId = "88F21F75-214F-41EE-AE9C-B4AA79D6697C";
shapes = (
{
closed = 1;
nodes = (
(436,25,o),
(534,109,o),
(544,246,c),
(376,246,l),
(366,203,o),
(333,184,o),
(294,184,cs),
(237,184,o),
(202,224,o),
(202,288,cs),
(202,352,o),
(238,394,o),
(294,394,cs),
(332,394,o),
(366,374,o),
(376,321,c),
(544,321,l),
(534,468,o),
(434,553,o),
(294,553,cs),
(134,553,o),
(40,444,o),
(40,288,cs),
(40,132,o),
(134,25,o),
(294,25,cs)
);
},
{
closed = 1;
nodes = (
(372,-77,l),
(372,139,l),
(212,139,l),
(212,-77,l)
);
},
{
closed = 1;
nodes = (
(372,417,l),
(372,643,l),
(212,643,l),
(212,417,l)
);
}
);
width = 584;
}
);
metricLeft = c;
metricRight = c;
unicode = 162;
},
{
glyphname = currency;
lastChange = "2021-12-09 13:55:45 +0000";
layers = (
{
layerId = "0A901A10-6B10-40AA-AC10-6ECA400C9626";
shapes = (
{
closed = 1;
nodes = (
(322,74,o),
(403,154,o),
(403,254,cs),
(403,353,o),
(322,434,o),
(223,434,cs),
(124,434,o),
(43,353,o),
(43,254,cs),
(43,154,o),
(124,74,o),
(223,74,cs)
);
},
{
closed = 1;
nodes = (
(99,109,l),
(79,129,l),
(30,80,l),
(50,60,l)
);
},
{
closed = 1;
nodes = (
(416,80,l),
(367,129,l),
(347,109,l),
(396,60,l)
);
},
{
closed = 1;
nodes = (
(99,397,l),
(50,446,l),
(30,426,l),
(79,377,l)
);
},
{
closed = 1;
nodes = (
(139,102,o),
(71,170,o),
(71,254,cs),
(71,338,o),
(139,406,o),
(223,406,cs),
(307,406,o),
(375,338,o),
(375,254,cs),
(375,170,o),
(307,102,o),
(223,102,cs)
);
},
{
closed = 1;
nodes = (
(416,426,l),
(396,446,l),
(347,397,l),
(367,377,l)
);
}
);
width = 446;
},
{
layerId = "88F21F75-214F-41EE-AE9C-B4AA79D6697C";
shapes = (
{
closed = 1;
nodes = (
(349,74,o),
(430,154,o),
(430,254,cs),
(430,353,o),
(349,434,o),
(250,434,cs),
(151,434,o),
(70,353,o),
(70,254,cs),
(70,154,o),
(151,74,o),
(250,74,cs)
);
},
{
closed = 1;
nodes = (
(156,77,l),
(74,159,l),
(30,115,l),
(112,33,l)
);
},
{
closed = 1;
nodes = (
(470,115,l),
(426,159,l),
(344,77,l),
(388,33,l)
);
},
{
closed = 1;
nodes = (
(156,429,l),
(112,473,l),
(30,391,l),
(74,347,l)
);
},
{
closed = 1;
nodes = (
(217,195,o),
(191,222,o),
(191,254,cs),
(191,286,o),
(217,313,o),
(250,313,cs),
(282,313,o),
(308,286,o),
(308,254,cs),
(308,222,o),
(282,195,o),
(250,195,cs)
);
},
{
closed = 1;
nodes = (
(470,391,l),
(388,473,l),
(344,429,l),
(426,347,l)
);
}
);
width = 500;
}
);
unicode = 164;
},
{
glyphname = dollar;
lastChange = "2021-10-06 15:00:21 +0000";
layers = (
{
hints = (
{
horizontal = 1;
origin = (0,1);
target = (1,6);
type = Stem;
},
{
horizontal = 1;
origin = (0,18);
target = (2,5);
type = Stem;
},
{
horizontal = 1;
origin = (0,8);
target = (0,15);
type = Stem;
},
{
horizontal = 1;
origin = (0,32);
target = (0,25);
type = Stem;
},
{
origin = (0,21);
target = (2,2);
type = Stem;
},
{
origin = (0,33);
target = (0,0);
type = Stem;
},
{
origin = (1,3);
target = (0,4);
type = Stem;
},
{
origin = (0,11);
target = (0,12);
type = Stem;
},
{
origin = (0,29);
target = (0,28);
type = Stem;
}
);
layerId = "0A901A10-6B10-40AA-AC10-6ECA400C9626";
shapes = (
{
closed = 1;
nodes = (
(232,-85,l),
(232,0,l),
(334,0,o),
(406,60,o),
(406,144,cs),
(406,216,o),
(362,252,o),
(232,286,c),
(232,489,l),
(313,483,o),
(363,433,o),
(363,356,c),
(391,356,l),
(391,450,o),
(332,510,o),
(232,517,c),
(232,603,l),
(204,603,l),
(204,518,l),
(115,518,o),
(48,465,o),
(48,395,cs),
(48,332,o),
(94,293,o),
(204,264,c),
(204,29,l),
(116,38,o),
(58,92,o),
(58,164,c),
(30,164,l),
(30,77,o),
(100,11,o),
(204,1,c),
(204,-85,l)
);
},
{
closed = 1;
nodes = (
(232,257,l),
(337,231,o),
(378,200,o),
(378,143,cs),
(378,75,o),
(319,28,o),
(232,28,c)
);
},
{
closed = 1;
nodes = (
(114,317,o),
(76,347,o),
(76,394,cs),
(76,450,o),
(129,490,o),
(204,490,c),
(204,293,l)
);
}
);
width = 436;
},
{
hints = (
{
horizontal = 1;
place = (-85, 688);
place = (-85, 688);
type = Stem;
},
{
place = (30, 150);
place = (30, 150);
type = Stem;
},
{
place = (453, 160);
place = (453, 160);
type = Stem;
},
{
place = (52, 160);
place = (52, 160);
type = Stem;
},
{
horizontal = 1;
place = (528, 160);
place = (528, 160);
type = Stem;
},
{
place = (436, 160);
place = (436, 160);
type = Stem;
},
{
horizontal = 1;
place = (-5, 160);
place = (-5, 160);
type = Stem;
},
{
place = (30, 160);
place = (30, 160);
type = Stem;
}
);
layerId = "88F21F75-214F-41EE-AE9C-B4AA79D6697C";
shapes = (
{
closed = 1;
nodes = (
(371,-85,l),
(371,-3,l),
(488,9,o),
(603,73,o),
(603,204,cs),
(603,340,o),
(480,379,o),
(371,405,c),
(371,573,l),
(425,561,o),
(474,531,o),
(474,457,c),
(584,457,l),
(584,597,o),
(487,667,o),
(371,684,c),
(371,763,l),
(261,763,l),
(261,685,l),
(158,671,o),
(54,618,o),
(54,502,cs),
(54,385,o),
(161,342,o),
(261,317,c),
(261,113,l),
(199,128,o),
(140,163,o),
(140,229,c),
(30,229,l),
(30,97,o),
(141,22,o),
(261,1,c),
(261,-85,l)
);
},
{
closed = 1;
nodes = (
(371,291,l),
(457,269,o),
(493,247,o),
(493,202,cs),
(493,141,o),
(429,116,o),
(371,108,c)
);
},
{
closed = 1;
nodes = (
(194,451,o),
(164,469,o),
(164,501,cs),
(164,537,o),
(203,564,o),
(261,574,c),
(261,431,l)
);
}
);
width = 632;
}
);
note = dollar;
unicode = 36;
},
{
glyphname = euro;
lastChange = "2021-10-11 16:20:43 +0000";
layers = (
{
layerId = "0A901A10-6B10-40AA-AC10-6ECA400C9626";
shapes = (
{
closed = 1;
nodes = (
(432,23,l),
(229,23,o),
(109,131,o),
(109,341,cs),
(109,550,o),
(227,660,o),
(439,660,c),
(437,688,l),
(189,688,o),
(77,536,o),
(77,340,cs),
(77,141,o),
(192,-5,o),
(432,-5,c)
);
},
{
closed = 1;
nodes = (
(401,270,l),
(401,298,l),
(20,298,l),
(20,270,l)
);
},
{
closed = 1;
nodes = (
(401,360,l),
(401,388,l),
(20,388,l),
(20,360,l)
);
}
);
width = 469;
},
{
layerId = "88F21F75-214F-41EE-AE9C-B4AA79D6697C";
shapes = (
{
closed = 1;
nodes = (
(481,155,l),
(306,155,o),
(249,222,o),
(249,340,cs),
(249,457,o),
(306,528,o),
(481,528,c),
(481,688,l),
(209,688,o),
(69,548,o),
(69,340,cs),
(69,129,o),
(212,-5,o),
(481,-5,c)
);
},
{
closed = 1;
nodes = (
(422,194,l),
(422,314,l),
(10,314,l),
(10,194,l)
);
},
{
closed = 1;
nodes = (
(422,354,l),
(422,474,l),
(10,474,l),
(10,354,l)
);
}
);
width = 501;
}
);
metricRight = C;
unicode = 8364;
},
{
glyphname = sterling;
lastChange = "2021-10-11 16:15:27 +0000";
layers = (
{
layerId = "0A901A10-6B10-40AA-AC10-6ECA400C9626";
shapes = (
{
closed = 1;
nodes = (
(474,0,l),
(474,28,l),
(78,28,l),
(152,42,o),
(185,74,o),
(185,131,cs),
(185,573,ls),
(185,618,o),
(223,655,o),
(267,655,cs),
(474,655,l),
(474,683,l),
(267,683,ls),
(207,683,o),
(157,634,o),
(157,573,cs),
(157,131,ls),
(157,89,o),
(122,49,o),
(50,49,c),
(50,0,l)
);
},
{
closed = 1;
nodes = (
(434,345,l),
(434,373,l),
(79,373,l),
(79,345,l)
);
}
);
width = 493;
},
{
layerId = "88F21F75-214F-41EE-AE9C-B4AA79D6697C";
shapes = (
{
closed = 1;
nodes = (
(540,0,l),
(540,150,l),
(220,150,l),
(254,198,o),
(258,255,o),
(258,312,cs),
(258,487,ls),
(258,504,o),
(266,520,o),
(294,520,cs),
(510,520,l),
(510,680,l),
(276,680,ls),
(178,680,o),
(98,633,o),
(98,502,cs),
(98,234,ls),
(98,176,o),
(100,147,o),
(50,147,c),
(50,0,l)
);
},
{
closed = 1;
nodes = (
(413,284,l),
(413,424,l),
(50,424,l),
(50,284,l)
);
}
);
width = 550;
}
);
metricLeft = L;
metricRight = L;
unicode = 163;
},
{
glyphname = uni20AA;
lastChange = "2021-10-06 15:00:21 +0000";
layers = (
{
hints = (
{
horizontal = 1;
origin = (0,0);
place = (0, 28);
type = Stem;
},
{
horizontal = 1;
origin = (0,11);
place = (518, 28);
type = Stem;
},
{
place = (20, 28);
place = (20, 28);
type = Stem;
},
{
place = (129, 28);
place = (129, 28);
type = Stem;
},
{
place = (237, 28);
place = (237, 28);
type = Stem;
},
{
place = (345, 28);
place = (345, 28);
type = Stem;
}
);
layerId = "0A901A10-6B10-40AA-AC10-6ECA400C9626";
shapes = (
{
closed = 1;
nodes = (
(48,0,l),
(48,490,l),
(64,490,ls),
(159,490,o),
(237,412,o),
(237,317,cs),
(237,191,l),
(265,191,l),
(265,317,ls),
(265,428,o),
(175,518,o),
(64,518,cs),
(20,518,l),
(20,0,l)
);
},
{
closed = 1;
nodes = (
(172,0,ls),
(283,0,o),
(373,90,o),
(373,201,cs),
(373,518,l),
(345,518,l),
(345,201,ls),
(345,106,o),
(268,28,o),
(172,28,cs),
(157,28,l),
(157,326,l),
(129,326,l),
(129,0,l)
);
}
);
width = 393;
},
{
layerId = "88F21F75-214F-41EE-AE9C-B4AA79D6697C";
shapes = (
{
closed = 1;
nodes = (
(210,0,l),
(210,358,l),
(378,358,ls),
(468,358,o),
(493,322,o),
(493,250,cs),
(493,191,l),
(653,191,l),
(653,250,ls),
(653,424,o),
(503,518,o),
(343,518,cs),
(50,518,l),
(50,0,l)
);
},
{
closed = 1;
nodes = (
(607,0,ls),
(775,0,o),
(874,100,o),
(874,267,cs),
(874,518,l),
(714,518,l),
(714,267,ls),
(714,188,o),
(686,160,o),
(607,160,cs),
(432,160,l),
(432,326,l),
(272,326,l),
(272,0,l)
);
}
);
width = 913;
}
);
note = uni20AA;
unicode = 8362;
},
{
glyphname = yen;
lastChange = "2021-10-11 16:17:19 +0000";
layers = (
{
hints = (
{
horizontal = 1;
place = (0, 21);
target = up;
type = BottomGhost;
},
{
place = (269, 28);
place = (269, 28);
type = Stem;
}
);
layerId = "0A901A10-6B10-40AA-AC10-6ECA400C9626";
shapes = (
{
closed = 1;
nodes = (
(297,0,l),
(297,258,l),
(551,683,l),
(518,683,l),
(283,289,l),
(48,683,l),
(15,683,l),
(269,258,l),
(269,0,l)
);
},
{
closed = 1;
nodes = (
(474,120,l),
(474,148,l),
(93,148,l),
(93,120,l)
);
},
{
closed = 1;
nodes = (
(474,210,l),
(474,238,l),
(93,238,l),
(93,210,l)
);
}
);
width = 566;
},
{
hints = (
{
horizontal = 1;
place = (0, 21);
target = up;
type = BottomGhost;
},
{
place = (280, 160);
place = (280, 160);
type = Stem;
}
);
layerId = "88F21F75-214F-41EE-AE9C-B4AA79D6697C";
shapes = (
{
closed = 1;
nodes = (
(440,0,l),
(440,239,l),
(705,683,l),
(518,683,l),
(360,358,l),
(201,683,l),
(15,683,l),
(280,239,l),
(280,0,l)
);
},
{
closed = 1;
nodes = (
(603,44,l),
(603,164,l),
(111,164,l),
(111,44,l)
);
},
{
closed = 1;
nodes = (
(603,204,l),
(603,324,l),
(111,324,l),
(111,204,l)
);
}
);
width = 720;
}
);
metricLeft = Y;
metricRight = Y;
unicode = 165;
},
{
color = 0;
export = 0;
glyphname = dollar.bold;
lastChange = "2021-10-11 16:28:51 +0000";
layers = (
{
layerId = "0A901A10-6B10-40AA-AC10-6ECA400C9626";
width = 600;
},
{
layerId = "88F21F75-214F-41EE-AE9C-B4AA79D6697C";
shapes = (
{
closed = 1;
nodes = (
(400,-86,l),
(400,1,l),
(532,23,o),
(613,106,o),
(613,218,cs),
(613,339,o),
(530,401,o),
(329,430,cs),
(238,443,o),
(212,453,o),
(212,476,cs),
(212,509,o),
(251,528,o),
(318,528,cs),
(391,528,o),
(436,498,o),
(436,448,c),
(596,448,l),
(596,567,o),
(523,653,o),
(400,679,c),
(400,762,l),
(240,762,l),
(240,680,l),
(122,656,o),
(52,584,o),
(52,487,cs),
(52,377,o),
(119,325,o),
(290,301,cs),
(418,283,o),
(453,265,o),
(453,218,cs),
(453,181,o),
(404,155,o),
(336,155,cs),
(254,155,o),
(190,191,o),
(190,238,c),
(30,238,l),
(30,126,o),
(110,37,o),
(240,6,c),
(240,-86,l)
);
}
);
width = 642;
}
);
},
{
glyphname = divisionslash;
lastChange = "2021-12-09 13:56:25 +0000";
layers = (
{
layerId = "0A901A10-6B10-40AA-AC10-6ECA400C9626";
shapes = (
{
closed = 1;
nodes = (
(41,0,l),
(356,679,l),
(326,679,l),
(10,0,l)
);
}
);
width = 366;
},
{
layerId = "88F21F75-214F-41EE-AE9C-B4AA79D6697C";
shapes = (
{
closed = 1;
nodes = (
(196,0,l),
(514,684,l),
(338,684,l),
(20,0,l)
);
}
);
width = 534;
}
);
unicode = 8725;
},
{
glyphname = plus;
lastChange = "2021-10-06 15:00:21 +0000";
layers = (
{
hints = (
{
horizontal = 1;
place = (240, 28);
place = (240, 28);
type = Stem;
},
{
place = (196, 28);
place = (196, 28);
type = Stem;
}
);
layerId = "0A901A10-6B10-40AA-AC10-6ECA400C9626";
shapes = (
{
closed = 1;
nodes = (
(224,74,l),
(224,240,l),
(390,240,l),
(390,268,l),
(224,268,l),
(224,434,l),
(196,434,l),
(196,268,l),
(30,268,l),
(30,240,l),
(196,240,l),
(196,74,l)
);
}
);
width = 420;
},
{
hints = (
{
horizontal = 1;
place = (178, 160);
place = (178, 160);
type = Stem;
},
{
place = (150, 160);
place = (150, 160);
type = Stem;
}
);
layerId = "88F21F75-214F-41EE-AE9C-B4AA79D6697C";
shapes = (
{
closed = 1;
nodes = (
(310,58,l),
(310,178,l),
(430,178,l),
(430,338,l),
(310,338,l),
(310,458,l),
(150,458,l),
(150,338,l),
(30,338,l),
(30,178,l),
(150,178,l),
(150,58,l)
);
}
);
width = 460;
}
);
note = plus;
unicode = 43;
},
{
glyphname = minus;
lastChange = "2021-10-11 16:18:02 +0000";
layers = (
{
layerId = "0A901A10-6B10-40AA-AC10-6ECA400C9626";
shapes = (
{
closed = 1;
nodes = (
(390,240,l),
(390,268,l),
(30,268,l),
(30,240,l)
);
}
);
width = 420;
},
{
layerId = "88F21F75-214F-41EE-AE9C-B4AA79D6697C";
shapes = (
{
closed = 1;
nodes = (
(430,178,l),
(430,338,l),
(30,338,l),
(30,178,l)
);
}
);
width = 460;
}
);
unicode = 8722;
},
{
glyphname = multiply;
lastChange = "2021-12-27 21:26:55 +0000";
layers = (
{
layerId = "0A901A10-6B10-40AA-AC10-6ECA400C9626";
shapes = (
{
closed = 1;
nodes = (
(157,234,l),
(274,117,l),
(294,137,l),
(177,254,l),
(294,371,l),
(274,391,l),
(157,274,l),
(40,391,l),
(20,371,l),
(137,254,l),
(20,137,l),
(40,117,l)
);
}
);
width = 314;
},
{
layerId = "88F21F75-214F-41EE-AE9C-B4AA79D6697C";
shapes = (
{
closed = 1;
nodes = (
(228,145,l),
(313,60,l),
(426,173,l),
(341,258,l),
(426,343,l),
(313,456,l),
(228,371,l),
(143,456,l),
(30,343,l),
(115,258,l),
(30,173,l),
(143,60,l)
);
}
);
width = 456;
}
);
unicode = 215;
},
{
glyphname = divide;
lastChange = "2021-12-09 13:50:09 +0000";
layers = (
{
layerId = "0A901A10-6B10-40AA-AC10-6ECA400C9626";
shapes = (
{
closed = 1;
nodes = (
(390,240,l),
(390,268,l),
(30,268,l),
(30,240,l)
);
},
{
closed = 1;
nodes = (
(224,74,l),
(224,144,l),
(196,144,l),
(196,74,l)
);
},
{
closed = 1;
nodes = (
(224,364,l),
(224,434,l),
(196,434,l),
(196,364,l)
);
}
);
width = 420;
},
{
layerId = "88F21F75-214F-41EE-AE9C-B4AA79D6697C";
shapes = (
{
closed = 1;
nodes = (
(430,188,l),
(430,328,l),
(30,328,l),
(30,188,l)
);
},
{
closed = 1;
nodes = (
(310,20,l),
(310,150,l),
(150,150,l),
(150,20,l)
);
},
{
closed = 1;
nodes = (
(310,368,l),
(310,498,l),
(150,498,l),
(150,368,l)
);
}
);
width = 460;
}
);
unicode = 247;
},
{
glyphname = equal;
lastChange = "2021-10-06 15:00:21 +0000";
layers = (
{
hints = (
{
horizontal = 1;
place = (184, 28);
place = (184, 28);
type = Stem;
},
{
horizontal = 1;
place = (295, 28);
place = (295, 28);
type = Stem;
},
{
place = (20, 360);
place = (20, 360);
type = Stem;
}
);
layerId = "0A901A10-6B10-40AA-AC10-6ECA400C9626";
shapes = (
{
closed = 1;
nodes = (
(380,295,l),
(380,323,l),
(20,323,l),
(20,295,l)
);
},
{
closed = 1;
nodes = (
(380,184,l),
(380,212,l),
(20,212,l),
(20,184,l)
);
}
);
width = 400;
},
{
hints = (
{
horizontal = 1;
place = (84, 160);
place = (84, 160);
type = Stem;
},
{
horizontal = 1;
place = (275, 160);
place = (275, 160);
type = Stem;
},
{
place = (30, 360);
place = (30, 360);
type = Stem;
}
);
layerId = "88F21F75-214F-41EE-AE9C-B4AA79D6697C";
shapes = (
{
closed = 1;
nodes = (
(390,275,l),
(390,435,l),
(30,435,l),
(30,275,l)
);
},
{
closed = 1;
nodes = (
(390,84,l),
(390,244,l),
(30,244,l),
(30,84,l)
);
}
);
width = 420;
}
);
note = equal;
unicode = 61;
},
{
glyphname = greater;
lastChange = "2021-10-06 15:00:21 +0000";
layers = (
{
hints = (
{
horizontal = 1;
place = (129, 358);
place = (129, 358);
type = Stem;
},
{
place = (253, 26);
place = (253, 26);
type = Stem;
}
);
layerId = "0A901A10-6B10-40AA-AC10-6ECA400C9626";
shapes = (
{
closed = 1;
nodes = (
(279,291,l),
(279,325,l),
(20,487,l),
(20,454,l),
(253,308,l),
(20,162,l),
(20,129,l)
);
}
);
width = 309;
},
{
hints = (
{
horizontal = 1;
place = (74, 468);
place = (74, 468);
type = Stem;
},
{
place = (20, 259);
place = (20, 259);
type = Stem;
}
);
layerId = "88F21F75-214F-41EE-AE9C-B4AA79D6697C";
shapes = (
{
closed = 1;
nodes = (
(279,237,l),
(279,379,l),
(20,542,l),
(20,400,l),
(166,308,l),
(20,216,l),
(20,74,l)
);
}
);
width = 309;
}
);
note = greater;
unicode = 62;
},
{
glyphname = less;
lastChange = "2021-10-06 15:00:21 +0000";
layers = (
{
hints = (
{
horizontal = 1;
place = (129, 358);
place = (129, 358);
type = Stem;
},
{
place = (30, 26);
place = (30, 26);
type = Stem;
}
);
layerId = "0A901A10-6B10-40AA-AC10-6ECA400C9626";
shapes = (
{
closed = 1;
nodes = (
(289,162,l),
(56,308,l),
(289,454,l),
(289,487,l),
(30,325,l),
(30,291,l),
(289,129,l)
);
}
);
width = 319;
},
{
hints = (
{
horizontal = 1;
place = (74, 468);
place = (74, 468);
type = Stem;
},
{
place = (30, 259);
place = (30, 259);
type = Stem;
}
);
layerId = "88F21F75-214F-41EE-AE9C-B4AA79D6697C";
shapes = (
{
closed = 1;
nodes = (
(289,216,l),
(143,308,l),
(289,400,l),
(289,542,l),
(30,379,l),
(30,237,l),
(289,74,l)
);
}
);
width = 319;
}
);
note = less;
unicode = 60;
},
{
glyphname = plusminus;
lastChange = "2021-12-09 13:50:45 +0000";
layers = (
{
layerId = "0A901A10-6B10-40AA-AC10-6ECA400C9626";
shapes = (
{
closed = 1;
nodes = (
(224,248,l),
(224,324,l),
(390,324,l),
(390,352,l),
(224,352,l),
(224,518,l),
(196,518,l),
(196,352,l),
(30,352,l),
(30,324,l),
(196,324,l),
(196,248,l)
);
},
{
closed = 1;
nodes = (
(390,120,l),
(390,148,l),
(30,148,l),
(30,120,l)
);
}
);
width = 420;
},
{
layerId = "88F21F75-214F-41EE-AE9C-B4AA79D6697C";
shapes = (
{
closed = 1;
nodes = (
(310,176,l),
(310,236,l),
(430,236,l),
(430,376,l),
(310,376,l),
(310,496,l),
(150,496,l),
(150,376,l),
(30,376,l),
(30,236,l),
(150,236,l),
(150,176,l)
);
},
{
closed = 1;
nodes = (
(430,20,l),
(430,160,l),
(30,160,l),
(30,20,l)
);
}
);
width = 460;
}
);
unicode = 177;
},
{
glyphname = asciitilde;
lastChange = "2021-10-22 15:54:27 +0000";
layers = (
{
hints = (
{
horizontal = 1;
place = (222, 30);
place = (222, 30);
type = Stem;
},
{
horizontal = 1;
place = (274, 30);
place = (274, 30);
type = Stem;
},
{
place = (52, 310);
place = (52, 310);
type = Stem;
}
);
layerId = "0A901A10-6B10-40AA-AC10-6ECA400C9626";
shapes = (
{
closed = 1;
nodes = (
(319,222,o),
(342,229,o),
(362,242,c),
(362,279,l),
(344,262,o),
(319,252,o),
(297,252,cs),
(280,252,o),
(262,255,o),
(214,276,cs),
(167,297,o),
(140,304,o),
(118,304,cs),
(95,304,o),
(72,297,o),
(52,284,c),
(52,246,l),
(71,263,o),
(96,274,o),
(118,274,cs),
(135,274,o),
(153,271,o),
(201,250,cs),
(248,229,o),
(275,222,o),
(297,222,cs)
);
}
);
width = 414;
},
{
hints = (
{
horizontal = 1;
place = (162, 212);
place = (162, 212);
type = Stem;
},
{
place = (20, 311);
place = (20, 311);
type = Stem;
},
{
horizontal = 1;
place = (162, 160);
place = (162, 160);
type = Stem;
},
{
horizontal = 1;
place = (214, 160);
place = (214, 160);
type = Stem;
}
);
layerId = "88F21F75-214F-41EE-AE9C-B4AA79D6697C";
shapes = (
{
closed = 1;
nodes = (
(287,162,o),
(309,166,o),
(331,172,c),
(331,344,l),
(313,335,o),
(294,329,o),
(270,329,cs),
(249,329,o),
(224,334,o),
(192,348,cs),
(173,356,o),
(129,374,o),
(86,374,cs),
(64,374,o),
(41,370,o),
(20,363,c),
(20,192,l),
(40,202,o),
(59,208,o),
(82,208,cs),
(103,208,o),
(129,203,o),
(161,189,cs),
(196,174,o),
(232,162,o),
(266,162,cs)
);
}
);
width = 351;
}
);
note = asciitilde;
unicode = 126;
},
{
glyphname = logicalnot;
lastChange = "2021-12-09 13:51:06 +0000";
layers = (
{
layerId = "0A901A10-6B10-40AA-AC10-6ECA400C9626";
shapes = (
{
closed = 1;
nodes = (
(380,74,l),
(380,268,l),
(20,268,l),
(20,240,l),
(352,240,l),
(352,74,l)
);
}
);
width = 410;
},
{
layerId = "88F21F75-214F-41EE-AE9C-B4AA79D6697C";
shapes = (
{
closed = 1;
nodes = (
(420,107,l),
(420,377,l),
(20,377,l),
(20,237,l),
(260,237,l),
(260,107,l)
);
}
);
width = 450;
}
);
unicode = 172;
},
{
glyphname = ltr94;
lastChange = "2021-10-06 15:00:21 +0000";
layers = (
{
hints = (
{
horizontal = 1;
place = (577, 26);
place = (577, 26);
type = Stem;
},
{
place = (20, 359);
place = (20, 359);
type = Stem;
}
);
layerId = "0A901A10-6B10-40AA-AC10-6ECA400C9626";
shapes = (
{
closed = 1;
nodes = (
(53,344,l),
(199,577,l),
(346,344,l),
(379,344,l),
(216,603,l),
(183,603,l),
(20,344,l)
);
}
);
width = 399;
},
{
hints = (
{
horizontal = 1;
place = (344, 259);
place = (344, 259);
type = Stem;
},
{
place = (20, 467);
place = (20, 467);
type = Stem;
}
);
layerId = "88F21F75-214F-41EE-AE9C-B4AA79D6697C";
shapes = (
{
closed = 1;
nodes = (
(162,344,l),
(254,490,l),
(346,344,l),
(487,344,l),
(325,603,l),
(183,603,l),
(20,344,l)
);
}
);
width = 507;
}
);
note = ltr94;
unicode = 94;
},
